#56400150.obj

v 5.301025E-09 0.181521 0.04637019
v -0.06983976 0.1725395 0.06473016
v -0.06983978 0.1725394 0.04281356
v -4.097107E-08 0.181521 0.06879222
v -0.129047 0.1356369 0.05139288
v -0.1290471 0.1356369 0.03020172
v -0.1729927 0.06499939 0.03280677
v -0.1729927 0.06499939 0.01072726
v -0.1825 -0.0009790538 0.02136678
v -0.1825 -0.0009790538 -0.005265793
v -0.168608 -0.0708343 0.0173055
v -0.168608 -0.0708343 -0.01595533
v -0.129047 -0.1304479 0.01863485
v -0.129047 -0.1304479 -0.0205711
v -0.06983972 -0.1698622 0.02207604
v -0.0698397 -0.1698622 -0.02139087
v 5.052547E-09 -0.183479 0.02250001
v 6.254593E-09 -0.183479 -0.02249998
v 0.06983971 -0.1698622 0.02139091
v 0.06983973 -0.1698622 -0.022076
v 0.129047 -0.1304479 0.02057113
v 0.129047 -0.1304479 -0.01863481
v 0.168608 -0.07083429 0.01595536
v 0.168608 -0.07083429 -0.01730547
v 0.1825 -0.0009790382 0.005265819
v 0.1825 -0.0009790405 -0.02136675
v 0.1745806 0.06242298 -0.01111605
v 0.1745806 0.06242297 -0.03319555
v 0.129047 0.1356369 -0.03020171
v 0.129047 0.1356369 -0.05139286
v 0.06983975 0.1725394 -0.04281355
v 0.06983974 0.1725395 -0.06473015
v -2.403244E-08 0.181521 -0.04637019
v 2.343753E-08 0.181521 -0.06879221
v 6.254593E-09 -0.183479 -0.02249998
v -0.06203612 -0.1511876 -0.02122278
v -0.0698397 -0.1698622 -0.02139087
v 5.301024E-09 -0.1634435 -0.0213776
v -0.1146278 -0.1159397 -0.01982253
v -0.129047 -0.1304479 -0.0205711
v -0.1497685 -0.06301547 -0.0150494
v -0.168608 -0.0708343 -0.01595533
v -0.1621082 -0.000979043 -0.005265793
v -0.1825 -0.0009790538 -0.005265793
v -0.145132 0.0442724 0.002320401
v -0.1729927 0.06499939 0.01072726
v -0.114023 0.07903412 0.01514984
v -0.1290471 0.1356369 0.03020172
v -0.06203615 0.1050481 0.02520486
v -0.06983978 0.1725394 0.04281356
v 7.028204E-09 0.1146761 0.0295592
v 5.301025E-09 0.181521 0.04637019
v 0.03813613 0.1114365 0.02681153
v 0.06983973 -0.1698622 -0.022076
v 0.06203612 -0.1511876 -0.02019284
v 0.129047 -0.1304479 -0.01863481
v 0.1146278 -0.1159397 -0.01788034
v 0.168608 -0.07083429 -0.01730547
v 0.1497685 -0.06301546 -0.01747844
v 0.1825 -0.0009790405 -0.02136675
v 0.1621082 -0.0009790314 -0.02136675
v 0.1745806 0.06242297 -0.03319555
v 0.1435441 0.04684882 -0.0261026
v 0.129047 0.1356369 -0.05139286
v 0.114023 0.0790341 -0.03574369
v 0.06983974 0.1725395 -0.06473015
v 0.06203614 0.1050481 -0.04342296
v 2.343753E-08 0.181521 -0.06879221
v 1.321919E-08 0.1146761 -0.04989785
v -0.03813613 0.1114364 -0.04801491
v -4.097107E-08 0.181521 0.06879222
v -0.06203615 0.1050481 0.04436874
v -0.06983976 0.1725395 0.06473016
v -2.381985E-08 0.1146761 0.05074775
v -0.114023 0.0790341 0.03574371
v -0.129047 0.1356369 0.05139288
v -0.145132 0.04427239 0.02610262
v -0.1729927 0.06499939 0.03280677
v -0.1621082 -0.000979043 0.02136678
v -0.1825 -0.0009790538 0.02136678
v -0.1497685 -0.06301547 0.01747847
v -0.168608 -0.0708343 0.0173055
v -0.1146278 -0.1159397 0.01788037
v -0.129047 -0.1304479 0.01863485
v -0.06203612 -0.1511876 0.02019287
v -0.06983972 -0.1698622 0.02207604
v 4.158942E-09 -0.1634435 0.02137763
v 5.052547E-09 -0.183479 0.02250001
v 0.06203612 -0.1511876 0.02122281
v 0.06983971 -0.1698622 0.02139091
v 0.1146278 -0.1159397 0.01982256
v 0.129047 -0.1304479 0.02057113
v 0.1497685 -0.06301545 0.01504943
v 0.168608 -0.07083429 0.01595536
v 0.1621082 -0.0009790291 0.005265817
v 0.1825 -0.0009790382 0.005265819
v 0.1435441 0.04684883 -0.002320381
v 0.1745806 0.06242298 -0.01111605
v 0.114023 0.07903413 -0.01401331
v 0.129047 0.1356369 -0.03020171
v 0.06203613 0.1050481 -0.02223998
v 0.06983975 0.1725394 -0.04281355
v -1.876086E-08 0.1146761 -0.02870931
v -2.403244E-08 0.181521 -0.04637019
v -0.03813614 0.1114365 -0.02681152
v 5.301024E-09 -0.1634435 -0.0213776
v -0.06203612 -0.1511876 0.02019287
v -0.06203612 -0.1511876 -0.02122278
v 4.158942E-09 -0.1634435 0.02137763
v -0.1146278 -0.1159397 0.01788037
v -0.1146278 -0.1159397 -0.01982253
v -0.1497685 -0.06301547 0.01747847
v -0.1497685 -0.06301547 -0.0150494
v -0.1621082 -0.000979043 0.02136678
v -0.1621082 -0.000979043 -0.005265793
v -0.145132 0.04427239 0.02610262
v -0.145132 0.0442724 0.002320401
v -0.114023 0.0790341 0.03574371
v -0.114023 0.07903412 0.01514984
v -0.06203615 0.1050481 0.04436874
v -0.06203615 0.1050481 0.02520486
v -2.381985E-08 0.1146761 0.05074775
v 7.028204E-09 0.1146761 0.0295592
v 0.03813612 0.1114364 0.04801492
v 0.03813613 0.1114365 0.02681153
v 0.03813612 0.1114364 0.04801492
v 0.03813612 0.1114364 0.04801492
v 5.301025E-09 0.181521 0.04637019
v 0.03813613 0.1114365 0.02681153
v -4.097107E-08 0.181521 0.06879222
v 0.06203612 -0.1511876 -0.02019284
v 0.06203612 -0.1511876 0.02122281
v 0.1146278 -0.1159397 -0.01788034
v 0.1146278 -0.1159397 0.01982256
v 0.1497685 -0.06301546 -0.01747844
v 0.1497685 -0.06301545 0.01504943
v 0.1621082 -0.0009790314 -0.02136675
v 0.1621082 -0.0009790291 0.005265817
v 0.1435441 0.04684882 -0.0261026
v 0.1435441 0.04684883 -0.002320381
v 0.114023 0.0790341 -0.03574369
v 0.114023 0.07903413 -0.01401331
v 0.06203614 0.1050481 -0.04342296
v 0.06203613 0.1050481 -0.02223998
v 1.321919E-08 0.1146761 -0.04989785
v -1.876086E-08 0.1146761 -0.02870931
v -0.03813613 0.1114364 -0.04801491
v -0.03813614 0.1114365 -0.02681152
v -0.03813613 0.1114364 -0.04801491
v -2.403244E-08 0.181521 -0.04637019
v -0.03813614 0.1114365 -0.02681152
v 2.343753E-08 0.181521 -0.06879221
v -1.748556E-08 0.1834791 -7.450581E-09
v -0.02140333 0.1589076 -0.03707161
v -2.416524E-08 0.1589076 -0.04280661
v -0.03707163 0.1589076 -0.0214033
v -0.04280663 0.1589076 0
v -0.03707163 0.1589076 0.02140331
v -0.02140331 0.1589076 0.03707161
v -6.474801E-09 0.1589076 0.04280661
v 0.0214033 0.1589076 0.03707161
v 0.0370716 0.1589076 0.02140329
v 0.0428066 0.1589076 -2.04891E-08
v 0.03707159 0.1589076 -0.02140333
v 0.02140327 0.1589076 -0.03707163
v -1.9553E-08 0.1307217 -0.02261098
v -0.01130551 0.1307217 -0.01958168
v -0.0195817 0.1307217 -0.01130549
v -0.02261099 0.1307217 -1.862645E-09
v -0.01958169 0.1307217 0.01130549
v -0.0113055 0.1307217 0.01958168
v -1.02087E-08 0.1307217 0.02261098
v 0.01130548 0.1307217 0.01958167
v 0.01958167 0.1307217 0.01130548
v 0.02261097 0.1307217 -1.303852E-08
v 0.01958167 0.1307217 -0.0113055
v 0.01130547 0.1307217 -0.01958169
v -0.02302855 0.1311461 0.04168879
v 0.02395222 0.1311515 -0.04090402
v 0.0239513 0.1311496 0.04168928
v -0.02302795 0.131148 -0.0409116
v 0.0239513 0.1311496 0.04168928
v 0.02396623 0.1219733 -0.04090497
v 0.02396532 0.1219731 0.04168922
v 0.02395222 0.1311515 -0.04090402
v 0.02396532 0.1219731 0.04168922
v -0.02303382 0.1219666 -0.04091204
v -0.02303441 0.1219633 0.04168876
v 0.02396623 0.1219733 -0.04090497
v -0.02303441 0.1219633 0.04168876
v -0.02302795 0.131148 -0.0409116
v -0.02302855 0.1311461 0.04168879
v -0.02303382 0.1219666 -0.04091204

vn -0.1275518 0.991832 0
vn -0.3190927 0.9477235 0
vn -0.3503293 0.9366266 0
vn -0.1275517 0.991832 0
vn -0.6854872 0.7280847 0
vn -0.7281191 0.6854507 0
vn -0.930351 0.3666703 0
vn -0.9496061 0.3134457 0
vn -0.9998927 -0.01464948 0
vn -0.9988407 -0.04813832 0
vn -0.9253849 -0.3790286 0
vn -0.919153 -0.3939007 0
vn -0.7046058 -0.7095989 0
vn -0.7041069 -0.7100939 0
vn -0.376894 -0.9262564 0
vn -0.3785424 -0.925584 0
vn -0.0006015674 -0.9999999 0
vn 0.0006015699 -0.9999999 0
vn 0.3785426 -0.925584 0
vn 0.3768941 -0.9262564 0
vn 0.704107 -0.7100939 0
vn 0.7046058 -0.7095989 0
vn 0.919153 -0.3939006 0
vn 0.9253849 -0.3790285 0
vn 0.9983593 -0.05726013 0
vn 0.9997085 -0.02414452 0
vn 0.9529651 0.3030799 0
vn 0.9332557 0.3592128 0
vn 0.7276475 0.6859513 0
vn 0.6862559 0.7273601 0
vn 0.3503292 0.9366266 0
vn 0.3190927 0.9477235 0
vn 0.1275518 0.991832 0
vn 0.1275517 0.991832 0
vn -0.000397346 0.05161232 -0.9986671
vn -0.01282586 0.01843339 -0.9997478
vn -0.01157371 0.01758544 -0.9997784
vn 0.002188261 0.05953192 -0.998224
vn -0.007815807 0.05507392 -0.9984517
vn -0.001639756 0.05800062 -0.9983152
vn -0.004648943 0.1183649 -0.9929593
vn 1.538122E-05 0.1188262 -0.992915
vn -0.001227663 0.1587219 -0.9873226
vn -0.020613 0.1749584 -0.98436
vn -0.05434023 0.2919529 -0.9548877
vn -0.0421795 0.2892094 -0.9563361
vn 0.02139256 0.2811446 -0.959427
vn 0.03710445 0.2619204 -0.964376
vn 0.03941761 0.2596253 -0.9649047
vn 0.03204363 0.2525212 -0.9670606
vn -0.01229097 0.2468486 -0.9689762
vn 0.001104105 0.2438976 -0.9698004
vn -0.04909481 0.2436037 -0.9686314
vn -0.004317514 0.09415661 -0.995548
vn -0.002860605 0.09543794 -0.9954313
vn -0.007488896 0.05002019 -0.9987202
vn -0.004012853 0.04303101 -0.9990657
vn -0.004937028 -0.02356421 -0.9997101
vn -0.0009470048 -0.02770576 -0.9996157
vn -0.001412464 -0.1240537 -0.9922745
vn -0.0223682 -0.1217104 -0.9923136
vn -0.0903423 -0.2307905 -0.9688002
vn -0.0948244 -0.219805 -0.9709244
vn 0.02272405 -0.2774031 -0.9604849
vn 0.01823904 -0.2777506 -0.96048
vn 0.01705522 -0.296897 -0.9547572
vn 0.01090197 -0.2946856 -0.955532
vn 0.02052915 -0.2844575 -0.9584688
vn 0.01785465 -0.2719592 -0.9621431
vn -0.02439852 -0.2719216 -0.96201
vn -0.01579698 -0.2728094 0.9619384
vn -0.02423263 -0.2839911 0.9585207
vn -0.02260644 -0.2877734 0.9574317
vn -0.007025565 -0.2606103 0.9654186
vn -0.0113683 -0.2731212 0.9619125
vn -0.02682477 -0.2747049 0.9611543
vn 0.07604626 -0.2061177 0.9755678
vn 0.05258465 -0.2275281 0.9723507
vn 0.01767174 -0.1163696 0.9930488
vn 0.001421492 -0.1171918 0.9931083
vn 0.0009470511 -0.02770568 0.9996157
vn 0.004937073 -0.02356412 0.9997101
vn 0.004012889 0.0430311 0.9990657
vn 0.007488933 0.05002027 0.9987202
vn 0.002860668 0.09543803 0.9954313
vn 0.004317578 0.0941567 0.995548
vn -0.002188226 0.05953196 0.998224
vn 0.0003973799 0.05161238 0.9986671
vn 0.01282579 0.01843347 0.9997478
vn 0.01157365 0.01758551 0.9997784
vn 0.007815791 0.05507396 0.9984517
vn 0.001639733 0.05800067 0.9983152
vn 0.0046488 0.118365 0.9929593
vn -1.553366E-05 0.1188263 0.992915
vn 0.001223645 0.1541968 0.9880394
vn 0.02754537 0.1758267 0.9840357
vn 0.08814584 0.3207572 0.943051
vn 0.08619341 0.3026761 0.9491881
vn 0.0182729 0.2931845 0.9558812
vn -0.003902849 0.2811608 0.9596528
vn -0.03279195 0.2909353 0.9561806
vn -0.02844188 0.2826976 0.9587874
vn -0.005056319 0.2662756 0.9638836
vn -0.005606861 0.2554377 0.9668092
vn 0.02640336 0.2553527 0.9664874
vn 0.001031053 0.9999995 0
vn 0.3794577 0.9252091 0
vn 0.3812765 0.9244611 0
vn -0.001031034 0.9999995 0
vn 0.7067258 0.7074876 0
vn 0.7041876 0.7100139 0
vn 0.9257215 0.3782057 0
vn 0.9187213 0.3949066 0
vn 0.9954394 -0.09539685 0
vn 0.9985842 -0.05319558 0
vn 0.8462571 -0.5327747 0
vn 0.868723 -0.4952983 0
vn 0.5896963 -0.807625 0
vn 0.6274374 -0.778667 0
vn 0.2921009 -0.9563875 0
vn 0.3150922 -0.949061 0
vn 0.03339496 -0.9994422 0
vn 0.03451674 -0.9994041 0
vn -0.08464588 -0.996411 0
vn -0.0846459 -0.996411 0
vn 0.04699205 -0.2603288 0.9643757
vn 0.878379 0.4779649 0
vn 0.878379 0.4779649 0
vn 0.878379 0.4779649 0
vn 0.878379 0.4779649 0
vn -0.3794578 0.9252091 0
vn -0.3812765 0.9244611 0
vn -0.706726 0.7074874 0
vn -0.7041877 0.7100139 0
vn -0.9257215 0.3782057 0
vn -0.9187213 0.3949065 0
vn -0.9949008 -0.1008579 0
vn -0.9982488 -0.05915499 0
vn -0.8397018 -0.5430478 0
vn -0.862371 -0.5062767 0
vn -0.5852829 -0.8108292 0
vn -0.6201825 -0.7844576 0
vn -0.2928613 -0.9561549 0
vn -0.3154421 -0.9489449 0
vn -0.03245553 -0.9994732 0
vn -0.03653866 -0.9993322 0
vn 0.08464602 -0.996411 0
vn 0.08464591 -0.996411 0
vn -0.878379 0.4779647 0
vn -0.878379 0.4779648 0
vn -0.878379 0.4779648 0
vn -0.878379 0.4779647 0
vn 0 1 0
vn -0.4908232 0.19071 -0.8501306
vn 0 0.1907096 -0.9816465
vn -0.8501309 0.19071 -0.4908231
vn -0.9816465 0.1907098 0
vn -0.8501306 0.19071 0.4908233
vn -0.4908231 0.1907101 0.8501308
vn 0 0.1907101 0.9816464
vn 0.4908234 0.19071 0.8501306
vn 0.8501309 0.1907101 0.4908229
vn 0.9816465 0.1907099 0
vn 0.8501305 0.1907101 -0.4908237
vn 0.4908229 0.1907096 -0.8501311
vn 0 -0.5824385 -0.8128748
vn -0.4064375 -0.5824383 -0.7039704
vn -0.7039704 -0.5824383 -0.4064372
vn -0.8128749 -0.5824383 0
vn -0.7039704 -0.5824382 0.4064374
vn -0.4064375 -0.5824382 0.7039704
vn 0 -0.5824383 0.8128749
vn 0.4064377 -0.5824383 0.7039701
vn 0.7039704 -0.5824382 0.4064373
vn 0.8128749 -0.5824383 0
vn 0.7039701 -0.5824383 -0.4064377
vn 0.4064369 -0.5824385 -0.7039705
vn -7.453802E-05 1 2.327285E-05
vn -7.453802E-05 1 2.327285E-05
vn -7.453802E-05 1 2.327285E-05
vn -7.454101E-05 1 2.327114E-05
vn 0.9999988 0.001527629 1.109849E-05
vn 0.9999988 0.001527629 1.109849E-05
vn 0.9999988 0.001527629 1.109849E-05
vn 0.9999988 0.001526726 1.119877E-05
vn 0.0002086179 -1 -3.986684E-05
vn 0.0002086179 -1 -3.986684E-05
vn 0.0002086179 -1 -3.986684E-05
vn 0.0001420367 -1 0
vn -0.9999999 0.0006383408 -7.201169E-06
vn -0.9999999 0.0006383408 -7.201169E-06
vn -0.9999999 0.0006383408 -7.201169E-06
vn -0.9999999 0.0006386394 -7.167976E-06

vt 0.8972195 0.8380944
vt 0.7822106 0.8886353
vt 0.7822106 0.8380944
vt 0.8972195 0.8886353
vt 0.6725896 0.8886353
vt 0.6725896 0.8380944
vt 0.5629686 0.8886353
vt 0.5629686 0.8380944
vt 0.4533475 0.8886353
vt 0.4533475 0.8380944
vt 0.3437265 0.8886353
vt 0.3437265 0.8380944
vt 0.2341054 0.8886353
vt 0.2341054 0.8380944
vt 0.1244843 0.8886353
vt 0.1244843 0.8380944
vt 0.01486322 0.8886353
vt 0.01486322 0.8380944
vt 0.1244843 0.8886353
vt 0.1244843 0.8380944
vt 0.2341054 0.8886353
vt 0.2341054 0.8380944
vt 0.3437265 0.8886353
vt 0.3437265 0.8380944
vt 0.4533475 0.8886353
vt 0.4533475 0.8380944
vt 0.5629686 0.8886353
vt 0.5629686 0.8380944
vt 0.6725896 0.8886353
vt 0.6725896 0.8380944
vt 0.7822106 0.8886353
vt 0.7822106 0.8380944
vt 0.8972195 0.8886353
vt 0.8972195 0.8380944
vt 0.01486322 0.8380944
vt 0.1244843 0.7400531
vt 0.1244843 0.8380944
vt 0.01486322 0.7400531
vt 0.2341054 0.7400531
vt 0.2341054 0.8380944
vt 0.3437265 0.7400531
vt 0.3437265 0.8380944
vt 0.4533475 0.7400531
vt 0.4533475 0.8380944
vt 0.5629686 0.7400531
vt 0.5629686 0.8380944
vt 0.6725896 0.7400531
vt 0.6725896 0.8380944
vt 0.7822106 0.7400531
vt 0.7822106 0.8380944
vt 0.8972195 0.7400531
vt 0.8972195 0.8380944
vt 0.9395754 0.7400531
vt 0.1244843 0.8380944
vt 0.1244843 0.7400531
vt 0.2341054 0.8380944
vt 0.2341054 0.7400531
vt 0.3437265 0.8380944
vt 0.3437265 0.7400531
vt 0.4533475 0.8380944
vt 0.4533475 0.7400531
vt 0.5629686 0.8380944
vt 0.5629686 0.7400531
vt 0.6725896 0.8380944
vt 0.6725896 0.7400531
vt 0.7822106 0.8380944
vt 0.7822106 0.7400531
vt 0.8972195 0.8380944
vt 0.8972195 0.7400531
vt 0.9395754 0.7400531
vt 0.8972195 0.8886353
vt 0.7822106 0.9824712
vt 0.7822106 0.8886353
vt 0.8972195 0.9824712
vt 0.6725896 0.9824712
vt 0.6725896 0.8886353
vt 0.5629686 0.9824712
vt 0.5629686 0.8886353
vt 0.4533475 0.9824712
vt 0.4533475 0.8886353
vt 0.3437265 0.9824712
vt 0.3437265 0.8886353
vt 0.2341054 0.9824712
vt 0.2341054 0.8886353
vt 0.1244843 0.9824712
vt 0.1244843 0.8886353
vt 0.01486322 0.9824712
vt 0.01486322 0.8886353
vt 0.1244843 0.9824712
vt 0.1244843 0.8886353
vt 0.2341054 0.9824712
vt 0.2341054 0.8886353
vt 0.3437265 0.9824712
vt 0.3437265 0.8886353
vt 0.4533475 0.9824712
vt 0.4533475 0.8886353
vt 0.5629686 0.9824712
vt 0.5629686 0.8886353
vt 0.6725896 0.9824712
vt 0.6725896 0.8886353
vt 0.7822106 0.9824712
vt 0.7822106 0.8886353
vt 0.8972195 0.9824712
vt 0.8972195 0.8886353
vt 0.9395754 0.9824712
vt 0.01486322 0.7400531
vt 0.1244843 0.6895648
vt 0.1244843 0.7400531
vt 0.01486322 0.6895648
vt 0.2341054 0.6895648
vt 0.2341054 0.7400531
vt 0.3437265 0.6895648
vt 0.3437265 0.7400531
vt 0.4533475 0.6895648
vt 0.4533475 0.7400531
vt 0.5629686 0.6895648
vt 0.5629686 0.7400531
vt 0.6725896 0.6895648
vt 0.6725896 0.7400531
vt 0.7822106 0.6895648
vt 0.7822106 0.7400531
vt 0.8972195 0.6895648
vt 0.8972195 0.7400531
vt 0.9395754 0.6895648
vt 0.9395754 0.7400531
vt 0.9395754 0.9824712
vt 0.982029 0.8886353
vt 0.8972195 0.8380944
vt 0.982029 0.8380944
vt 0.8972195 0.8886353
vt 0.1244843 0.7400531
vt 0.1244843 0.6895648
vt 0.2341054 0.7400531
vt 0.2341054 0.6895648
vt 0.3437265 0.7400531
vt 0.3437265 0.6895648
vt 0.4533475 0.7400531
vt 0.4533475 0.6895648
vt 0.5629686 0.7400531
vt 0.5629686 0.6895648
vt 0.6725896 0.7400531
vt 0.6725896 0.6895648
vt 0.7822106 0.7400531
vt 0.7822106 0.6895648
vt 0.8972195 0.7400531
vt 0.8972195 0.6895648
vt 0.9395754 0.7400531
vt 0.9395754 0.6895648
vt 0.982029 0.8380944
vt 0.8972195 0.8886353
vt 0.982029 0.8886353
vt 0.8972195 0.8380944
vt 0.338071 0.3380712
vt 0.1760251 0.6187428
vt 0.338071 0.6621629
vt 0.05739925 0.5001169
vt 0.01397926 0.3380711
vt 0.05739931 0.1760252
vt 0.1760252 0.05739945
vt 0.3380711 0.01397932
vt 0.5001171 0.05739945
vt 0.6187428 0.1760253
vt 0.6621629 0.3380713
vt 0.6187427 0.5001172
vt 0.5001168 0.6187429
vt 0.338071 0.5092603
vt 0.2524764 0.4863253
vt 0.1898168 0.4236657
vt 0.1668818 0.338071
vt 0.1898168 0.2524765
vt 0.2524764 0.1898168
vt 0.3380711 0.1668818
vt 0.4236657 0.1898169
vt 0.4863253 0.2524765
vt 0.5092604 0.3380712
vt 0.4863253 0.4236658
vt 0.4236656 0.4863254
vt 0.9818792 0.3333808
vt 0.6785255 0.04831094
vt 0.981881 0.04830784
vt 0.6784977 0.3333731
vt 0.981881 0.04830784
vt 0.678522 0.01082438
vt 0.9818808 0.0108211
vt 0.6785255 0.04831094
vt 0.9818808 0.6560789
vt 0.6784961 0.3708883
vt 0.9818791 0.3708965
vt 0.678522 0.6560822
vt 0.9818791 0.3708965
vt 0.6784977 0.3333731
vt 0.9818792 0.3333808
vt 0.6784961 0.3708883

g 56400150.obj
usemtl 56400150
usemap 56400150
f 1/1/1 3/3/3 2/2/2
f 2/2/2 4/4/4 1/1/1
f 5/5/5 2/2/2 3/3/3
f 3/3/3 6/6/6 5/5/5
f 7/7/7 5/5/5 6/6/6
f 6/6/6 8/8/8 7/7/7
f 9/9/9 7/7/7 8/8/8
f 8/8/8 10/10/10 9/9/9
f 11/11/11 9/9/9 10/10/10
f 10/10/10 12/12/12 11/11/11
f 13/13/13 11/11/11 12/12/12
f 12/12/12 14/14/14 13/13/13
f 15/15/15 13/13/13 14/14/14
f 14/14/14 16/16/16 15/15/15
f 17/17/17 15/15/15 16/16/16
f 16/16/16 18/18/18 17/17/17
f 19/19/19 17/17/17 18/18/18
f 18/18/18 20/20/20 19/19/19
f 21/21/21 19/19/19 20/20/20
f 20/20/20 22/22/22 21/21/21
f 23/23/23 21/21/21 22/22/22
f 22/22/22 24/24/24 23/23/23
f 25/25/25 23/23/23 24/24/24
f 24/24/24 26/26/26 25/25/25
f 27/27/27 25/25/25 26/26/26
f 26/26/26 28/28/28 27/27/27
f 29/29/29 27/27/27 28/28/28
f 28/28/28 30/30/30 29/29/29
f 31/31/31 29/29/29 30/30/30
f 30/30/30 32/32/32 31/31/31
f 33/33/33 31/31/31 32/32/32
f 32/32/32 34/34/34 33/33/33
f 35/35/35 37/37/37 36/36/36
f 36/36/36 38/38/38 35/35/35
f 39/39/39 36/36/36 37/37/37
f 37/37/37 40/40/40 39/39/39
f 41/41/41 39/39/39 40/40/40
f 40/40/40 42/42/42 41/41/41
f 43/43/43 41/41/41 42/42/42
f 42/42/42 44/44/44 43/43/43
f 45/45/45 43/43/43 44/44/44
f 44/44/44 46/46/46 45/45/45
f 47/47/47 45/45/45 46/46/46
f 46/46/46 48/48/48 47/47/47
f 49/49/49 47/47/47 48/48/48
f 48/48/48 50/50/50 49/49/49
f 51/51/51 49/49/49 50/50/50
f 50/50/50 52/52/52 51/51/51
f 52/52/52 53/53/53 51/51/51
f 54/54/54 35/35/35 38/38/38
f 38/38/38 55/55/55 54/54/54
f 56/56/56 54/54/54 55/55/55
f 55/55/55 57/57/57 56/56/56
f 58/58/58 56/56/56 57/57/57
f 57/57/57 59/59/59 58/58/58
f 60/60/60 58/58/58 59/59/59
f 59/59/59 61/61/61 60/60/60
f 62/62/62 60/60/60 61/61/61
f 61/61/61 63/63/63 62/62/62
f 64/64/64 62/62/62 63/63/63
f 63/63/63 65/65/65 64/64/64
f 66/66/66 64/64/64 65/65/65
f 65/65/65 67/67/67 66/66/66
f 68/68/68 66/66/66 67/67/67
f 67/67/67 69/69/69 68/68/68
f 68/68/68 69/69/69 70/70/70
f 71/71/71 73/73/73 72/72/72
f 72/72/72 74/74/74 71/71/71
f 75/75/75 72/72/72 73/73/73
f 73/73/73 76/76/76 75/75/75
f 77/77/77 75/75/75 76/76/76
f 76/76/76 78/78/78 77/77/77
f 79/79/79 77/77/77 78/78/78
f 78/78/78 80/80/80 79/79/79
f 81/81/81 79/79/79 80/80/80
f 80/80/80 82/82/82 81/81/81
f 83/83/83 81/81/81 82/82/82
f 82/82/82 84/84/84 83/83/83
f 85/85/85 83/83/83 84/84/84
f 84/84/84 86/86/86 85/85/85
f 87/87/87 85/85/85 86/86/86
f 86/86/86 88/88/88 87/87/87
f 89/89/89 87/87/87 88/88/88
f 88/88/88 90/90/90 89/89/89
f 91/91/91 89/89/89 90/90/90
f 90/90/90 92/92/92 91/91/91
f 93/93/93 91/91/91 92/92/92
f 92/92/92 94/94/94 93/93/93
f 95/95/95 93/93/93 94/94/94
f 94/94/94 96/96/96 95/95/95
f 97/97/97 95/95/95 96/96/96
f 96/96/96 98/98/98 97/97/97
f 99/99/99 97/97/97 98/98/98
f 98/98/98 100/100/100 99/99/99
f 101/101/101 99/99/99 100/100/100
f 100/100/100 102/102/102 101/101/101
f 103/103/103 101/101/101 102/102/102
f 102/102/102 104/104/104 103/103/103
f 104/104/104 105/105/105 103/103/103
f 106/106/106 108/108/108 107/107/107
f 107/107/107 109/109/109 106/106/106
f 110/110/110 107/107/107 108/108/108
f 108/108/108 111/111/111 110/110/110
f 112/112/112 110/110/110 111/111/111
f 111/111/111 113/113/113 112/112/112
f 114/114/114 112/112/112 113/113/113
f 113/113/113 115/115/115 114/114/114
f 116/116/116 114/114/114 115/115/115
f 115/115/115 117/117/117 116/116/116
f 118/118/118 116/116/116 117/117/117
f 117/117/117 119/119/119 118/118/118
f 120/120/120 118/118/118 119/119/119
f 119/119/119 121/121/121 120/120/120
f 122/122/122 120/120/120 121/121/121
f 121/121/121 123/123/123 122/122/122
f 124/124/124 122/122/122 123/123/123
f 123/123/123 125/125/125 124/124/124
f 71/71/71 74/74/74 126/126/126
f 127/127/127 129/129/129 128/128/128
f 128/128/128 130/130/130 127/127/127
f 109/109/109 132/132/132 131/131/131
f 131/131/131 106/106/106 109/109/109
f 133/133/133 131/131/131 132/132/132
f 132/132/132 134/134/134 133/133/133
f 135/135/135 133/133/133 134/134/134
f 134/134/134 136/136/136 135/135/135
f 137/137/137 135/135/135 136/136/136
f 136/136/136 138/138/138 137/137/137
f 139/139/139 137/137/137 138/138/138
f 138/138/138 140/140/140 139/139/139
f 141/141/141 139/139/139 140/140/140
f 140/140/140 142/142/142 141/141/141
f 143/143/143 141/141/141 142/142/142
f 142/142/142 144/144/144 143/143/143
f 145/145/145 143/143/143 144/144/144
f 144/144/144 146/146/146 145/145/145
f 147/147/147 145/145/145 146/146/146
f 146/146/146 148/148/148 147/147/147
f 149/149/149 151/151/151 150/150/150
f 150/150/150 152/152/152 149/149/149
f 153/153/153 155/155/155 154/154/154
f 153/153/153 154/154/154 156/156/156
f 153/153/153 156/156/156 157/157/157
f 153/153/153 157/157/157 158/158/158
f 153/153/153 158/158/158 159/159/159
f 153/153/153 159/159/159 160/160/160
f 153/153/153 160/160/160 161/161/161
f 153/153/153 161/161/161 162/162/162
f 153/153/153 162/162/162 163/163/163
f 153/153/153 163/163/163 164/164/164
f 153/153/153 164/164/164 165/165/165
f 153/153/153 165/165/165 155/155/155
f 154/154/154 155/155/155 166/166/166
f 166/166/166 155/155/155 165/165/165
f 166/166/166 167/167/167 154/154/154
f 156/156/156 154/154/154 167/167/167
f 167/167/167 168/168/168 156/156/156
f 157/157/157 156/156/156 168/168/168
f 168/168/168 169/169/169 157/157/157
f 158/158/158 157/157/157 169/169/169
f 169/169/169 170/170/170 158/158/158
f 159/159/159 158/158/158 170/170/170
f 170/170/170 171/171/171 159/159/159
f 160/160/160 159/159/159 171/171/171
f 171/171/171 172/172/172 160/160/160
f 161/161/161 160/160/160 172/172/172
f 172/172/172 173/173/173 161/161/161
f 162/162/162 161/161/161 173/173/173
f 173/173/173 174/174/174 162/162/162
f 163/163/163 162/162/162 174/174/174
f 174/174/174 175/175/175 163/163/163
f 164/164/164 163/163/163 175/175/175
f 175/175/175 176/176/176 164/164/164
f 165/165/165 164/164/164 176/176/176
f 176/176/176 177/177/177 165/165/165
f 165/165/165 177/177/177 166/166/166
f 178/178/178 180/180/180 179/179/179
f 179/179/179 181/181/181 178/178/178
f 182/182/182 184/184/184 183/183/183
f 183/183/183 185/185/185 182/182/182
f 186/186/186 188/188/188 187/187/187
f 187/187/187 189/189/189 186/186/186
f 190/190/190 192/192/192 191/191/191
f 191/191/191 193/193/193 190/190/190
