#Circle002.obj

v 0.04859846 -0.1413704 0.06884097
v 9.848611E-09 -0.1489705 -0.06884094
v 0.04859846 -0.1413704 -0.06884094
v 3.091287E-10 -0.1489705 0.06884097
v 0.09084531 -0.120204 0.06884096
v 0.09084531 -0.120204 -0.06884095
v 0.1241677 -0.08794532 0.06884096
v 0.1241677 -0.08794532 -0.06884095
v 0.1460321 -0.04704705 0.06884096
v 0.1241677 -0.08794532 -0.06884095
v 0.1460321 -0.04704705 -0.06884095
v 0.1241677 -0.08794532 0.06884096
v 0.1538828 1.863648E-08 0.06884096
v 0.1538828 1.971926E-08 -0.06884096
v 0.1460321 0.04704709 0.06884095
v 0.1538828 1.971926E-08 -0.06884096
v 0.1460321 0.04704709 -0.06884096
v 0.1538828 1.863648E-08 0.06884096
v 0.1241678 0.08794533 0.06884095
v 0.1241678 0.08794533 -0.06884096
v 0.09084532 0.120204 0.06884095
v 0.09084529 0.120204 -0.06884096
v 0.04859843 0.1413704 0.06884094
v 0.04859842 0.1413704 -0.06884097
v -0.09084536 0.120204 0.06884095
v -0.04859848 0.1413704 -0.06884097
v -0.09084538 0.120204 -0.06884096
v -0.04859847 0.1413704 0.06884094
v -0.1241677 0.08794529 0.06884095
v -0.1241677 0.08794528 -0.06884096
v -0.1460321 0.04704704 0.06884095
v -0.1460321 0.04704703 -0.06884096
v -0.1538828 -2.646562E-08 0.06884096
v -0.1538828 -4.224873E-08 -0.06884096
v -0.1460321 -0.0470471 0.06884096
v -0.1538828 -4.224873E-08 -0.06884096
v -0.1460321 -0.04704712 -0.06884095
v -0.1538828 -2.646562E-08 0.06884096
v -0.1241677 -0.08794539 0.06884096
v -0.1241677 -0.08794539 -0.06884095
v -0.09084531 -0.120204 0.06884096
v -0.1241677 -0.08794539 -0.06884095
v -0.09084529 -0.120204 -0.06884095
v -0.1241677 -0.08794539 0.06884096
v -0.04859843 -0.1413704 0.06884097
v -0.04859843 -0.1413705 -0.06884094
v 3.091287E-10 -0.1489705 0.06884097
v 9.848611E-09 -0.1489705 -0.06884094
v 0.04859846 -0.1418647 0.03118601
v 1.958164E-08 -0.1496189 -0.03526005
v 2.1596E-09 -0.1496189 0.03118601
v 0.04859847 -0.1418647 -0.03526005
v -0.04859846 -0.1418728 0.03118601
v -0.04859844 -0.1418728 -0.03526005
v 0.05047921 -0.1468415 0.07150511
v 1.022975E-08 -0.1547356 -0.07150509
v 3.210931E-10 -0.1547356 0.07150511
v 0.05047922 -0.1468415 -0.07150509
v 0.09436103 -0.1248559 0.07150511
v 0.09436103 -0.1248559 -0.0715051
v 0.128973 -0.0913488 0.07150511
v 0.128973 -0.09134879 -0.0715051
v 0.1516836 -0.04886777 0.07150511
v 0.128973 -0.09134879 -0.0715051
v 0.128973 -0.0913488 0.07150511
v 0.1516836 -0.04886777 -0.0715051
v 0.1598381 2.078322E-08 0.0715051
v 0.1598381 2.158155E-08 -0.0715051
v 0.1516836 0.04886781 0.0715051
v 0.1598381 2.158155E-08 -0.0715051
v 0.1598381 2.078322E-08 0.0715051
v 0.1516836 0.04886781 -0.07150511
v 0.1289731 0.09134882 0.0715051
v 0.1289731 0.09134883 -0.07150511
v 0.09436103 0.1248559 0.0715051
v 0.09436101 0.1248559 -0.07150511
v 0.05047919 0.1468415 0.07150509
v 0.05047918 0.1468415 -0.07150511
v -0.09436108 0.1248559 0.0715051
v -0.05047924 0.1468415 -0.07150511
v -0.05047923 0.1468415 0.07150509
v -0.0943611 0.1248559 -0.07150511
v -0.128973 0.09134877 0.0715051
v -0.128973 0.09134876 -0.07150511
v -0.1516836 0.04886776 0.0715051
v -0.1516836 0.04886774 -0.07150511
v -0.1598381 -2.664132E-08 0.0715051
v -0.1598381 -4.439546E-08 -0.0715051
v -0.1516836 -0.04886782 0.07150511
v -0.1598381 -4.439546E-08 -0.0715051
v -0.1598381 -2.664132E-08 0.0715051
v -0.1516836 -0.04886784 -0.0715051
v -0.128973 -0.09134887 0.07150511
v -0.128973 -0.09134887 -0.0715051
v -0.09436101 -0.1248559 0.07150511
v -0.128973 -0.09134887 -0.0715051
v -0.128973 -0.09134887 0.07150511
v -0.09436101 -0.1248559 -0.0715051
v -0.0504792 -0.1468415 0.07150511
v -0.05047918 -0.1468415 -0.07150509
v 3.210931E-10 -0.1547356 0.07150511
v 1.022975E-08 -0.1547356 -0.07150509
v 0.05047921 -0.1473549 0.03239292
v 2.033945E-08 -0.1554091 -0.03662461
v 2.243176E-09 -0.1554091 0.03239291
v 0.05047923 -0.1473549 -0.03662461
v -0.05047921 -0.1473633 0.03239291
v -0.0504792 -0.1473633 -0.03662461
v -0.0625923 0.1598712 0.112223
v 0.06257963 0.1022449 0.112223
v -0.06257518 0.1022449 0.112223
v 0.06259022 0.1598712 0.112223
v 0.08729053 0.1022449 0.09916963
v -0.06257518 0.1022449 0.112223
v 0.06257963 0.1022449 0.112223
v 0.09957393 0.1022449 -0.08096121
v -0.08794165 0.1022449 -0.1046779
v -0.08794165 0.1022449 0.09894539
v 0.06257963 0.1022449 -0.1179555
v -0.06257518 0.1022449 -0.1179555
v 0.09957393 0.1022449 0.07522868
v -0.09956947 0.1022449 0.07522868
v -0.09956947 0.1022449 -0.08096121
v 0.06257963 0.1022449 -0.1179555
v 0.09957393 0.1022449 -0.08096121
v 0.08729053 0.1022449 -0.1049021
v 0.06257963 0.1022449 -0.1179555
v -0.0625923 0.1598712 -0.1179555
v -0.06257518 0.1022449 -0.1179555
v 0.06259022 0.1598712 -0.1179555
v 0.07662991 0.1728354 -0.09142729
v -0.07663197 0.1728354 0.08569474
v -0.07663197 0.1728354 -0.09142729
v 0.07662991 0.1728354 0.08569474
v -0.0625923 0.1598712 0.112223
v 0.07662991 0.1728354 0.08569474
v 0.06259022 0.1598712 0.112223
v -0.07663197 0.1728354 0.08569474
v 0.09958452 0.1598712 0.07522868
v 0.07662991 0.1728354 -0.09142729
v 0.09958452 0.1598712 -0.08096121
v 0.07662991 0.1728354 0.08569474
v 0.06259022 0.1598712 -0.1179555
v -0.07663197 0.1728354 -0.09142729
v -0.0625923 0.1598712 -0.1179555
v 0.07662991 0.1728354 -0.09142729
v -0.09958658 0.1598712 -0.08096121
v -0.07663197 0.1728354 0.08569474
v -0.09958658 0.1598712 0.07522868
v -0.07663197 0.1728354 -0.09142729
v 0.09957393 0.1022449 -0.08096121
v 0.09958452 0.1598712 0.07522868
v 0.09958452 0.1598712 -0.08096121
v 0.09957393 0.1022449 0.07522868
v -0.09958658 0.1598712 -0.08096121
v -0.09956947 0.1022449 0.07522868
v -0.09956947 0.1022449 -0.08096121
v -0.09958658 0.1598712 0.07522868
v 0.09958452 0.1598712 0.07522868
v 0.08730113 0.1598712 0.09916963
v 0.07662991 0.1728354 0.08569474
v 0.09958452 0.1598712 -0.08096121
v 0.07662991 0.1728354 -0.09142729
v 0.08730113 0.1598712 -0.1049021
v -0.0625923 0.1598712 0.112223
v -0.08795876 0.1598712 0.09894539
v -0.07663197 0.1728354 0.08569474
v -0.0625923 0.1598712 -0.1179555
v -0.07663197 0.1728354 -0.09142729
v -0.08795876 0.1598712 -0.1046779
v 0.08729053 0.1022449 0.09916963
v 0.06259022 0.1598712 0.112223
v 0.08730113 0.1598712 0.09916963
v 0.06257963 0.1022449 0.112223
v 0.08730113 0.1598712 -0.1049021
v 0.06257963 0.1022449 -0.1179555
v 0.08729053 0.1022449 -0.1049021
v 0.06259022 0.1598712 -0.1179555
v -0.08795876 0.1598712 0.09894539
v -0.06257518 0.1022449 0.112223
v -0.08794165 0.1022449 0.09894539
v -0.0625923 0.1598712 0.112223
v -0.08794165 0.1022449 -0.1046779
v -0.0625923 0.1598712 -0.1179555
v -0.08795876 0.1598712 -0.1046779
v -0.06257518 0.1022449 -0.1179555
v 0.09958452 0.1598712 -0.08096121
v 0.08729053 0.1022449 -0.1049021
v 0.09957393 0.1022449 -0.08096121
v 0.08730113 0.1598712 -0.1049021
v 0.09957393 0.1022449 0.07522868
v 0.08730113 0.1598712 0.09916963
v 0.09958452 0.1598712 0.07522868
v 0.08729053 0.1022449 0.09916963
v -0.09958658 0.1598712 0.07522868
v -0.08794165 0.1022449 0.09894539
v -0.09956947 0.1022449 0.07522868
v -0.08795876 0.1598712 0.09894539
v -0.09956947 0.1022449 -0.08096121
v -0.08795876 0.1598712 -0.1046779
v -0.09958658 0.1598712 -0.08096121
v -0.08794165 0.1022449 -0.1046779
v 0.08730113 0.1598712 -0.1049021
v 0.07662991 0.1728354 -0.09142729
v 0.06259022 0.1598712 -0.1179555
v 0.07662991 0.1728354 0.08569474
v 0.08730113 0.1598712 0.09916963
v 0.06259022 0.1598712 0.112223
v -0.07663197 0.1728354 0.08569474
v -0.08795876 0.1598712 0.09894539
v -0.09958658 0.1598712 0.07522868
v -0.08795876 0.1598712 -0.1046779
v -0.07663197 0.1728354 -0.09142729
v -0.09958658 0.1598712 -0.08096121
v -0.01352287 0.137609 0.1090291
v 0.02750778 0.129464 0.1273604
v -0.01352287 0.137609 0.1273604
v 0.02750778 0.129464 0.1090291

vn -0.304863 0.9523962 0
vn 0 1 0
vn -0.3048631 0.9523962 0
vn 0 1 0
vn -0.5784448 0.8157215 0
vn -0.5784448 0.8157215 0
vn -0.7983286 0.6022221 0
vn -0.7983286 0.602222 0
vn -0.9466415 0.3222883 0
vn -0.7983286 0.602222 0
vn -0.9466416 0.3222882 0
vn -0.7983286 0.6022221 0
vn -1 0 0
vn -1 0 0
vn -0.9466419 -0.3222876 0
vn -1 0 0
vn -0.9466417 -0.3222877 0
vn -1 0 0
vn -0.7983285 -0.6022221 0
vn -0.7983285 -0.6022223 0
vn -0.5784439 -0.8157221 0
vn -0.5784439 -0.8157221 0
vn -0.4479412 -0.894063 0
vn -0.4479415 -0.8940629 0
vn 0.578445 -0.8157214 0
vn 0.4479415 -0.8940628 0
vn 0.5784452 -0.8157213 0
vn 0.4479413 -0.8940629 0
vn 0.7983289 -0.6022217 0
vn 0.7983288 -0.6022217 0
vn 0.9466415 -0.3222883 0
vn 0.9466415 -0.3222883 0
vn 1 0 0
vn 1 0 0
vn 0.9466417 0.3222878 0
vn 1 0 0
vn 0.9466416 0.322288 0
vn 1 0 0
vn 0.7983284 0.6022224 0
vn 0.7983282 0.6022225 0
vn 0.5784441 0.815722 0
vn 0.7983282 0.6022225 0
vn 0.5784442 0.815722 0
vn 0.7983284 0.6022224 0
vn 0.3048631 0.9523962 0
vn 0.3048631 0.9523962 0
vn 0 1 0
vn 0 1 0
vn 0.157562 -0.9875092 0
vn 8.099742E-05 -1 0
vn 8.092299E-05 -1 0
vn 0.157562 -0.9875092 0
vn -0.1574021 -0.9875346 0
vn -0.1574021 -0.9875346 0
vn 0.3048629 -0.9523962 0
vn 1.632284E-07 -1 0
vn 0 -1 0
vn 0.3048629 -0.9523962 0
vn 0.5784447 -0.8157216 0
vn 0.5784447 -0.8157216 0
vn 0.7983288 -0.6022218 0
vn 0.7983287 -0.602222 0
vn 0.9466415 -0.3222883 1.180478E-07
vn 0.7983287 -0.602222 0
vn 0.7983288 -0.6022218 0
vn 0.9466416 -0.3222882 0
vn 1 0 0
vn 1 2.067771E-07 0
vn 0.9466417 0.3222878 0
vn 1 2.067771E-07 0
vn 1 0 0
vn 0.9466417 0.3222878 0
vn 0.7983286 0.602222 0
vn 0.7983285 0.6022221 0
vn 0.5784441 0.815722 0
vn 0.5784439 0.8157221 0
vn 0.4479411 0.894063 0
vn 0.4479413 0.8940629 0
vn -0.5784451 0.8157213 0
vn -0.4479415 0.8940628 0
vn -0.4479412 0.8940629 0
vn -0.5784452 0.8157213 0
vn -0.7983289 0.6022216 0
vn -0.7983289 0.6022216 0
vn -0.9466415 0.3222883 0
vn -0.9466415 0.3222882 0
vn -1 0 0
vn -1 -1.634982E-07 0
vn -0.9466416 -0.322288 0
vn -1 -1.634982E-07 0
vn -1 0 0
vn -0.9466416 -0.3222882 0
vn -0.7983285 -0.6022224 0
vn -0.7983283 -0.6022224 0
vn -0.5784441 -0.815722 0
vn -0.7983283 -0.6022224 0
vn -0.7983285 -0.6022224 0
vn -0.5784443 -0.8157219 0
vn -0.304863 -0.9523962 0
vn -0.3048629 -0.9523962 0
vn 0 -1 0
vn 1.632284E-07 -1 0
vn 0.1575622 -0.9875091 0
vn 8.110789E-05 -1 0
vn 8.103825E-05 -1 0
vn 0.1575622 -0.9875091 0
vn -0.157402 -0.9875346 0
vn -0.157402 -0.9875346 0
vn 0 0 1
vn 0 0 1
vn 0 0 1
vn 0 0 1
vn 1.558421E-07 -1 1.43673E-07
vn 0 -1 1.303029E-07
vn 1.523991E-07 -1 2.885021E-07
vn 0 -1 3.039858E-07
vn 1.44376E-07 -1 1.392538E-07
vn 1.857845E-07 -1 1.405057E-07
vn 0 -1 4.829857E-07
vn 0 -1 1.455772E-07
vn 2.380126E-07 -1 1.221173E-07
vn 1.32421E-06 -1 1.385964E-07
vn 1.245384E-07 -1 0
vn 0 -1 4.829857E-07
vn 0 -1 3.039858E-07
vn -5.773126E-07 -1 1.092892E-06
vn 0 0 -1
vn 0 0 -1
vn 0 0 -1
vn 0 0 -1
vn 0 1 0
vn 0 1 0
vn 0 1 0
vn 0 1 0
vn 0 0.8984538 0.439068
vn 0 0.8984538 0.439068
vn 0 0.8984538 0.439068
vn 0 0.8984539 0.439068
vn 0.4917645 0.8707283 0
vn 0.4917645 0.8707283 0
vn 0.4917645 0.8707283 0
vn 0.4917645 0.8707283 0
vn 0 0.8984535 -0.4390688
vn 0 0.8984535 -0.4390688
vn 0 0.8984535 -0.4390687
vn 0 0.8984535 -0.4390688
vn -0.491765 0.8707279 0
vn -0.491765 0.8707279 0
vn -0.491765 0.8707279 0
vn -0.491765 0.870728 0
vn 1 -0.0001838624 0
vn 1 -0.0001838624 0
vn 1 -0.0001838624 0
vn 1 -0.0001838625 0
vn -1 -0.0002968939 0
vn -1 -0.0002968939 0
vn -1 -0.0002968939 0
vn -1 -0.0002968939 0
vn 0.5676778 0.7700067 0.2912587
vn 0.5676778 0.7700067 0.2912587
vn 0.5676777 0.7700067 0.2912587
vn 0.567678 0.7700062 -0.2912596
vn 0.567678 0.7700062 -0.2912596
vn 0.567678 0.7700062 -0.2912596
vn -0.28129 0.7950351 0.5373966
vn -0.28129 0.7950351 0.5373965
vn -0.28129 0.7950351 0.5373965
vn -0.2812903 0.7950346 -0.5373973
vn -0.2812903 0.7950346 -0.5373973
vn -0.2812903 0.7950346 -0.5373973
vn 0.4670802 -8.580949E-05 0.8842149
vn 0.4670801 -8.580949E-05 0.8842149
vn 0.4670802 -8.580949E-05 0.8842149
vn 0.4670801 -8.583986E-05 0.884215
vn 0.4670804 -8.595583E-05 -0.8842148
vn 0.4670804 -8.595583E-05 -0.8842148
vn 0.4670804 -8.595583E-05 -0.8842148
vn 0.4670802 -8.583985E-05 -0.8842149
vn -0.4637437 -0.0001376827 0.8859694
vn -0.4637437 -0.0001376827 0.8859694
vn -0.4637437 -0.0001376827 0.8859694
vn -0.4637439 -0.0001377979 0.8859693
vn -0.4637436 -0.0001376826 -0.8859694
vn -0.4637437 -0.0001376827 -0.8859694
vn -0.4637437 -0.0001376827 -0.8859694
vn -0.4637435 -0.0001377977 -0.8859696
vn 0.8897269 -0.0001635873 -0.4564932
vn 0.8897269 -0.0001635873 -0.4564931
vn 0.8897269 -0.0001635873 -0.4564932
vn 0.8897271 -0.0001637346 -0.4564929
vn 0.8897271 -0.0001635496 0.4564928
vn 0.8897271 -0.0001635497 0.4564928
vn 0.8897271 -0.0001635496 0.4564927
vn 0.8897271 -0.0001636591 0.456493
vn -0.897891 -0.0002665419 0.4402177
vn -0.897891 -0.0002665419 0.4402176
vn -0.897891 -0.0002665419 0.4402176
vn -0.8978911 -0.0002665784 0.4402176
vn -0.897891 -0.0002665784 -0.4402176
vn -0.897891 -0.0002665784 -0.4402177
vn -0.897891 -0.0002665784 -0.4402176
vn -0.897891 -0.0002665784 -0.4402176
vn 0.2843008 0.7934184 -0.5382009
vn 0.2843008 0.7934185 -0.5382009
vn 0.2843008 0.7934184 -0.5382009
vn 0.2843003 0.7934191 0.5382001
vn 0.2843003 0.7934191 0.5382001
vn 0.2843004 0.7934191 0.5382001
vn -0.5651897 0.7770302 0.2771004
vn -0.5651897 0.7770302 0.2771004
vn -0.5651897 0.7770302 0.2771004
vn -0.56519 0.7770298 -0.2771011
vn -0.56519 0.7770298 -0.2771011
vn -0.56519 0.7770298 -0.2771011
vn 0.194711 0.9808607 0
vn 0.194711 0.9808607 0
vn 0.194711 0.9808607 0
vn 0.194711 0.9808607 0

vt 0.9896865 0.2677202
vt 0.6323616 0.3945065
vt 0.6323616 0.2677202
vt 0.9896865 0.3945064
vt 0.9896865 0.1746443
vt 0.6323616 0.1746443
vt 0.9896865 0.05936545
vt 0.6323616 0.05936545
vt 0.9896865 0.1011199
vt 0.6323616 0.009147346
vt 0.6323616 0.1011199
vt 0.9896865 0.009147346
vt 0.9896865 0.2228168
vt 0.6323616 0.2228168
vt 0.9896865 0.1011199
vt 0.6323616 0.009147346
vt 0.6323616 0.1011199
vt 0.9896865 0.009147346
vt 0.9896865 0.2228168
vt 0.6323616 0.2228168
vt 0.9896865 0.3784567
vt 0.6323616 0.3784567
vt 0.9896865 0.5958153
vt 0.6323616 0.5958153
vt 0.9896865 0.4313031
vt 0.6323616 0.5960111
vt 0.6323616 0.431303
vt 0.9896865 0.5960111
vt 0.9896865 0.2677202
vt 0.6323616 0.2677202
vt 0.9896865 0.1014788
vt 0.6323616 0.1014786
vt 0.9896865 0.009147346
vt 0.6323616 0.009147346
vt 0.9896865 0.1022161
vt 0.6323616 0.2228168
vt 0.6323616 0.1022161
vt 0.9896865 0.2228168
vt 0.9896865 0.009147346
vt 0.6323616 0.009147346
vt 0.9896865 0.1396225
vt 0.6323616 0.009147346
vt 0.6323616 0.1396225
vt 0.9896865 0.009147346
vt 0.9896865 0.2677202
vt 0.6323616 0.2677202
vt 0.9896865 0.3947611
vt 0.6323616 0.3947611
vt -0.0009437203 0.7493908
vt 0.2468718 0.9952043
vt 0.2468718 0.7493908
vt -0.0009437203 0.9952043
vt 0.4946872 0.7493908
vt 0.4946872 0.9952043
vt 0.9896865 0.2677202
vt 0.6323616 0.3945065
vt 0.9896865 0.3945064
vt 0.6323616 0.2677202
vt 0.9896865 0.1746443
vt 0.6323616 0.1746443
vt 0.9896865 0.05936545
vt 0.6323616 0.05936545
vt 0.9896865 0.1011199
vt 0.6323616 0.009147346
vt 0.9896865 0.009147346
vt 0.6323616 0.1011199
vt 0.9896865 0.2228168
vt 0.6323616 0.2228168
vt 0.9896865 0.1011199
vt 0.6323616 0.009147346
vt 0.9896865 0.009147346
vt 0.6323616 0.1011199
vt 0.9896865 0.2228168
vt 0.6323616 0.2228168
vt 0.9896865 0.3784567
vt 0.6323616 0.3784567
vt 0.9896865 0.5958153
vt 0.6323616 0.5958153
vt 0.9896865 0.4313031
vt 0.6323616 0.5960111
vt 0.9896865 0.5960111
vt 0.6323616 0.431303
vt 0.9896865 0.2677202
vt 0.6323616 0.2677202
vt 0.9896865 0.1014788
vt 0.6323616 0.1014786
vt 0.9896865 0.009147346
vt 0.6323616 0.009147346
vt 0.9896865 0.1022161
vt 0.6323616 0.2228168
vt 0.9896865 0.2228168
vt 0.6323616 0.1022161
vt 0.9896865 0.009147346
vt 0.6323616 0.009147346
vt 0.9896865 0.1396225
vt 0.6323616 0.009147346
vt 0.9896865 0.009147346
vt 0.6323616 0.1396225
vt 0.9896865 0.2677202
vt 0.6323616 0.2677202
vt 0.9896865 0.3947611
vt 0.6323616 0.3947611
vt -0.0009437203 0.7493908
vt 0.2468718 0.9952043
vt 0.2468718 0.7493908
vt -0.0009437203 0.9952043
vt 0.4946872 0.7493908
vt 0.4946872 0.9952043
vt 0.1036406 0.6230446
vt 0.3959531 0.7223449
vt 0.1036605 0.7223449
vt 0.3959655 0.6230446
vt 0.7518522 0.7578241
vt 0.7319431 0.9439563
vt 0.7319431 0.7817912
vt 0.9398733 0.7338572
vt 0.9597822 0.9679234
vt 0.7518522 0.9679233
vt 0.9796914 0.7817912
vt 0.9796913 0.9439563
vt 0.7717612 0.7338571
vt 0.7717612 0.9918904
vt 0.9398732 0.9918904
vt 0.9796914 0.7817912
vt 0.9398733 0.7338572
vt 0.9597824 0.7578242
vt 0.6869131 0.7227226
vt 0.9736244 0.6283475
vt 0.9736244 0.7227226
vt 0.6869131 0.6283475
vt 0.08109883 0.08663696
vt 0.5409577 0.520713
vt 0.0810989 0.520713
vt 0.5409577 0.08663684
vt 0.615847 0.4856058
vt 0.5409577 0.08663684
vt 0.615847 0.1217439
vt 0.5409577 0.520713
vt 0.517866 0.01421428
vt 0.08109883 0.08663696
vt 0.1041903 0.01421452
vt 0.5409577 0.08663684
vt 0.006209412 0.121744
vt 0.0810989 0.520713
vt 0.006209476 0.485606
vt 0.08109883 0.08663696
vt 0.1041904 0.5931354
vt 0.5409577 0.520713
vt 0.517866 0.5931352
vt 0.0810989 0.520713
vt 0.6115001 0.6283475
vt 0.9736244 0.7227226
vt 0.6115001 0.7227226
vt 0.9736244 0.6283475
vt 0.6113815 0.7227226
vt 0.9736244 0.6283475
vt 0.6113815 0.6283475
vt 0.9736244 0.7227226
vt 0.517866 0.01421428
vt 0.5766856 0.04722863
vt 0.5409577 0.08663684
vt 0.1041903 0.01421452
vt 0.08109883 0.08663696
vt 0.04175828 0.05109322
vt 0.615847 0.4856058
vt 0.5802981 0.5622069
vt 0.5409577 0.520713
vt 0.006209476 0.485606
vt 0.0810989 0.520713
vt 0.03017144 0.5587819
vt 0.439153 0.7223449
vt 0.3959655 0.6230446
vt 0.4391592 0.6230446
vt 0.3959531 0.7223449
vt 0.566803 0.7227226
vt 0.5221058 0.6283475
vt 0.566803 0.6283475
vt 0.5221058 0.7227226
vt 0.06044879 0.6230446
vt 0.1036605 0.7223449
vt 0.06045876 0.7223449
vt 0.1036406 0.6230446
vt 0.5666841 0.6283475
vt 0.5219868 0.7227226
vt 0.5666841 0.7227226
vt 0.5219868 0.6283475
vt 0.6115001 0.7227226
vt 0.566803 0.6283475
vt 0.6115001 0.6283475
vt 0.566803 0.7227226
vt 0.4823529 0.7223448
vt 0.4391592 0.6230446
vt 0.4823529 0.6230446
vt 0.439153 0.7223449
vt 0.03117583 0.6434966
vt 0.06045876 0.7223449
vt 0.03117583 0.7223448
vt 0.06044879 0.6230446
vt 0.6113815 0.6283475
vt 0.5666841 0.7227226
vt 0.6113815 0.7227226
vt 0.5666841 0.6283475
vt 0.04175828 0.05109322
vt 0.08109883 0.08663696
vt 0.006209412 0.121744
vt 0.5409577 0.08663684
vt 0.5766856 0.04722863
vt 0.615847 0.1217439
vt 0.5409577 0.520713
vt 0.5802981 0.5622069
vt 0.517866 0.5931352
vt 0.03017144 0.5587819
vt 0.0810989 0.520713
vt 0.1041904 0.5931354
vt 0.52189 0.9741602
vt 0.6050202 0.7784423
vt 0.6050202 0.9741602
vt 0.52189 0.7784423

g Circle002.obj
usemtl Circle002
usemap Circle002
f 1/1/1 3/3/3 2/2/2
f 2/2/2 4/4/4 1/1/1
f 3/3/3 1/1/1 5/5/5
f 5/5/5 6/6/6 3/3/3
f 6/6/6 5/5/5 7/7/7
f 7/7/7 8/8/8 6/6/6
f 9/9/9 11/11/11 10/10/10
f 10/10/10 12/12/12 9/9/9
f 11/11/11 9/9/9 13/13/13
f 13/13/13 14/14/14 11/11/11
f 15/15/15 17/17/17 16/16/16
f 16/16/16 18/18/18 15/15/15
f 17/17/17 15/15/15 19/19/19
f 19/19/19 20/20/20 17/17/17
f 20/20/20 19/19/19 21/21/21
f 21/21/21 22/22/22 20/20/20
f 22/22/22 21/21/21 23/23/23
f 23/23/23 24/24/24 22/22/22
f 25/25/25 27/27/27 26/26/26
f 26/26/26 28/28/28 25/25/25
f 27/27/27 25/25/25 29/29/29
f 29/29/29 30/30/30 27/27/27
f 30/30/30 29/29/29 31/31/31
f 31/31/31 32/32/32 30/30/30
f 32/32/32 31/31/31 33/33/33
f 33/33/33 34/34/34 32/32/32
f 35/35/35 37/37/37 36/36/36
f 36/36/36 38/38/38 35/35/35
f 37/37/37 35/35/35 39/39/39
f 39/39/39 40/40/40 37/37/37
f 41/41/41 43/43/43 42/42/42
f 42/42/42 44/44/44 41/41/41
f 43/43/43 41/41/41 45/45/45
f 45/45/45 46/46/46 43/43/43
f 46/46/46 45/45/45 47/47/47
f 47/47/47 48/48/48 46/46/46
f 49/49/49 51/51/51 50/50/50
f 50/50/50 52/52/52 49/49/49
f 50/50/50 51/51/51 53/53/53
f 53/53/53 54/54/54 50/50/50
f 55/55/55 57/57/57 56/56/56
f 56/56/56 58/58/58 55/55/55
f 59/59/59 55/55/55 58/58/58
f 58/58/58 60/60/60 59/59/59
f 61/61/61 59/59/59 60/60/60
f 60/60/60 62/62/62 61/61/61
f 63/63/63 65/65/65 64/64/64
f 64/64/64 66/66/66 63/63/63
f 67/67/67 63/63/63 66/66/66
f 66/66/66 68/68/68 67/67/67
f 69/69/69 71/71/71 70/70/70
f 70/70/70 72/72/72 69/69/69
f 73/73/73 69/69/69 72/72/72
f 72/72/72 74/74/74 73/73/73
f 75/75/75 73/73/73 74/74/74
f 74/74/74 76/76/76 75/75/75
f 77/77/77 75/75/75 76/76/76
f 76/76/76 78/78/78 77/77/77
f 79/79/79 81/81/81 80/80/80
f 80/80/80 82/82/82 79/79/79
f 83/83/83 79/79/79 82/82/82
f 82/82/82 84/84/84 83/83/83
f 85/85/85 83/83/83 84/84/84
f 84/84/84 86/86/86 85/85/85
f 87/87/87 85/85/85 86/86/86
f 86/86/86 88/88/88 87/87/87
f 89/89/89 91/91/91 90/90/90
f 90/90/90 92/92/92 89/89/89
f 93/93/93 89/89/89 92/92/92
f 92/92/92 94/94/94 93/93/93
f 95/95/95 97/97/97 96/96/96
f 96/96/96 98/98/98 95/95/95
f 99/99/99 95/95/95 98/98/98
f 98/98/98 100/100/100 99/99/99
f 101/101/101 99/99/99 100/100/100
f 100/100/100 102/102/102 101/101/101
f 103/103/103 105/105/105 104/104/104
f 104/104/104 106/106/106 103/103/103
f 104/104/104 105/105/105 107/107/107
f 107/107/107 108/108/108 104/104/104
f 109/109/109 111/111/111 110/110/110
f 110/110/110 112/112/112 109/109/109
f 113/113/113 115/115/115 114/114/114
f 113/113/113 114/114/114 116/116/116
f 114/114/114 117/117/117 116/116/116
f 114/114/114 118/118/118 117/117/117
f 117/117/117 119/119/119 116/116/116
f 117/117/117 120/120/120 119/119/119
f 121/121/121 113/113/113 116/116/116
f 117/117/117 118/118/118 122/122/122
f 122/122/122 123/123/123 117/117/117
f 124/124/124 126/126/126 125/125/125
f 127/127/127 129/129/129 128/128/128
f 128/128/128 130/130/130 127/127/127
f 131/131/131 133/133/133 132/132/132
f 132/132/132 134/134/134 131/131/131
f 135/135/135 137/137/137 136/136/136
f 136/136/136 138/138/138 135/135/135
f 139/139/139 141/141/141 140/140/140
f 140/140/140 142/142/142 139/139/139
f 143/143/143 145/145/145 144/144/144
f 144/144/144 146/146/146 143/143/143
f 147/147/147 149/149/149 148/148/148
f 148/148/148 150/150/150 147/147/147
f 151/151/151 153/153/153 152/152/152
f 152/152/152 154/154/154 151/151/151
f 155/155/155 157/157/157 156/156/156
f 156/156/156 158/158/158 155/155/155
f 159/159/159 161/161/161 160/160/160
f 162/162/162 164/164/164 163/163/163
f 165/165/165 167/167/167 166/166/166
f 168/168/168 170/170/170 169/169/169
f 171/171/171 173/173/173 172/172/172
f 172/172/172 174/174/174 171/171/171
f 175/175/175 177/177/177 176/176/176
f 176/176/176 178/178/178 175/175/175
f 179/179/179 181/181/181 180/180/180
f 180/180/180 182/182/182 179/179/179
f 183/183/183 185/185/185 184/184/184
f 184/184/184 186/186/186 183/183/183
f 187/187/187 189/189/189 188/188/188
f 188/188/188 190/190/190 187/187/187
f 191/191/191 193/193/193 192/192/192
f 192/192/192 194/194/194 191/191/191
f 195/195/195 197/197/197 196/196/196
f 196/196/196 198/198/198 195/195/195
f 199/199/199 201/201/201 200/200/200
f 200/200/200 202/202/202 199/199/199
f 203/203/203 205/205/205 204/204/204
f 206/206/206 208/208/208 207/207/207
f 209/209/209 211/211/211 210/210/210
f 212/212/212 214/214/214 213/213/213
f 215/215/215 217/217/217 216/216/216
f 216/216/216 218/218/218 215/215/215
