#Cylinder02.obj

v -0.1246233 0.09769096 -6.075142E-05
v -0.02820116 0.160993 -1.374857E-05
v -0.02822944 0.160993 0.05800818
v -0.1246516 0.09769096 0.05796118
v -0.1480428 -0.01525108 -7.216692E-05
v -0.1480711 -0.01525108 0.05794976
v -0.08476914 -0.1116732 0.05798062
v -0.08474085 -0.1116732 -4.130801E-05
v 0.02817289 -0.1350928 0.05803568
v 0.02820117 -0.1350928 1.374857E-05
v 0.124595 -0.07179075 0.05808268
v 0.1246233 -0.07179075 6.075143E-05
v 0.1480145 0.04115126 0.0580941
v 0.1480428 0.04115126 7.216692E-05
v 0.08474088 0.1375734 4.130802E-05
v 0.08471259 0.1375734 0.05806324
v 0.08471259 0.1375734 0.05806324
v 0.08474088 0.1375734 4.130802E-05
v 0.009356221 0.210114 -0.1627044
v -0.1236727 0.210114 -0.107678
v -0.1236727 0.1458661 -0.107678
v 0.00935622 0.1458661 -0.1627044
v -0.1788288 0.210114 0.02529719
v -0.1788288 0.1458661 0.0252972
v -0.1194114 0.2395042 0.02532616
v -0.08167873 0.2395042 -0.06564307
v 0.009356221 0.210114 -0.1627044
v 0.009327246 0.2395042 -0.103287
v -0.08176746 0.2395042 0.1163321
v -0.1238024 0.210114 0.1583261
v -0.1788288 0.1458661 0.0252972
v -0.1238024 0.1458661 0.1583261
v 0.00917282 0.210114 0.2134822
v 0.00917282 0.210114 0.2134822
v 0.009201784 0.2395042 0.1540648
v 0.1422017 0.210114 0.1584558
v 0.1002078 0.2395042 0.1164208
v 0.1973578 0.210114 0.0254806
v 0.1422017 0.1458661 0.1584558
v 0.00917282 0.210114 0.2134822
v 0.009172822 0.1458661 0.2134822
v 0.1973578 0.1458661 0.0254806
v 0.1379404 0.2395042 0.02545163
v 0.1002965 0.2395042 -0.06555431
v 0.1423314 0.210114 -0.1075483
v 0.1973578 0.1458661 0.0254806
v 0.1423314 0.1458661 -0.1075483
v 0.009356221 0.210114 -0.1627044
v 0.00935622 0.1458661 -0.1627044
v 0.009578149 0.266581 0.02570284
v 0.00917282 0.210114 0.2134822
v 0.009172822 0.1458661 0.2134822
v -0.1234293 0.09687897 0.0002178242
v -0.02795907 0.1595744 0.05773032
v -0.02793106 0.1595744 0.0002643733
v -0.1234573 0.09687895 0.05768377
v -0.1234573 0.09687895 0.05768377
v -0.1466244 -0.01498085 0.0002065181
v -0.1466524 -0.01498085 0.05767245
v -0.1234293 0.09687897 0.0002178242
v -0.1466524 -0.01498085 0.05767245
v -0.1466244 -0.01498085 0.0002065181
v -0.08395699 -0.1104791 0.05770301
v -0.08392897 -0.1104791 0.000237078
v 0.02790279 -0.1336742 0.05775755
v -0.08392897 -0.1104791 0.000237078
v 0.0279308 -0.1336742 0.0002916117
v -0.08395699 -0.1104791 0.05770301
v 0.123401 -0.07097874 0.0578041
v 0.0279308 -0.1336742 0.0002916117
v 0.123429 -0.07097872 0.0003381606
v 0.02790279 -0.1336742 0.05775755
v 0.1465961 0.04088103 0.0578154
v 0.123429 -0.07097872 0.0003381606
v 0.1466241 0.04088103 0.0003494668
v 0.123401 -0.07097874 0.0578041
v 0.08392872 0.1363792 0.0003189069
v 0.1465961 0.04088103 0.0578154
v 0.1466241 0.04088103 0.0003494668
v 0.0839007 0.1363792 0.05778485
v -0.02793106 0.1595744 0.0002643733
v 0.0839007 0.1363792 0.05778485
v 0.08392872 0.1363792 0.0003189069
v -0.02795907 0.1595744 0.05773032

vn -0.8269356 0.5622965 -0.0004031157
vn -0.1871282 0.9823355 -9.120919E-05
vn -0.1871282 0.9823355 -9.120919E-05
vn -0.8269356 0.5622964 -0.0004031157
vn -0.9823354 -0.1871283 -0.0004788943
vn -0.9823354 -0.1871283 -0.0004788943
vn -0.5622963 -0.8269357 -0.0002741267
vn -0.5622963 -0.8269358 -0.0002741267
vn 0.1871283 -0.9823355 9.121698E-05
vn 0.1871283 -0.9823355 9.121696E-05
vn 0.8269357 -0.5622963 0.0004031273
vn 0.8269357 -0.5622963 0.0004031273
vn 0.9823354 0.1871283 0.0004788904
vn 0.9823354 0.1871283 0.0004788904
vn 0.5622964 0.8269356 0.000274119
vn 0.5622964 0.8269357 0.000274119
vn 0.5622964 0.8269357 0.000274119
vn 0.5622964 0.8269356 0.000274119
vn 0.0004285907 0.4768758 -0.8789706
vn -0.621223 0.4768758 -0.6218291
vn -0.7067618 -1.227652E-07 -0.7074516
vn 0.0004876234 -1.339256E-07 -0.9999999
vn -0.8789705 0.4768759 -0.0004285379
vn -0.9999999 0 -0.0004875208
vn -0.3544376 0.9350796 -0.0002071117
vn -0.2504522 0.9351069 -0.2506966
vn 0.0004285907 0.4768758 -0.8789706
vn 0.0001384534 0.9350796 -0.3544378
vn -0.2509055 0.9350134 0.250592
vn -0.621829 0.4768759 0.621223
vn -0.9999999 0 -0.0004875208
vn -0.7074514 0 0.7067619
vn -0.000428462 0.4768759 0.8789705
vn -0.000428462 0.4768759 0.8789705
vn -0.000207643 0.9349469 0.3547878
vn 0.6212231 0.4768758 0.6218289
vn 0.2508022 0.9349192 0.2510467
vn 0.8789706 0.4768759 0.000428528
vn 0.7067619 0 0.7074514
vn -0.000428462 0.4768759 0.8789705
vn -0.0004874386 0 0.9999999
vn 0.9999999 0 0.0004875208
vn 0.3547878 0.9349468 0.0001383518
vn 0.2508366 0.9350134 -0.2506609
vn 0.6218292 0.4768758 -0.621223
vn 0.9999999 0 0.0004875208
vn 0.7074514 0 -0.7067619
vn 0.0004285907 0.4768758 -0.8789706
vn 0.0004876234 -1.339256E-07 -0.9999999
vn 0.0005440187 0.9999998 0.000544656
vn -0.000428462 0.4768759 0.8789705
vn -0.0004874386 0 0.9999999
vn 0.5488074 -0.8359488 0.000267351
vn 0.5488074 -0.8359488 0.000267351
vn 0.5488074 -0.8359488 0.000267351
vn 0.5488075 -0.8359487 0.0002672895
vn 0.9791704 -0.2030396 0.0004771899
vn 0.9791704 -0.2030396 0.0004771899
vn 0.9791704 -0.2030396 0.0004771899
vn 0.9791704 -0.2030396 0.0004771284
vn 0.8359487 0.5488076 0.0004073376
vn 0.8359487 0.5488076 0.0004073376
vn 0.8359486 0.5488075 0.0004073375
vn 0.8359485 0.5488077 0.0004077055
vn 0.2030396 0.9791706 9.914381E-05
vn 0.2030396 0.9791706 9.914381E-05
vn 0.2030396 0.9791706 9.914382E-05
vn 0.2030395 0.9791706 9.931094E-05
vn -0.5488076 0.8359487 -0.0002672934
vn -0.5488076 0.8359487 -0.0002672934
vn -0.5488076 0.8359487 -0.0002672934
vn -0.5488076 0.8359487 -0.0002673871
vn -0.9791704 0.2030396 -0.0004774965
vn -0.9791704 0.2030396 -0.0004774965
vn -0.9791704 0.2030396 -0.0004774965
vn -0.9791704 0.2030394 -0.0004771188
vn -0.8359487 -0.5488074 -0.0004076441
vn -0.8359487 -0.5488074 -0.0004076441
vn -0.8359487 -0.5488074 -0.0004076441
vn -0.8359487 -0.5488075 -0.0004077671
vn -0.2030397 -0.9791706 -9.917683E-05
vn -0.2030397 -0.9791706 -9.917683E-05
vn -0.2030397 -0.9791706 -9.917682E-05
vn -0.2030397 -0.9791706 -9.914609E-05

vt 0.569207 0.9494392
vt 0.6519884 0.9482993
vt 0.6519884 0.8879861
vt 0.569207 0.8891259
vt 0.4864255 0.950294
vt 0.4864255 0.8899807
vt 0.4036441 0.8902656
vt 0.4036441 0.9505789
vt 0.3208626 0.8894108
vt 0.3208626 0.9497241
vt 0.2380812 0.888556
vt 0.2380812 0.9488692
vt 0.1552997 0.8865613
vt 0.1552997 0.9468746
vt 0.07251825 0.9434553
vt 0.07251825 0.883142
vt 0.7347699 0.8848517
vt 0.7347699 0.945165
vt 0.4017891 0.07211906
vt 0.1682607 0.1861684
vt 0.1333855 0.1506349
vt 0.3712606 0.01665127
vt 0.08138495 0.4066337
vt 0.01173396 0.3887835
vt 0.1677323 0.4103236
vt 0.2488883 0.2581645
vt 0.4017891 0.07211906
vt 0.3981614 0.1718151
vt 0.2476929 0.5677847
vt 0.1876889 0.6378947
vt 0.01256671 0.4371591
vt 0.1447161 0.6731869
vt 0.411668 0.7253351
vt 0.411668 0.7253351
vt 0.4062324 0.6406432
vt 0.6287783 0.6253833
vt 0.5553936 0.5542869
vt 0.7251544 0.4029818
vt 0.6736826 0.6664371
vt 0.411668 0.7253351
vt 0.4330634 0.7958367
vt 0.7925861 0.4237089
vt 0.6365603 0.4022397
vt 0.5566741 0.2484206
vt 0.6309382 0.1769505
vt 0.7917527 0.3753375
vt 0.6632807 0.1365526
vt 0.4017891 0.07211906
vt 0.4196362 0.01581717
vt 0.4026202 0.4066887
vt 0.411668 0.7253351
vt 0.3846921 0.7966701
vt 0.569207 0.9494392
vt 0.6519884 0.8879861
vt 0.6519884 0.9482993
vt 0.569207 0.8891259
vt 0.569207 0.8891259
vt 0.4864255 0.950294
vt 0.4864255 0.8899807
vt 0.569207 0.9494392
vt 0.4864255 0.8899807
vt 0.4864255 0.950294
vt 0.4036441 0.8902656
vt 0.4036441 0.9505789
vt 0.3208626 0.8894108
vt 0.4036441 0.9505789
vt 0.3208626 0.9497241
vt 0.4036441 0.8902656
vt 0.2380812 0.888556
vt 0.3208626 0.9497241
vt 0.2380812 0.9488692
vt 0.3208626 0.8894108
vt 0.1552997 0.8865613
vt 0.2380812 0.9488692
vt 0.1552997 0.9468746
vt 0.2380812 0.888556
vt 0.07251825 0.9434553
vt 0.1552997 0.8865613
vt 0.1552997 0.9468746
vt 0.07251825 0.883142
vt 0.6519884 0.9482993
vt 0.7347699 0.8848517
vt 0.7347699 0.945165
vt 0.6519884 0.8879861

g Cylinder02.obj
usemtl Cylinder02
usemap Cylinder02
f 1/1/1 3/3/3 2/2/2
f 3/3/3 1/1/1 4/4/4
f 5/5/5 4/4/4 1/1/1
f 4/4/4 5/5/5 6/6/6
f 6/6/6 5/5/5 7/7/7
f 5/5/5 8/8/8 7/7/7
f 8/8/8 9/9/9 7/7/7
f 9/9/9 8/8/8 10/10/10
f 10/10/10 11/11/11 9/9/9
f 11/11/11 10/10/10 12/12/12
f 12/12/12 13/13/13 11/11/11
f 13/13/13 12/12/12 14/14/14
f 15/15/15 13/13/13 14/14/14
f 13/13/13 15/15/15 16/16/16
f 17/17/17 2/2/2 3/3/3
f 2/2/2 17/17/17 18/18/18
f 19/19/19 21/21/21 20/20/20
f 21/21/21 19/19/19 22/22/22
f 23/23/23 20/20/20 21/21/21
f 23/23/23 21/21/21 24/24/24
f 20/20/20 23/23/23 25/25/25
f 20/20/20 25/25/25 26/26/26
f 27/27/27 20/20/20 26/26/26
f 27/27/27 26/26/26 28/28/28
f 23/23/23 29/29/29 25/25/25
f 29/29/29 23/23/23 30/30/30
f 30/30/30 23/23/23 31/31/31
f 30/30/30 31/31/31 32/32/32
f 33/33/33 30/30/30 32/32/32
f 34/34/34 29/29/29 30/30/30
f 29/29/29 34/34/34 35/35/35
f 36/36/36 35/35/35 34/34/34
f 35/35/35 36/36/36 37/37/37
f 38/38/38 37/37/37 36/36/36
f 38/38/38 36/36/36 39/39/39
f 40/40/40 39/39/39 36/36/36
f 39/39/39 34/34/34 41/41/41
f 38/38/38 39/39/39 42/42/42
f 37/37/37 38/38/38 43/43/43
f 44/44/44 43/43/43 38/38/38
f 38/38/38 45/45/45 44/44/44
f 45/45/45 38/38/38 46/46/46
f 45/45/45 46/46/46 47/47/47
f 48/48/48 45/45/45 47/47/47
f 48/48/48 47/47/47 49/49/49
f 45/45/45 28/28/28 44/44/44
f 28/28/28 45/45/45 27/27/27
f 37/37/37 43/43/43 50/50/50
f 43/43/43 44/44/44 50/50/50
f 44/44/44 28/28/28 50/50/50
f 28/28/28 26/26/26 50/50/50
f 26/26/26 25/25/25 50/50/50
f 25/25/25 29/29/29 50/50/50
f 29/29/29 35/35/35 50/50/50
f 35/35/35 37/37/37 50/50/50
f 51/51/51 32/32/32 52/52/52
f 53/53/53 55/55/55 54/54/54
f 54/54/54 56/56/56 53/53/53
f 57/57/57 59/59/59 58/58/58
f 58/58/58 60/60/60 57/57/57
f 61/61/61 63/63/63 62/62/62
f 62/62/62 63/63/63 64/64/64
f 65/65/65 67/67/67 66/66/66
f 66/66/66 68/68/68 65/65/65
f 69/69/69 71/71/71 70/70/70
f 70/70/70 72/72/72 69/69/69
f 73/73/73 75/75/75 74/74/74
f 74/74/74 76/76/76 73/73/73
f 77/77/77 79/79/79 78/78/78
f 78/78/78 80/80/80 77/77/77
f 81/81/81 83/83/83 82/82/82
f 82/82/82 84/84/84 81/81/81
