#langhua2.obj

v -1.406914 -1.765725 -0.2863449
v 1.406914 -0.8828623 0.2838796
v 1.406914 -1.765725 -0.2863449
v -1.406914 -0.8828623 0.2838796
v 1.406914 0 0.5216785
v -1.406914 0 0.5216785
v 1.406914 0.8828624 0.427052
v -1.406914 0.8828624 0.427052
v 1.406914 1.765725 0
v -1.406914 1.765725 0

vn 0 -0.5425539 0.840021
vn 0 -0.4061986 0.9137849
vn 0 -0.542554 0.840021
vn 0 -0.4061987 0.9137849
vn 0 -0.07808641 0.9969466
vn 0 -0.07808646 0.9969466
vn 0 0.2750614 0.9614266
vn 0 0.2750615 0.9614266
vn 0 0.4354457 0.900215
vn 0 0.4354457 0.900215

vt 0 1
vt 1 0.75
vt 1 1
vt 0 0.75
vt 1 0.5
vt 0 0.5
vt 1 0.25
vt 0 0.25
vt 1 0
vt 0 0

g langhua2.obj
usemtl langhua2
usemap langhua2
f 1/1/1 3/3/3 2/2/2
f 2/2/2 4/4/4 1/1/1
f 4/4/4 2/2/2 5/5/5
f 5/5/5 6/6/6 4/4/4
f 6/6/6 5/5/5 7/7/7
f 7/7/7 8/8/8 6/6/6
f 8/8/8 7/7/7 9/9/9
f 9/9/9 10/10/10 8/8/8
