#Loft001.obj

v -0.9768531 1.285453 -1.2926E-08
v -0.86219 0.5372 2.45681E-08
v -0.683738 0.9786838 -5.9039E-09
v -1.22072 0.6821189 2.45681E-08
v -0.6220849 1.410372 -3.610221E-08
v -0.5613528 1.021774 -1.273886E-08
v -0.3121718 1.40154 -4.126255E-08
v -0.3925719 1.016963 -1.435914E-08
v 1.154896 0.8092732 -8.885156E-08
v 0.9586251 0.4714739 -5.901778E-08
v 1.348645 0.6560839 -8.841238E-08
v 1.032068 0.4134046 -5.897559E-08
v 1.473106 0.3667727 -7.167694E-08
v 1.051749 0.3676574 -5.670588E-08
v 0.6511682 -1.521971 3.298836E-08
v 0.3175701 -1.319426 3.647816E-08
v 0.5026826 -1.705271 5.683674E-08
v 0.3031705 -1.337202 3.973781E-08
v 0.223254 -1.734292 6.380135E-08
v 0.2803312 -1.339573 3.906009E-08
v -0.8637243 -1.286589 9.25241E-08
v -0.7164493 -0.9290201 6.621719E-08

vn 0 0 -1
vn 0 0 -1
vn 0 0 -1
vn 0 0 -1
vn 0 0 -1
vn 0 0 -1
vn 0 0 -1
vn 0 0 -1
vn 0 0 -1
vn 0 0 -1
vn 0 0 -1
vn 0 0 -1
vn 0 0 -1
vn 0 0 -1
vn 0 0 -1
vn 0 0 -1
vn 0 0 -1
vn 0 0 -1
vn 0 0 -1
vn 0 0 -1
vn 0 0 -1
vn 0 0 -1

vt 1 0.9103633
vt 0 1
vt 0 0.9103633
vt 1 1
vt 1 0.8701267
vt 0 0.8701267
vt 1 0.832036
vt 0 0.832036
vt 1 0.590294
vt 0 0.590294
vt 1 0.5632011
vt 0 0.5632011
vt 1 0.5341892
vt 0 0.5341892
vt 1 0.2240041
vt 0 0.2240041
vt 1 0.2034215
vt 0 0.2034215
vt 1 0.1792498
vt 0 0.1792498
vt 1 0
vt 0 0

g Loft001.obj
usemtl Loft001
usemap Loft001
f 1/1/1 3/3/3 2/2/2
f 2/2/2 4/4/4 1/1/1
f 3/3/3 1/1/1 5/5/5
f 5/5/5 6/6/6 3/3/3
f 6/6/6 5/5/5 7/7/7
f 7/7/7 8/8/8 6/6/6
f 8/8/8 7/7/7 9/9/9
f 9/9/9 10/10/10 8/8/8
f 10/10/10 9/9/9 11/11/11
f 11/11/11 12/12/12 10/10/10
f 12/12/12 11/11/11 13/13/13
f 13/13/13 14/14/14 12/12/12
f 14/14/14 13/13/13 15/15/15
f 15/15/15 16/16/16 14/14/14
f 16/16/16 15/15/15 17/17/17
f 17/17/17 18/18/18 16/16/16
f 18/18/18 17/17/17 19/19/19
f 19/19/19 20/20/20 18/18/18
f 20/20/20 19/19/19 21/21/21
f 21/21/21 22/22/22 20/20/20
