#mj.obj

v -0.007352617 0.0006300026 4.418939E-07
v 0.007352621 0.02214213 4.418939E-07
v -0.007352617 0.02214213 4.418939E-07
v 0.007352621 0.0006300026 4.418939E-07
v 0.007352621 0.02277213 0.0006304421
v 0.007982623 0.02214213 0.0006304421
v -0.007352617 0.02277213 0.000630442
v 0.007352621 0.02277213 0.002770349
v -0.007352617 0.02277213 0.00277035
v -0.007982618 0.02214213 0.000630442
v 0.007982623 0.0006300026 0.000630442
v 0.007982623 0.0006300026 0.00277035
v 0.007982623 0.02214213 0.00277035
v 0.007352621 2.145767E-09 0.000630442
v -0.007352617 2.145767E-09 0.000630442
v -0.007352617 2.145767E-09 0.00277035
v 0.007352621 2.145767E-09 0.00277035
v 0.007982618 0.02214213 0.00919007
v 0.007352617 0.02277213 0.00919007
v -0.007982618 0.0006300026 0.00277035
v -0.007982618 0.0006300026 0.0006304421
v -0.007982618 0.02214213 0.002770349
v -0.007352617 0.02277213 0.00919007
v -0.007982618 0.02214213 0.00919007
v 0.007352617 2.145767E-09 0.009190071
v -0.007352617 2.145767E-09 0.009190071
v 0.007982618 0.0006300026 0.009190071
v -0.007982618 0.0006300026 0.009190071
v -0.007352617 0.0006300026 0.01134566
v 0.007352621 0.02214213 0.01134566
v 0.007352621 0.0006300026 0.01134566
v -0.007352617 0.02214213 0.01134566
v 0.007352621 2.145767E-09 0.01071566
v 0.007982623 0.0006300026 0.01071566
v -0.007352617 2.145767E-09 0.01071566
v 0.007352617 2.145767E-09 0.009190071
v -0.007352617 2.145767E-09 0.009190071
v -0.007982618 0.0006300026 0.01071566
v 0.007982623 0.02214213 0.01071566
v 0.007982618 0.02214213 0.00919007
v 0.007982618 0.0006300026 0.009190071
v 0.007352621 0.02277213 0.01071566
v -0.007352617 0.02277213 0.01071566
v -0.007352617 0.02277213 0.00919007
v 0.007352617 0.02277213 0.00919007
v -0.007982618 0.02214213 0.01071566
v -0.007982618 0.0006300026 0.009190071
v -0.007982618 0.02214213 0.00919007

vn -0.3415856 -0.3415859 -0.8755788
vn 0.3415856 0.3415859 -0.8755788
vn -0.3415855 0.341586 -0.8755788
vn 0.3415855 -0.3415859 -0.8755789
vn 0.3415856 0.8755788 -0.3415862
vn 0.8755785 0.3415863 -0.3415864
vn -0.3415856 0.8755788 -0.3415862
vn 0.3826831 0.9238797 2.051111E-07
vn -0.3826831 0.9238797 7.720081E-08
vn -0.8755785 0.3415863 -0.3415864
vn 0.8755785 -0.3415863 -0.3415864
vn 0.9238794 -0.3826839 3.088031E-07
vn 0.9238794 0.3826838 3.407808E-07
vn 0.3415855 -0.8755788 -0.3415862
vn -0.3415856 -0.8755787 -0.3415862
vn -0.382683 -0.9238797 0
vn 0.3826831 -0.9238797 1.279104E-07
vn 0.9238793 0.3826839 -1.093232E-06
vn 0.3826827 0.9238798 -6.579997E-07
vn -0.9238793 -0.3826839 0
vn -0.8755785 -0.3415863 -0.3415864
vn -0.9238793 0.3826839 0
vn -0.3826831 0.9238797 -2.476615E-07
vn -0.9238794 0.3826837 -1.025848E-07
vn 0.3826827 -0.9238798 -4.103383E-07
vn -0.3826831 -0.9238797 0
vn 0.9238793 -0.382684 -9.906472E-07
vn -0.9238793 -0.3826839 0
vn -0.3415856 -0.3415861 0.8755788
vn 0.3415856 0.3415861 0.8755788
vn 0.3415857 -0.341586 0.8755788
vn -0.3415857 0.341586 0.8755788
vn 0.341586 -0.8755789 0.3415855
vn 0.8755789 -0.3415862 0.341585
vn -0.3415856 -0.8755788 0.3415861
vn 0.3826827 -0.9238798 -4.103383E-07
vn -0.3826831 -0.9238797 0
vn -0.8755785 -0.3415863 0.3415863
vn 0.875579 0.3415864 0.341585
vn 0.9238793 0.3826839 -1.093232E-06
vn 0.9238793 -0.382684 -9.906472E-07
vn 0.3415861 0.875579 0.3415852
vn -0.3415856 0.8755789 0.3415857
vn -0.3826831 0.9238797 -2.476615E-07
vn 0.3826827 0.9238798 -6.579997E-07
vn -0.8755785 0.3415864 0.3415861
vn -0.9238793 -0.3826839 0
vn -0.9238794 0.3826837 -1.025848E-07

vt 0.3064278 0.8760549
vt 0.4534921 0.7046357
vt 0.3064278 0.7046357
vt 0.4534921 0.8760549
vt 0.4534921 0.6996156
vt 0.4623348 0.7046357
vt 0.3064278 0.6996156
vt 0.4659925 0.6841916
vt 0.2939273 0.6841916
vt 0.2975851 0.7046357
vt 0.4623348 0.8760549
vt 0.4763385 0.8906255
vt 0.4763385 0.6900651
vt 0.4534921 0.881075
vt 0.3064278 0.881075
vt 0.2939273 0.8964991
vt 0.4659925 0.8964991
vt 0.5183495 0.6463533
vt 0.5034938 0.6379195
vt 0.2835813 0.8906255
vt 0.2975851 0.8760549
vt 0.2835813 0.6900651
vt 0.2564259 0.6379195
vt 0.2415702 0.6463533
vt 0.5034938 0.9427712
vt 0.2564259 0.9427712
vt 0.5183495 0.9343374
vt 0.2415702 0.9343374
vt 0.8270857 0.4889646
vt 0.928009 0.3403206
vt 0.928009 0.4889646
vt 0.8270857 0.3403206
vt 0.928009 0.4935006
vt 0.934479 0.4889646
vt 0.8270857 0.4935006
vt 0.928009 0.4935006
vt 0.8270857 0.4935006
vt 0.8206158 0.4889646
vt 0.934479 0.3403206
vt 0.9344789 0.3403206
vt 0.9344789 0.4889646
vt 0.928009 0.3357847
vt 0.8270857 0.3357847
vt 0.8270857 0.3357847
vt 0.928009 0.3357847
vt 0.8206158 0.3403206
vt 0.8206158 0.4889646
vt 0.8206158 0.3403206

g mj.obj
usemtl mj
usemap mj
f 1/1/1 3/3/3 2/2/2
f 2/2/2 4/4/4 1/1/1
f 5/5/5 2/2/2 3/3/3
f 2/2/2 5/5/5 6/6/6
f 3/3/3 7/7/7 5/5/5
f 8/8/8 5/5/5 7/7/7
f 6/6/6 5/5/5 8/8/8
f 7/7/7 9/9/9 8/8/8
f 3/3/3 10/10/10 7/7/7
f 10/10/10 3/3/3 1/1/1
f 2/2/2 6/6/6 11/11/11
f 11/11/11 4/4/4 2/2/2
f 12/12/12 11/11/11 6/6/6
f 6/6/6 13/13/13 12/12/12
f 8/8/8 13/13/13 6/6/6
f 11/11/11 14/14/14 4/4/4
f 15/15/15 1/1/1 4/4/4
f 4/4/4 14/14/14 15/15/15
f 16/16/16 15/15/15 14/14/14
f 14/14/14 17/17/17 16/16/16
f 11/11/11 12/12/12 17/17/17
f 17/17/17 14/14/14 11/11/11
f 18/18/18 13/13/13 8/8/8
f 12/12/12 13/13/13 18/18/18
f 8/8/8 19/19/19 18/18/18
f 15/15/15 16/16/16 20/20/20
f 20/20/20 21/21/21 15/15/15
f 21/21/21 20/20/20 22/22/22
f 22/22/22 10/10/10 21/21/21
f 7/7/7 10/10/10 22/22/22
f 22/22/22 9/9/9 7/7/7
f 15/15/15 21/21/21 1/1/1
f 1/1/1 21/21/21 10/10/10
f 23/23/23 9/9/9 22/22/22
f 22/22/22 24/24/24 23/23/23
f 16/16/16 17/17/17 25/25/25
f 25/25/25 26/26/26 16/16/16
f 20/20/20 16/16/16 26/26/26
f 18/18/18 27/27/27 12/12/12
f 27/27/27 25/25/25 17/17/17
f 23/23/23 19/19/19 8/8/8
f 8/8/8 9/9/9 23/23/23
f 28/28/28 24/24/24 22/22/22
f 22/22/22 20/20/20 28/28/28
f 26/26/26 28/28/28 20/20/20
f 17/17/17 12/12/12 27/27/27
f 29/29/29 31/31/31 30/30/30
f 30/30/30 32/32/32 29/29/29
f 33/33/33 31/31/31 29/29/29
f 31/31/31 33/33/33 34/34/34
f 29/29/29 35/35/35 33/33/33
f 36/36/36 33/33/33 35/35/35
f 34/34/34 33/33/33 36/36/36
f 35/35/35 37/37/37 36/36/36
f 29/29/29 38/38/38 35/35/35
f 38/38/38 29/29/29 32/32/32
f 31/31/31 34/34/34 39/39/39
f 39/39/39 30/30/30 31/31/31
f 40/40/40 39/39/39 34/34/34
f 34/34/34 41/41/41 40/40/40
f 36/36/36 41/41/41 34/34/34
f 39/39/39 42/42/42 30/30/30
f 42/42/42 39/39/39 40/40/40
f 30/30/30 42/42/42 43/43/43
f 43/43/43 32/32/32 30/30/30
f 44/44/44 43/43/43 42/42/42
f 42/42/42 45/45/45 44/44/44
f 40/40/40 45/45/45 42/42/42
f 43/43/43 46/46/46 32/32/32
f 32/32/32 46/46/46 38/38/38
f 46/46/46 43/43/43 44/44/44
f 47/47/47 38/38/38 46/46/46
f 47/47/47 37/37/37 35/35/35
f 35/35/35 38/38/38 47/47/47
f 46/46/46 48/48/48 47/47/47
f 44/44/44 48/48/48 46/46/46
