#Npc_DouQiHuaYiN_002_001.obj

v 0.5273939 -0.553876 0.2302567
v 0.294909 -0.367595 0.2290137
v 0.25005 -0.3994211 0.2383896
v 0.5744889 -0.480655 0.2299054
v 0.8529029 -0.6303421 0.2485903
v 0.805329 -0.6931871 0.2466124
v 0.3968679 -0.5588191 0.2546173
v 0.240314 -0.4204031 0.2546172
v 0.723357 -0.7374551 0.2546173
v 0.4605149 -0.601218 0.2546173
v 0.878136 -0.4905331 0.2411584
v 0.5810469 -0.3996881 0.229816
v 1.12924 -0.585444 0.2546173
v 1.14551 -0.8219571 0.2546173
v 0.5801699 -0.3233131 0.2297267
v 0.872708 -0.3064851 0.2437187
v 0.5543849 -0.2214561 0.2295167
v 0.810477 -0.1512101 0.2492914
v 1.07281 -0.1576301 0.2546172
v 1.19367 -0.3396971 0.2546172
v 0.7715319 -0.006881563 0.2546172
v 0.5154989 -0.1405161 0.2291843
v 1.02555 0.04294933 0.2546172
v 0.872708 -0.3064851 0.2655158
v 0.810477 -0.1512101 0.2599431
v 0.5543849 -0.2214561 0.2797178
v 0.5154989 -0.1405161 0.2800501
v 0.5801699 -0.3233131 0.2795077
v 0.8529029 -0.6303421 0.2606442
v 0.878136 -0.4905331 0.2680761
v 0.5744889 -0.480655 0.2793291
v 0.5273939 -0.553876 0.2789778
v 0.294909 -0.367595 0.2802208
v 0.25005 -0.3994211 0.2708449
v 0.805329 -0.6931871 0.2626221
v 0.5810469 -0.3996881 0.2794184
v 0.193024 -0.3438241 0.2546172
v 0.254684 -0.375324 0.2546172
v 0.23511 -0.3267711 0.2546172
v 0.163267 -0.224517 0.2316015
v 0.393889 -0.005878964 0.2297866
v 0.133941 -0.06501606 0.2341709
v 0.122997 -0.08496596 0.2546172
v 0.140673 -0.2228281 0.2546172
v 0.216113 0.06930763 0.240147
v 0.05772838 -0.01838446 0.2409109
v 0.02692357 -0.06153766 0.2546172
v 0.08318247 -0.08814006 0.2546172
v 0.08384398 0.09130023 0.2497724
v 0.25233 0.2568239 0.2546172
v 0.152347 0.2561119 0.2546172
v 0.496254 0.2147999 0.2546172
v 0.458605 -0.05809336 0.2295021
v 0.678617 0.2003689 0.2546172
v 0.840344 0.1857259 0.2546172
v 0.458605 -0.05809336 0.2797323
v 0.163267 -0.224517 0.2776329
v 0.133941 -0.06501606 0.2750635
v 0.393889 -0.005878964 0.2794478
v 0.216113 0.06930763 0.2690874
v 0.05772838 -0.01838446 0.2683235
v 0.08384398 0.09130023 0.2594619
v 0.154392 -0.2491051 0.2546172
v 0.03653828 0.1429599 0.2546172
v 0.01333397 -0.01665026 0.2546172
v -0.527395 -0.553875 0.2302567
v -0.29491 -0.367595 0.2290137
v -0.574489 -0.480655 0.2299054
v -0.25005 -0.3994211 0.2383896
v -0.852904 -0.6303411 0.2485903
v -0.805329 -0.693186 0.2466124
v -0.396868 -0.5588191 0.2546173
v -0.240314 -0.4204021 0.2546172
v -0.723357 -0.7374541 0.2546173
v -0.460516 -0.601218 0.2546173
v -0.878136 -0.4905321 0.2411584
v -0.581047 -0.3996871 0.229816
v -1.12924 -0.5854431 0.2546173
v -1.14551 -0.821956 0.2546173
v -0.58017 -0.3233121 0.2297267
v -0.872708 -0.3064841 0.2437187
v -0.554385 -0.2214551 0.2295167
v -0.810477 -0.1512101 0.2492914
v -1.07281 -0.1576291 0.2546172
v -1.19367 -0.339696 0.2546172
v -0.771531 -0.006880763 0.2546172
v -0.5154991 -0.1405151 0.2291843
v -1.02555 0.04295024 0.2546172
v -0.872708 -0.3064841 0.2655158
v -0.810477 -0.1512101 0.2599431
v -0.554385 -0.2214551 0.2797178
v -0.5154991 -0.1405151 0.2800501
v -0.58017 -0.3233121 0.2795077
v -0.852904 -0.6303411 0.2606442
v -0.878136 -0.4905321 0.2680761
v -0.574489 -0.480655 0.2793291
v -0.527395 -0.553875 0.2789778
v -0.29491 -0.367595 0.2802208
v -0.25005 -0.3994211 0.2708449
v -0.805329 -0.693186 0.2626221
v -0.581047 -0.3996871 0.2794184
v -0.193025 -0.3438241 0.2546172
v -0.254684 -0.375324 0.2546172
v -0.23511 -0.3267711 0.2546172
v -0.163268 -0.224517 0.2316015
v -0.393889 -0.005878764 0.2297866
v -0.133941 -0.06501596 0.2341709
v -0.122997 -0.08496587 0.2546172
v -0.140673 -0.2228281 0.2546172
v -0.216112 0.06930774 0.240147
v -0.05772842 -0.01838446 0.2409109
v -0.02692372 -0.06153766 0.2546172
v -0.08318243 -0.08814006 0.2546172
v -0.08384392 0.09130033 0.2497724
v -0.25233 0.2568239 0.2546172
v -0.152347 0.2561119 0.2546172
v -0.496254 0.2148009 0.2546172
v -0.458605 -0.05809306 0.2295021
v -0.678617 0.2003699 0.2546172
v -0.840344 0.1857269 0.2546172
v -0.458605 -0.05809306 0.2797323
v -0.163268 -0.224517 0.2776329
v -0.133941 -0.06501596 0.2750635
v -0.393889 -0.005878764 0.2794478
v -0.216112 0.06930774 0.2690874
v -0.05772842 -0.01838446 0.2683235
v -0.08384392 0.09130033 0.2594619
v -0.154392 -0.2491041 0.2546172
v -0.03653812 0.1429599 0.2546172
v -0.01333402 -0.01665026 0.2546172
v -0.1953389 -0.09689575 0.1929547
v 0.0006567797 -0.09689577 0.2424975
v -0.1729651 -0.09689575 0.1705809
v 0.0006567815 -0.09689577 0.2741388
v -0.1953389 0.04030126 0.1929547
v 0.0006567934 0.04030124 0.2741388
v -0.1729651 0.04030126 0.1705809
v 0.0006567916 0.04030124 0.2424975
v -0.276523 -0.09689576 -0.003041
v -0.2448817 -0.09689576 -0.003041
v -0.276523 0.04030126 -0.003041
v -0.2448817 0.04030124 -0.003041
v -0.1953389 -0.09689577 -0.1990367
v -0.1729651 -0.09689578 -0.1766629
v -0.1953389 0.04030123 -0.1990367
v -0.1729651 0.04030123 -0.1766629
v 0.0006567815 -0.09689579 -0.2802208
v 0.0006567797 -0.09689579 -0.2485795
v 0.0006567934 0.04030121 -0.2802208
v 0.0006567916 0.04030121 -0.2485795
v 0.1966525 -0.09689581 -0.1990367
v 0.1742787 -0.09689581 -0.1766629
v 0.1966525 0.04030119 -0.1990367
v 0.1742787 0.04030119 -0.1766629
v 0.2778365 -0.09689581 -0.003040981
v 0.2461952 -0.0968958 -0.003040981
v 0.2778366 0.0403012 -0.003040981
v 0.2461953 0.04030121 -0.003040981
v 0.1966524 -0.09689579 0.1929547
v 0.1742787 -0.09689579 0.1705809
v 0.1966524 0.04030122 0.1929547
v 0.1742787 0.04030122 0.1705809
v 0.0006567815 -0.09689577 0.2741388
v 0.0006567797 -0.09689577 0.2424975
v 0.0006567934 0.04030124 0.2741388
v 0.0006567916 0.04030124 0.2424975

vn -0.06376238 -0.1448711 -0.9873939
vn -0.1813009 -0.05254652 -0.9820228
vn -0.3398563 -0.05357162 -0.9389504
vn 0.02483583 -0.01614907 -0.9995611
vn 0.0347943 -0.02365492 -0.9991145
vn 0.008732459 -0.0709722 -0.9974401
vn -0.5639452 -0.8258122 1.253666E-07
vn -0.7453452 -0.6666787 -2.541966E-07
vn -0.1974501 -0.980313 -2.583687E-07
vn -0.5195566 -0.854436 1.273644E-07
vn 0.03819285 -0.02302324 -0.9990051
vn 0.0205959 -0.001700514 -0.9997864
vn 0.9301968 -0.367061 -4.63409E-07
vn 0.7676978 -0.6408121 2.653621E-07
vn 0.02505438 0.003451368 -0.9996802
vn 0.03975474 0.02869434 -0.9987974
vn 0.03554444 0.01700606 -0.9992234
vn 0.03706123 0.04448042 -0.9983225
vn 0.7988898 0.6014774 -4.944636E-07
vn 0.9812813 0.1925797 6.227113E-07
vn 0.9990687 0.04314962 -6.458078E-07
vn 0.03715837 0.01843977 -0.9991392
vn 0.6005274 0.7996041 0
vn 0.03975471 0.02869452 0.9987974
vn 0.03706131 0.04448082 0.9983225
vn 0.0355443 0.01700624 0.9992235
vn 0.03715824 0.01844031 0.9991392
vn 0.02505441 0.00345087 0.9996802
vn 0.03479431 -0.02365464 0.9991145
vn 0.03819282 -0.02302304 0.9990051
vn 0.02483591 -0.01614849 0.9995611
vn -0.0637624 -0.144871 0.987394
vn -0.181301 -0.0525463 0.9820228
vn -0.3398567 -0.0535716 0.9389502
vn 0.008732428 -0.070972 0.9974401
vn 0.02059601 -0.001699943 0.9997864
vn -0.7290157 0.6844969 -1.087598E-06
vn -0.6519271 0.7582816 -2.905453E-07
vn -0.7696872 -0.6384213 -1.13965E-07
vn -0.4119697 -0.1919341 -0.8907538
vn 0.003535481 0.05362045 -0.9985551
vn -0.1753804 -0.1173144 -0.9774861
vn -0.6876268 -0.7260643 0
vn -0.9616462 -0.2742927 4.229678E-07
vn -0.03962213 0.07869478 -0.9961111
vn -0.1785123 -0.02046995 -0.9837247
vn -0.788785 -0.6146692 0
vn -0.2977603 -0.9546407 0
vn -0.0333636 0.08327729 -0.9959677
vn -0.1533745 0.9881682 0
vn -0.007121163 0.9999747 0
vn 0.1151602 0.9933469 -1.725189E-07
vn 0.02780103 0.02966787 -0.9991731
vn 0.1824508 0.9832149 2.963078E-06
vn 0.8064551 0.5912953 0
vn 0.0278012 0.02966804 0.9991731
vn -0.4119694 -0.1919338 0.8907539
vn -0.1753804 -0.1173144 0.9774861
vn 0.003535523 0.05362065 0.9985551
vn -0.03962216 0.07869507 0.996111
vn -0.1785123 -0.02046982 0.9837247
vn -0.03336359 0.08327765 0.9959677
vn -0.7760273 -0.6306993 3.731521E-07
vn -0.8226938 0.5684848 -5.385974E-07
vn -0.9980676 -0.06213808 0
vn 0.06376109 -0.1448698 -0.9873942
vn 0.1812967 -0.05254592 -0.9820237
vn -0.02483585 -0.01614902 -0.9995611
vn 0.3398611 -0.05357493 -0.9389485
vn -0.03479425 -0.02365504 -0.9991145
vn -0.008732372 -0.07097258 -0.9974401
vn 0.5639423 -0.8258142 2.193943E-07
vn 0.7453485 -0.6666751 -2.54191E-07
vn 0.1974504 -0.9803129 0
vn 0.519552 -0.8544388 1.910478E-07
vn -0.03819292 -0.02302312 -0.9990051
vn -0.0205959 -0.001700499 -0.9997864
vn -0.9301972 -0.36706 -9.268172E-07
vn -0.7676979 -0.6408119 0
vn -0.02505439 0.003451368 -0.9996802
vn -0.03975471 0.02869444 -0.9987974
vn -0.03554453 0.01700614 -0.9992234
vn -0.03706124 0.04448058 -0.9983225
vn -0.7988894 0.601478 4.94464E-07
vn -0.9812813 0.1925799 3.113557E-07
vn -0.9990689 0.04314249 -3.22901E-07
vn -0.03715846 0.01843983 -0.9991392
vn -0.6005271 0.7996044 0
vn -0.03975468 0.02869462 0.9987974
vn -0.03706134 0.044481 0.9983225
vn -0.03554437 0.01700631 0.9992234
vn -0.03715833 0.01844037 0.9991392
vn -0.02505442 0.00345087 0.9996802
vn -0.03479426 -0.02365475 0.9991145
vn -0.03819289 -0.02302291 0.9990051
vn -0.02483592 -0.01614844 0.9995611
vn 0.06376108 -0.1448696 0.9873942
vn 0.1812968 -0.0525457 0.9820237
vn 0.3398614 -0.05357486 0.9389484
vn -0.00873234 -0.07097238 0.9974401
vn -0.02059602 -0.001699928 0.9997864
vn 0.729012 0.6845008 1.903289E-06
vn 0.6519144 0.7582925 -3.873964E-07
vn 0.7696878 -0.6384205 0
vn 0.4119612 -0.1919345 -0.8907576
vn -0.003535403 0.05362036 -0.9985551
vn 0.1753802 -0.1173152 -0.977486
vn 0.6876222 -0.7260687 0
vn 0.9616446 -0.2742984 4.652765E-07
vn 0.03962227 0.07869485 -0.996111
vn 0.1785125 -0.02047032 -0.9837247
vn 0.7887844 -0.6146699 0
vn 0.2977606 -0.9546406 0
vn 0.03336387 0.08327734 -0.9959677
vn 0.1533754 0.9881679 -9.136091E-07
vn 0.007121163 0.9999747 0
vn -0.1151587 0.9933472 0
vn -0.02780086 0.02966788 -0.9991731
vn -0.18245 0.9832152 2.443777E-06
vn -0.8064559 0.5912942 0
vn -0.02780103 0.02966804 0.9991731
vn 0.411961 -0.1919342 0.8907578
vn 0.1753802 -0.1173152 0.977486
vn -0.003535446 0.05362055 0.9985551
vn 0.0396223 0.07869513 0.996111
vn 0.1785125 -0.02047018 0.9837247
vn 0.03336384 0.08327768 0.9959677
vn 0.7760284 -0.6306979 3.587988E-07
vn 0.8226944 0.568484 -8.078958E-07
vn 0.9980674 -0.06213951 0
vn -0.5489852 -0.6302624 0.5489851
vn -1.028606E-07 -1 0
vn 0 -1 0
vn 0 -0.6302624 0.7763821
vn -0.548985 0.6302626 0.548985
vn 0 0.6302624 0.7763821
vn 0 1 0
vn 1.028606E-07 1 0
vn -0.7763823 -0.6302624 0
vn 0 -1 0
vn -0.7763821 0.6302626 0
vn 2.88829E-07 1 0
vn -0.5489852 -0.6302623 -0.5489851
vn -2.812431E-07 -1 -1.31282E-07
vn -0.548985 0.6302627 -0.5489851
vn 0 1 0
vn 0 -0.6302622 -0.7763823
vn 0 -1 0
vn 0 0.6302625 -0.7763821
vn 1.028606E-07 1 0
vn 0.548985 -0.6302625 -0.5489851
vn 0 -1 0
vn 0.5489852 0.6302624 -0.5489851
vn 0 1 0
vn 0.776382 -0.6302626 1.036344E-07
vn -2.916995E-07 -1 0
vn 0.7763823 0.6302623 0
vn 2.873938E-07 1 0
vn 0.5489849 -0.6302626 0.5489851
vn 0 -1 0
vn 0.5489851 0.6302624 0.5489852
vn 0 1 0
vn 0 -0.6302624 0.7763821
vn -1.028606E-07 -1 0
vn 0 0.6302624 0.7763821
vn 1.028606E-07 1 0

vt 0.2293601 0.6080804
vt 0.1042922 0.6755431
vt 0.08125532 0.6480607
vt 0.2490797 0.6458392
vt 0.3626563 0.5910876
vt 0.3457548 0.5592479
vt 0.1761285 0.5911928
vt 0.08209118 0.6349775
vt 0.3157184 0.5284435
vt 0.2016252 0.5780497
vt 0.3709371 0.6566803
vt 0.2486529 0.6852497
vt 0.4701079 0.6448488
vt 0.4914065 0.5172292
vt 0.2436448 0.7294239
vt 0.3666333 0.742609
vt 0.2279792 0.7748909
vt 0.3396137 0.8134669
vt 0.4485084 0.8181516
vt 0.4914065 0.7527258
vt 0.3231945 0.879819
vt 0.2158084 0.8081287
vt 0.4372046 0.9078544
vt 0.3666333 0.742609
vt 0.3396137 0.8134669
vt 0.2279792 0.7748909
vt 0.2158084 0.8081287
vt 0.2436448 0.7294239
vt 0.3626563 0.5910876
vt 0.3709371 0.6566803
vt 0.2490797 0.6458392
vt 0.2293601 0.6080804
vt 0.1042922 0.6755431
vt 0.08125532 0.6480607
vt 0.3457548 0.5592479
vt 0.2486529 0.6852497
vt 0.04284191 0.6480607
vt 0.07648402 0.6667507
vt 0.07648402 0.7003932
vt 0.0860931 0.7897764
vt 0.1637941 0.8715569
vt 0.06713906 0.8443076
vt 0.06153187 0.8330938
vt 0.07648402 0.7788918
vt 0.09420556 0.9047334
vt 0.04284191 0.8611287
vt 0.02415149 0.8293555
vt 0.04471081 0.8293555
vt 0.04284191 0.9115922
vt 0.1063883 0.9882219
vt 0.06527014 0.9882219
vt 0.2073156 0.9826152
vt 0.1918338 0.8472215
vt 0.2689931 0.9844841
vt 0.3231945 0.9844841
vt 0.1918338 0.8472215
vt 0.0860931 0.7897764
vt 0.06713906 0.8443076
vt 0.1637941 0.8715569
vt 0.09420556 0.9047334
vt 0.04284191 0.8611287
vt 0.04284191 0.9115922
vt 0.07648402 0.7714727
vt 0.0204137 0.9358894
vt 0.0204137 0.8611287
vt 0.2293601 0.6080804
vt 0.1042922 0.6755431
vt 0.2490797 0.6458392
vt 0.08125532 0.6480607
vt 0.3626563 0.5910876
vt 0.3457548 0.5592479
vt 0.1761285 0.5911928
vt 0.08209118 0.6349775
vt 0.3157184 0.5284435
vt 0.2016252 0.5780497
vt 0.3709371 0.6566803
vt 0.2486529 0.6852497
vt 0.4701079 0.6448488
vt 0.4914065 0.5172292
vt 0.2436448 0.7294239
vt 0.3666333 0.742609
vt 0.2279792 0.7748909
vt 0.3396137 0.8134669
vt 0.4485084 0.8181516
vt 0.4914065 0.7527258
vt 0.3231945 0.879819
vt 0.2158084 0.8081287
vt 0.4372046 0.9078544
vt 0.3666333 0.742609
vt 0.3396137 0.8134669
vt 0.2279792 0.7748909
vt 0.2158084 0.8081287
vt 0.2436448 0.7294239
vt 0.3626563 0.5910876
vt 0.3709371 0.6566803
vt 0.2490797 0.6458392
vt 0.2293601 0.6080804
vt 0.1042922 0.6755431
vt 0.08125532 0.6480607
vt 0.3457548 0.5592479
vt 0.2486529 0.6852497
vt 0.04284191 0.6480607
vt 0.07648402 0.6667507
vt 0.07648402 0.7003932
vt 0.0860931 0.7897764
vt 0.1637941 0.8715569
vt 0.06713906 0.8443076
vt 0.06153187 0.8330938
vt 0.07648402 0.7788918
vt 0.09420556 0.9047334
vt 0.04284191 0.8611287
vt 0.02415149 0.8293555
vt 0.04471081 0.8293555
vt 0.04284191 0.9115922
vt 0.1063883 0.9882219
vt 0.06527014 0.9882219
vt 0.2073156 0.9826152
vt 0.1918338 0.8472215
vt 0.2689931 0.9844841
vt 0.3231945 0.9844841
vt 0.1918338 0.8472215
vt 0.0860931 0.7897764
vt 0.06713906 0.8443076
vt 0.1637941 0.8715569
vt 0.09420556 0.9047334
vt 0.04284191 0.8611287
vt 0.04284191 0.9115922
vt 0.07648402 0.7714727
vt 0.0204137 0.9358894
vt 0.0204137 0.8611287
vt 0.8642392 0.2702448
vt 0.9855984 0.3229411
vt 0.8642392 0.3229411
vt 0.9855984 0.2702448
vt 0.8642392 0.05675912
vt 0.9855984 0.05675912
vt 0.8642392 0.02925903
vt 0.9855984 0.02925903
vt 0.74288 0.2702448
vt 0.74288 0.3229411
vt 0.74288 0.05675912
vt 0.74288 0.02925903
vt 0.6215208 0.2702448
vt 0.6215208 0.3229411
vt 0.6215208 0.05675912
vt 0.6215208 0.02925903
vt 0.5001615 0.2702448
vt 0.5001615 0.3229411
vt 0.5001615 0.05675912
vt 0.5001615 0.02925903
vt 0.3788023 0.2702448
vt 0.3788023 0.3229411
vt 0.3788022 0.05675912
vt 0.3788022 0.02925903
vt 0.2574431 0.2702448
vt 0.2574431 0.3229411
vt 0.257443 0.05675918
vt 0.257443 0.02925903
vt 0.1360838 0.2702448
vt 0.1360838 0.3229411
vt 0.1360838 0.05675918
vt 0.1360838 0.02925903
vt 0.01472461 0.2702448
vt 0.01472461 0.3229411
vt 0.01472461 0.05675918
vt 0.01472461 0.02925903

g Npc_DouQiHuaYiN_002_001.obj
usemtl Npc_DouQiHuaYiN_002_001
usemap Npc_DouQiHuaYiN_002_001
f 1/1/1 3/3/3 2/2/2
f 2/2/2 4/4/4 1/1/1
f 1/1/1 4/4/4 5/5/5
f 5/5/5 6/6/6 1/1/1
f 3/3/3 1/1/1 7/7/7
f 7/7/7 8/8/8 3/3/3
f 1/1/1 6/6/6 9/9/9
f 9/9/9 10/10/10 1/1/1
f 10/10/10 7/7/7 1/1/1
f 11/11/11 5/5/5 4/4/4
f 4/4/4 12/12/12 11/11/11
f 12/12/12 4/4/4 2/2/2
f 5/5/5 11/11/11 13/13/13
f 13/13/13 14/14/14 5/5/5
f 9/9/9 6/6/6 14/14/14
f 14/14/14 6/6/6 5/5/5
f 11/11/11 12/12/12 15/15/15
f 15/15/15 12/12/12 2/2/2
f 15/15/15 16/16/16 11/11/11
f 16/16/16 15/15/15 17/17/17
f 17/17/17 15/15/15 2/2/2
f 17/17/17 18/18/18 16/16/16
f 16/16/16 18/18/18 19/19/19
f 19/19/19 20/20/20 16/16/16
f 11/11/11 16/16/16 20/20/20
f 20/20/20 13/13/13 11/11/11
f 21/21/21 18/18/18 17/17/17
f 17/17/17 22/22/22 21/21/21
f 18/18/18 21/21/21 23/23/23
f 23/23/23 19/19/19 18/18/18
f 24/24/24 20/20/20 19/19/19
f 19/19/19 25/25/25 24/24/24
f 25/25/25 19/19/19 23/23/23
f 23/23/23 21/21/21 25/25/25
f 26/26/26 25/25/25 21/21/21
f 24/24/24 25/25/25 26/26/26
f 21/21/21 27/27/27 26/26/26
f 26/26/26 28/28/28 24/24/24
f 29/29/29 14/14/14 13/13/13
f 13/13/13 30/30/30 29/29/29
f 30/30/30 24/24/24 28/28/28
f 30/30/30 13/13/13 20/20/20
f 20/20/20 24/24/24 30/30/30
f 31/31/31 29/29/29 30/30/30
f 29/29/29 31/31/31 32/32/32
f 32/32/32 31/31/31 33/33/33
f 33/33/33 26/26/26 27/27/27
f 26/26/26 33/33/33 28/28/28
f 33/33/33 34/34/34 32/32/32
f 32/32/32 35/35/35 29/29/29
f 14/14/14 29/29/29 35/35/35
f 7/7/7 32/32/32 34/34/34
f 34/34/34 8/8/8 7/7/7
f 9/9/9 35/35/35 32/32/32
f 9/9/9 14/14/14 35/35/35
f 32/32/32 10/10/10 9/9/9
f 10/10/10 32/32/32 7/7/7
f 30/30/30 36/36/36 31/31/31
f 28/28/28 36/36/36 30/30/30
f 28/28/28 33/33/33 36/36/36
f 36/36/36 33/33/33 31/31/31
f 8/8/8 34/34/34 37/37/37
f 8/8/8 37/37/37 3/3/3
f 3/3/3 37/37/37 38/38/38
f 34/34/34 38/38/38 37/37/37
f 38/38/38 34/34/34 33/33/33
f 38/38/38 2/2/2 3/3/3
f 38/38/38 39/39/39 2/2/2
f 38/38/38 33/33/33 39/39/39
f 40/40/40 2/2/2 39/39/39
f 2/2/2 40/40/40 41/41/41
f 41/41/41 40/40/40 42/42/42
f 43/43/43 42/42/42 40/40/40
f 40/40/40 44/44/44 43/43/43
f 42/42/42 45/45/45 41/41/41
f 45/45/45 42/42/42 46/46/46
f 47/47/47 46/46/46 42/42/42
f 42/42/42 48/48/48 47/47/47
f 48/48/48 42/42/42 43/43/43
f 46/46/46 49/49/49 45/45/45
f 50/50/50 45/45/45 49/49/49
f 41/41/41 45/45/45 50/50/50
f 49/49/49 51/51/51 50/50/50
f 50/50/50 52/52/52 41/41/41
f 41/41/41 53/53/53 2/2/2
f 41/41/41 52/52/52 54/54/54
f 54/54/54 53/53/53 41/41/41
f 22/22/22 53/53/53 54/54/54
f 54/54/54 55/55/55 22/22/22
f 27/27/27 55/55/55 54/54/54
f 54/54/54 56/56/56 27/27/27
f 43/43/43 44/44/44 57/57/57
f 47/47/47 48/48/48 58/58/58
f 57/57/57 58/58/58 43/43/43
f 48/48/48 43/43/43 58/58/58
f 58/58/58 57/57/57 59/59/59
f 59/59/59 52/52/52 50/50/50
f 54/54/54 52/52/52 59/59/59
f 59/59/59 56/56/56 54/54/54
f 59/59/59 60/60/60 58/58/58
f 50/50/50 60/60/60 59/59/59
f 61/61/61 58/58/58 60/60/60
f 58/58/58 61/61/61 47/47/47
f 60/60/60 62/62/62 61/61/61
f 62/62/62 60/60/60 50/50/50
f 50/50/50 51/51/51 62/62/62
f 33/33/33 56/56/56 59/59/59
f 59/59/59 57/57/57 33/33/33
f 33/33/33 27/27/27 56/56/56
f 39/39/39 33/33/33 57/57/57
f 57/57/57 63/63/63 39/39/39
f 39/39/39 63/63/63 40/40/40
f 44/44/44 40/40/40 63/63/63
f 44/44/44 63/63/63 57/57/57
f 61/61/61 62/62/62 64/64/64
f 65/65/65 61/61/61 64/64/64
f 65/65/65 47/47/47 61/61/61
f 65/65/65 64/64/64 46/46/46
f 65/65/65 46/46/46 47/47/47
f 46/46/46 64/64/64 49/49/49
f 66/66/66 68/68/68 67/67/67
f 67/67/67 69/69/69 66/66/66
f 70/70/70 68/68/68 66/66/66
f 66/66/66 71/71/71 70/70/70
f 72/72/72 66/66/66 69/69/69
f 69/69/69 73/73/73 72/72/72
f 74/74/74 71/71/71 66/66/66
f 66/66/66 75/75/75 74/74/74
f 75/75/75 66/66/66 72/72/72
f 68/68/68 70/70/70 76/76/76
f 76/76/76 77/77/77 68/68/68
f 77/77/77 67/67/67 68/68/68
f 78/78/78 76/76/76 70/70/70
f 70/70/70 79/79/79 78/78/78
f 74/74/74 79/79/79 71/71/71
f 79/79/79 70/70/70 71/71/71
f 80/80/80 77/77/77 76/76/76
f 80/80/80 67/67/67 77/77/77
f 76/76/76 81/81/81 80/80/80
f 82/82/82 80/80/80 81/81/81
f 82/82/82 67/67/67 80/80/80
f 81/81/81 83/83/83 82/82/82
f 84/84/84 83/83/83 81/81/81
f 81/81/81 85/85/85 84/84/84
f 76/76/76 78/78/78 85/85/85
f 85/85/85 81/81/81 76/76/76
f 82/82/82 83/83/83 86/86/86
f 86/86/86 87/87/87 82/82/82
f 83/83/83 84/84/84 88/88/88
f 88/88/88 86/86/86 83/83/83
f 84/84/84 85/85/85 89/89/89
f 89/89/89 90/90/90 84/84/84
f 90/90/90 86/86/86 88/88/88
f 88/88/88 84/84/84 90/90/90
f 86/86/86 90/90/90 91/91/91
f 91/91/91 90/90/90 89/89/89
f 91/91/91 92/92/92 86/86/86
f 89/89/89 93/93/93 91/91/91
f 78/78/78 79/79/79 94/94/94
f 93/93/93 89/89/89 95/95/95
f 95/95/95 89/89/89 85/85/85
f 95/95/95 94/94/94 96/96/96
f 97/97/97 96/96/96 94/94/94
f 98/98/98 96/96/96 97/97/97
f 98/98/98 92/92/92 91/91/91
f 91/91/91 93/93/93 98/98/98
f 97/97/97 99/99/99 98/98/98
f 94/94/94 100/100/100 97/97/97
f 99/99/99 97/97/97 72/72/72
f 72/72/72 73/73/73 99/99/99
f 97/97/97 100/100/100 74/74/74
f 74/74/74 75/75/75 97/97/97
f 75/75/75 72/72/72 97/97/97
f 96/96/96 101/101/101 95/95/95
f 95/95/95 101/101/101 93/93/93
f 93/93/93 101/101/101 98/98/98
f 101/101/101 96/96/96 98/98/98
f 94/94/94 95/95/95 78/78/78
f 85/85/85 78/78/78 95/95/95
f 73/73/73 102/102/102 99/99/99
f 73/73/73 69/69/69 102/102/102
f 69/69/69 103/103/103 102/102/102
f 99/99/99 102/102/102 103/103/103
f 103/103/103 98/98/98 99/99/99
f 103/103/103 69/69/69 67/67/67
f 103/103/103 67/67/67 104/104/104
f 103/103/103 104/104/104 98/98/98
f 104/104/104 67/67/67 105/105/105
f 106/106/106 105/105/105 67/67/67
f 107/107/107 105/105/105 106/106/106
f 105/105/105 107/107/107 108/108/108
f 108/108/108 109/109/109 105/105/105
f 106/106/106 110/110/110 107/107/107
f 111/111/111 107/107/107 110/110/110
f 107/107/107 111/111/111 112/112/112
f 112/112/112 113/113/113 107/107/107
f 113/113/113 108/108/108 107/107/107
f 110/110/110 114/114/114 111/111/111
f 114/114/114 110/110/110 115/115/115
f 115/115/115 110/110/110 106/106/106
f 115/115/115 116/116/116 114/114/114
f 106/106/106 117/117/117 115/115/115
f 67/67/67 118/118/118 106/106/106
f 106/106/106 118/118/118 119/119/119
f 119/119/119 117/117/117 106/106/106
f 119/119/119 118/118/118 87/87/87
f 87/87/87 120/120/120 119/119/119
f 119/119/119 120/120/120 92/92/92
f 92/92/92 121/121/121 119/119/119
f 122/122/122 109/109/109 108/108/108
f 108/108/108 123/123/123 122/122/122
f 123/123/123 113/113/113 112/112/112
f 113/113/113 123/123/123 108/108/108
f 124/124/124 122/122/122 123/123/123
f 115/115/115 117/117/117 124/124/124
f 119/119/119 121/121/121 124/124/124
f 124/124/124 117/117/117 119/119/119
f 123/123/123 125/125/125 124/124/124
f 124/124/124 125/125/125 115/115/115
f 125/125/125 123/123/123 126/126/126
f 112/112/112 126/126/126 123/123/123
f 126/126/126 127/127/127 125/125/125
f 115/115/115 125/125/125 127/127/127
f 127/127/127 116/116/116 115/115/115
f 98/98/98 122/122/122 124/124/124
f 124/124/124 121/121/121 98/98/98
f 98/98/98 121/121/121 92/92/92
f 122/122/122 98/98/98 104/104/104
f 104/104/104 128/128/128 122/122/122
f 109/109/109 122/122/122 128/128/128
f 105/105/105 128/128/128 104/104/104
f 109/109/109 128/128/128 105/105/105
f 126/126/126 129/129/129 127/127/127
f 130/130/130 129/129/129 126/126/126
f 130/130/130 126/126/126 112/112/112
f 130/130/130 111/111/111 129/129/129
f 130/130/130 112/112/112 111/111/111
f 111/111/111 114/114/114 129/129/129
f 2/2/2 22/22/22 17/17/17
f 2/2/2 53/53/53 22/22/22
f 22/22/22 55/55/55 21/21/21
f 27/27/27 21/21/21 55/55/55
f 67/67/67 82/82/82 87/87/87
f 67/67/67 87/87/87 118/118/118
f 87/87/87 86/86/86 120/120/120
f 92/92/92 120/120/120 86/86/86
f 74/74/74 100/100/100 79/79/79
f 79/79/79 100/100/100 94/94/94
f 131/131/131 133/133/133 132/132/132
f 132/132/132 134/134/134 131/131/131
f 135/135/135 131/131/131 134/134/134
f 134/134/134 136/136/136 135/135/135
f 137/137/137 135/135/135 136/136/136
f 136/136/136 138/138/138 137/137/137
f 133/133/133 131/131/131 139/139/139
f 139/139/139 140/140/140 133/133/133
f 141/141/141 139/139/139 131/131/131
f 131/131/131 135/135/135 141/141/141
f 142/142/142 141/141/141 135/135/135
f 135/135/135 137/137/137 142/142/142
f 140/140/140 139/139/139 143/143/143
f 143/143/143 144/144/144 140/140/140
f 145/145/145 143/143/143 139/139/139
f 139/139/139 141/141/141 145/145/145
f 146/146/146 145/145/145 141/141/141
f 141/141/141 142/142/142 146/146/146
f 144/144/144 143/143/143 147/147/147
f 147/147/147 148/148/148 144/144/144
f 149/149/149 147/147/147 143/143/143
f 143/143/143 145/145/145 149/149/149
f 150/150/150 149/149/149 145/145/145
f 145/145/145 146/146/146 150/150/150
f 148/148/148 147/147/147 151/151/151
f 151/151/151 152/152/152 148/148/148
f 153/153/153 151/151/151 147/147/147
f 147/147/147 149/149/149 153/153/153
f 154/154/154 153/153/153 149/149/149
f 149/149/149 150/150/150 154/154/154
f 152/152/152 151/151/151 155/155/155
f 155/155/155 156/156/156 152/152/152
f 157/157/157 155/155/155 151/151/151
f 151/151/151 153/153/153 157/157/157
f 158/158/158 157/157/157 153/153/153
f 153/153/153 154/154/154 158/158/158
f 156/156/156 155/155/155 159/159/159
f 159/159/159 160/160/160 156/156/156
f 161/161/161 159/159/159 155/155/155
f 155/155/155 157/157/157 161/161/161
f 162/162/162 161/161/161 157/157/157
f 157/157/157 158/158/158 162/162/162
f 160/160/160 159/159/159 163/163/163
f 163/163/163 164/164/164 160/160/160
f 165/165/165 163/163/163 159/159/159
f 159/159/159 161/161/161 165/165/165
f 166/166/166 165/165/165 161/161/161
f 161/161/161 162/162/162 166/166/166
