#Object02.obj

v 0.08682974 0.180618 0.0560932
v 1.597884E-09 0.2373521 -0.00980774
v 0.1173721 0.1869677 -0.04419027
v -2.135346E-08 0.1682256 0.1310666
v 0.08103225 0.1821284 -0.1008463
v 2.338162E-08 0.1682255 -0.1435153
v 0.08682974 0.180618 0.0560932
v 0.1173721 0.1869677 -0.04419027
v 0.1173721 0.1595407 -0.04419026
v 0.0868297 0.153191 0.0560932
v -2.135346E-08 0.1682256 0.1310666
v -2.135346E-08 0.1407986 0.1310666
v 0.08103225 0.1821284 -0.1008463
v 0.08103224 0.1547015 -0.1008463
v 2.338162E-08 0.1682255 -0.1435153
v 2.338162E-08 0.1407986 -0.1435154
v -2.135346E-08 0.1682256 0.1310666
v -0.08682971 0.153191 0.05609317
v -0.08682976 0.180618 0.05609317
v -0.1173721 0.1595407 -0.0441903
v -0.1173721 0.1869677 -0.04419031
v -0.08103222 0.1821284 -0.1008463
v -0.0810322 0.1547015 -0.1008463
v 2.338162E-08 0.1682255 -0.1435153
v 2.338162E-08 0.1407986 -0.1435154
v 0.1173721 0.1595407 -0.04419026
v 3.901208E-09 0.1747005 -0.02394544
v 0.0868297 0.153191 0.0560932
v -2.135346E-08 0.1407986 0.1310666
v 0.08103224 0.1547015 -0.1008463
v 2.338162E-08 0.1407986 -0.1435154
v 0.1343046 0.1444373 1.601036E-08
v 0.1343047 0.1444374 -0.03425656
v 0.1899354 0.01013269 -0.03425654
v 0.1899354 0.01013269 3.094441E-08
v 5.581106E-09 0.2000681 -0.03425658
v 1.352624E-15 0.2000681 -8.302343E-09
v 0.1343047 -0.1241719 2.775165E-08
v 0.1343047 -0.1241719 -0.03425654
v 5.581102E-09 -0.1798027 -0.03425656
v -1.352624E-15 -0.1798027 8.302343E-09
v 0.1899354 0.01013269 -0.03425654
v 0.1343047 0.1444374 -0.03425656
v 0.1127288 0.1228615 -0.03425656
v 0.1594227 0.01013269 -0.03425654
v 5.581106E-09 0.1695554 -0.03425658
v 5.581106E-09 0.2000681 -0.03425658
v 0.1127289 -0.1025961 -0.03425655
v 0.1343047 -0.1241719 -0.03425654
v 5.581102E-09 -0.1798027 -0.03425656
v 5.581102E-09 -0.1492899 -0.03425656
v 5.581102E-09 -0.1798027 -0.03425656
v 0.1127288 0.1228615 -0.03425656
v 0.1127288 0.1228615 1.369983E-08
v 0.1594227 0.01013269 -0.03425654
v 0.1594227 0.01013269 2.597325E-08
v 5.581106E-09 0.1695554 -0.03425658
v 1.075076E-15 0.1695554 -6.598768E-09
v 0.1127289 -0.1025961 2.30319E-08
v 0.1127289 -0.1025961 -0.03425655
v 5.581102E-09 -0.1492899 -0.03425656
v -1.075076E-15 -0.1492899 6.598768E-09
v 0.1899354 0.01013269 3.094441E-08
v 0.1594227 0.01013269 2.597325E-08
v 0.1343046 0.1444373 1.601036E-08
v 0.1127288 0.1228615 1.369983E-08
v 1.352624E-15 0.2000681 -8.302343E-09
v 0.1127289 -0.1025961 2.30319E-08
v 0.1343047 -0.1241719 2.775165E-08
v -1.352624E-15 -0.1798027 8.302343E-09
v 1.075076E-15 0.1695554 -6.598768E-09
v 1.352624E-15 0.2000681 -8.302343E-09
v -1.352624E-15 -0.1798027 8.302343E-09
v -1.075076E-15 -0.1492899 6.598768E-09
v -0.08682976 0.180618 0.05609317
v -0.1173721 0.1869677 -0.04419031
v 1.597884E-09 0.2373521 -0.00980774
v -2.135346E-08 0.1682256 0.1310666
v -0.08103222 0.1821284 -0.1008463
v 2.338162E-08 0.1682255 -0.1435153
v -0.1173721 0.1595407 -0.0441903
v -0.08682971 0.153191 0.05609317
v 3.901208E-09 0.1747005 -0.02394544
v -2.135346E-08 0.1407986 0.1310666
v -0.0810322 0.1547015 -0.1008463
v 2.338162E-08 0.1407986 -0.1435154
v -0.1343046 0.1444373 -2.775165E-08
v -0.1899354 0.01013269 -3.094441E-08
v -0.1899354 0.01013269 -0.0342566
v -0.1343046 0.1444374 -0.0342566
v 1.352624E-15 0.2000681 -8.302343E-09
v 5.581106E-09 0.2000681 -0.03425658
v -0.1343047 -0.1241719 -0.03425658
v -0.1343047 -0.1241719 -1.601037E-08
v -1.352624E-15 -0.1798027 8.302343E-09
v 5.581102E-09 -0.1798027 -0.03425656
v -0.1899354 0.01013269 -0.0342566
v -0.1127288 0.1228615 -0.0342566
v -0.1343046 0.1444374 -0.0342566
v -0.1594226 0.01013269 -0.03425659
v 5.581106E-09 0.1695554 -0.03425658
v 5.581106E-09 0.2000681 -0.03425658
v -0.1127288 -0.1025961 -0.03425658
v -0.1343047 -0.1241719 -0.03425658
v 5.581102E-09 -0.1798027 -0.03425656
v 5.581102E-09 -0.1798027 -0.03425656
v 5.581102E-09 -0.1492899 -0.03425656
v -0.1127288 0.1228615 -0.0342566
v -0.1594226 0.01013269 -0.03425659
v -0.1594227 0.01013269 -2.597325E-08
v -0.1127288 0.1228615 -2.303189E-08
v 1.075076E-15 0.1695554 -6.598768E-09
v 5.581106E-09 0.1695554 -0.03425658
v -0.1127288 -0.1025961 -0.03425658
v -0.1127289 -0.1025961 -1.369983E-08
v -1.075076E-15 -0.1492899 6.598768E-09
v 5.581102E-09 -0.1492899 -0.03425656
v -0.1343046 0.1444373 -2.775165E-08
v -0.1127288 0.1228615 -2.303189E-08
v -0.1594227 0.01013269 -2.597325E-08
v -0.1899354 0.01013269 -3.094441E-08
v 1.352624E-15 0.2000681 -8.302343E-09
v -0.1127289 -0.1025961 -1.369983E-08
v -0.1343047 -0.1241719 -1.601037E-08
v -1.352624E-15 -0.1798027 8.302343E-09
v 1.352624E-15 0.2000681 -8.302343E-09
v 1.075076E-15 0.1695554 -6.598768E-09
v -1.075076E-15 -0.1492899 6.598768E-09
v -1.352624E-15 -0.1798027 8.302343E-09

vn 0.3355561 0.8858272 0.3204875
vn 0 0.9996425 0.02673774
vn 0.3754383 0.9240139 -0.07241862
vn 0 0.897743 0.4405194
vn 0.1963457 0.9060565 -0.3748465
vn 0 0.8883057 -0.4592527
vn 0.846519 -5.215089E-07 0.5323585
vn 0.9908194 -5.427166E-07 -0.1351923
vn 0.9903646 -5.418866E-07 -0.1384849
vn 0.8296416 -5.102036E-07 0.5582965
vn -2.345958E-07 -5.406152E-07 1
vn -1.88371E-07 -5.406152E-07 1
vn 0.6901773 0 -0.7236403
vn 0.662658 0 -0.7489222
vn 1.3696E-07 3.432853E-07 -1
vn 1.185858E-07 3.432853E-07 -1
vn -2.345958E-07 -5.406152E-07 1
vn -0.8296416 -5.186332E-07 0.5582963
vn -0.8465192 -5.273262E-07 0.5323582
vn -0.9903645 -5.399213E-07 -0.1384853
vn -0.9908193 -5.406345E-07 -0.1351927
vn -0.690177 0 -0.7236406
vn -0.6626576 0 -0.7489224
vn 1.3696E-07 3.432853E-07 -1
vn 1.185858E-07 3.432853E-07 -1
vn -0.1237794 -0.9919898 0.02519405
vn 0 -0.9999346 0.01144705
vn -0.08848299 -0.981831 -0.1678651
vn 0 -0.9769093 -0.2136546
vn -0.04224496 -0.9768877 0.2095372
vn 0 -0.9620767 0.2727793
vn 0.7071068 0.7071066 2.901972E-07
vn 0.7071068 0.7071068 2.901972E-07
vn 1 1.026798E-07 1.865554E-07
vn 1 0 1.865554E-07
vn 0 1 2.79833E-07
vn 0 1 2.79833E-07
vn 0.7071068 -0.7071068 1.243702E-07
vn 0.7071069 -0.7071066 1.243702E-07
vn 0 -1 0
vn 0 -1 0
vn 1.547405E-07 0 -1
vn 1.325625E-07 -1.229112E-07 -1
vn 1.325625E-07 -1.229112E-07 -1
vn 1.547405E-07 0 -1
vn 1.562265E-07 -1.274425E-07 -1
vn 1.562265E-07 -1.274425E-07 -1
vn 1.539839E-07 0 -1
vn 1.539839E-07 0 -1
vn 1.562265E-07 0 -1
vn 1.562265E-07 0 -1
vn 1.562265E-07 0 -1
vn -0.7071068 -0.7071068 -1.728698E-07
vn -0.7071068 -0.7071068 -1.728698E-07
vn -1 0 -2.654787E-07
vn -1 -1.026798E-07 -2.654787E-07
vn 0 -1 0
vn 0 -1 0
vn -0.7071068 0.7071068 -1.728699E-07
vn -0.7071068 0.7071068 -1.728699E-07
vn 0 1 0
vn 0 1 0
vn -1.629207E-07 0 1
vn -1.629207E-07 0 1
vn -1.582613E-07 0 1
vn -1.582613E-07 0 1
vn -1.629207E-07 0 1
vn -1.6758E-07 0 1
vn -1.6758E-07 0 1
vn -1.629207E-07 0 1
vn -1.629207E-07 0 1
vn -1.629207E-07 0 1
vn -1.629207E-07 0 1
vn -1.629207E-07 0 1
vn -0.3355562 0.8858272 0.3204874
vn -0.3754383 0.9240139 -0.07241876
vn 0 0.9996425 0.02673774
vn 0 0.897743 0.4405194
vn -0.1963456 0.9060565 -0.3748466
vn 0 0.8883057 -0.4592527
vn 0.1237794 -0.9919898 0.02519409
vn 0.08848305 -0.981831 -0.167865
vn 0 -0.9999346 0.01144705
vn 0 -0.9769093 -0.2136546
vn 0.0422449 -0.9768877 0.2095373
vn 0 -0.9620767 0.2727793
vn -0.7071068 0.7071066 0
vn -1 0 0
vn -1 0 0
vn -0.7071066 0.7071069 0
vn 0 1 2.79833E-07
vn 0 1 2.79833E-07
vn -0.7071068 -0.7071068 -1.243702E-07
vn -0.7071068 -0.7071068 -1.243702E-07
vn 0 -1 0
vn 0 -1 0
vn 1.274425E-07 0 -1
vn 1.647555E-07 0 -1
vn 1.647555E-07 0 -1
vn 1.274425E-07 0 -1
vn 1.562265E-07 -1.274425E-07 -1
vn 1.562265E-07 -1.274425E-07 -1
vn 1.433341E-07 0 -1
vn 1.433341E-07 0 -1
vn 1.562265E-07 0 -1
vn 1.562265E-07 0 -1
vn 1.562265E-07 0 -1
vn 0.7071068 -0.7071068 1.666959E-07
vn 1 -1.026798E-07 2.469569E-07
vn 1 -1.232157E-07 2.469569E-07
vn 0.7071068 -0.7071068 1.666959E-07
vn 0 -1 0
vn 0 -1 0
vn 0.7071068 0.7071068 1.60522E-07
vn 0.7071068 0.7071068 1.60522E-07
vn 0 1 0
vn 0 1 0
vn -1.6758E-07 0 1
vn -1.675801E-07 0 1
vn -1.629207E-07 0 1
vn -1.629207E-07 0 1
vn -1.629207E-07 0 1
vn -1.582613E-07 0 1
vn -1.582613E-07 0 1
vn -1.629207E-07 0 1
vn -1.629207E-07 0 1
vn -1.629207E-07 0 1
vn -1.629207E-07 0 1
vn -1.629207E-07 0 1

vt 0.6682451 0.6827124
vt 0.4541118 0.5825179
vt 0.6901326 0.49156
vt 0.5546131 0.8693796
vt 0.6258639 0.3904647
vt 0.4823182 0.2911629
vt 0.6682451 0.6827124
vt 0.6901326 0.49156
vt 0.7357903 0.48124
vt 0.7150568 0.7010734
vt 0.5546131 0.8693796
vt 0.5993688 0.9002172
vt 0.6258639 0.3904647
vt 0.6601038 0.3535338
vt 0.4823182 0.2911629
vt 0.5095462 0.2434321
vt 0.5546131 0.8693796
vt 0.7150568 0.7010734
vt 0.6682451 0.6827124
vt 0.7357903 0.48124
vt 0.6901326 0.49156
vt 0.6258639 0.3904647
vt 0.6601038 0.3535338
vt 0.4823182 0.2911629
vt 0.5095462 0.2434321
vt 0.9813556 0.6611459
vt 0.7522953 0.6258011
vt 0.9214884 0.4674903
vt 0.7550315 0.3195148
vt 0.9145843 0.7729588
vt 0.7616203 0.865528
vt 0.1721619 0.735895
vt 0.1162202 0.735895
vt 0.1149681 0.5013381
vt 0.173415 0.5013382
vt 0.1101269 0.9797274
vt 0.178255 0.9797274
vt 0.1721627 0.2667816
vt 0.1162209 0.2667816
vt 0.1101277 0.02294898
vt 0.1782557 0.0229491
vt 0.1149681 0.5013381
vt 0.1162202 0.735895
vt 0.0547949 0.7322167
vt 0.05310145 0.5013381
vt 0.04481198 0.9466642
vt 0.1101269 0.9797274
vt 0.05479565 0.2704595
vt 0.1162209 0.2667816
vt 0.1101277 0.02294898
vt 0.04481283 0.05601203
vt 0.1101277 0.02294898
vt 0.3227979 0.7107406
vt 0.2633756 0.7107406
vt 0.3227975 0.5116674
vt 0.2633753 0.5116676
vt 0.3227979 0.9106036
vt 0.2633756 0.9106036
vt 0.263375 0.3125945
vt 0.3227972 0.3125945
vt 0.3227972 0.1127313
vt 0.2633749 0.1127313
vt 0.173415 0.5013382
vt 0.2352816 0.5013384
vt 0.1721619 0.735895
vt 0.2335872 0.732217
vt 0.178255 0.9797274
vt 0.2335879 0.2704598
vt 0.1721627 0.2667816
vt 0.1782557 0.0229491
vt 0.2435698 0.9466644
vt 0.178255 0.9797274
vt 0.1782557 0.0229491
vt 0.2435706 0.05601227
vt 0.6682451 0.6827124
vt 0.6901326 0.49156
vt 0.4541118 0.5825179
vt 0.5546131 0.8693796
vt 0.6258639 0.3904647
vt 0.4823182 0.2911629
vt 0.9813556 0.6611459
vt 0.9214884 0.4674903
vt 0.7522953 0.6258011
vt 0.7550315 0.3195148
vt 0.9145843 0.7729588
vt 0.7616203 0.865528
vt 0.1721619 0.735895
vt 0.173415 0.5013382
vt 0.1149681 0.5013381
vt 0.1162202 0.735895
vt 0.178255 0.9797274
vt 0.1101269 0.9797274
vt 0.1162209 0.2667816
vt 0.1721627 0.2667816
vt 0.1782557 0.0229491
vt 0.1101277 0.02294898
vt 0.1149681 0.5013381
vt 0.0547949 0.7322167
vt 0.1162202 0.735895
vt 0.05310145 0.5013381
vt 0.04481198 0.9466642
vt 0.1101269 0.9797274
vt 0.05479565 0.2704595
vt 0.1162209 0.2667816
vt 0.1101277 0.02294898
vt 0.1101277 0.02294898
vt 0.04481283 0.05601203
vt 0.3227979 0.7107406
vt 0.3227975 0.5116674
vt 0.2633753 0.5116676
vt 0.2633756 0.7107406
vt 0.2633756 0.9106036
vt 0.3227979 0.9106036
vt 0.3227972 0.3125945
vt 0.263375 0.3125945
vt 0.2633749 0.1127313
vt 0.3227972 0.1127313
vt 0.1721619 0.735895
vt 0.2335872 0.732217
vt 0.2352816 0.5013384
vt 0.173415 0.5013382
vt 0.178255 0.9797274
vt 0.2335879 0.2704598
vt 0.1721627 0.2667816
vt 0.1782557 0.0229491
vt 0.178255 0.9797274
vt 0.2435698 0.9466644
vt 0.2435706 0.05601227
vt 0.1782557 0.0229491

g Object02.obj
usemtl Object02
usemap Object02
f 1/1/1 3/3/3 2/2/2
f 4/4/4 1/1/1 2/2/2
f 3/3/3 5/5/5 2/2/2
f 2/2/2 5/5/5 6/6/6
f 7/7/7 9/9/9 8/8/8
f 9/9/9 7/7/7 10/10/10
f 11/11/11 10/10/10 7/7/7
f 10/10/10 11/11/11 12/12/12
f 13/13/13 8/8/8 9/9/9
f 13/13/13 9/9/9 14/14/14
f 15/15/15 13/13/13 14/14/14
f 15/15/15 14/14/14 16/16/16
f 17/17/17 18/18/18 12/12/12
f 18/18/18 17/17/17 19/19/19
f 19/19/19 20/20/20 18/18/18
f 20/20/20 19/19/19 21/21/21
f 21/21/21 22/22/22 20/20/20
f 23/23/23 20/20/20 22/22/22
f 22/22/22 24/24/24 23/23/23
f 25/25/25 23/23/23 24/24/24
f 26/26/26 28/28/28 27/27/27
f 28/28/28 29/29/29 27/27/27
f 30/30/30 26/26/26 27/27/27
f 31/31/31 30/30/30 27/27/27
f 32/32/32 34/34/34 33/33/33
f 34/34/34 32/32/32 35/35/35
f 36/36/36 32/32/32 33/33/33
f 32/32/32 36/36/36 37/37/37
f 35/35/35 38/38/38 34/34/34
f 34/34/34 38/38/38 39/39/39
f 38/38/38 40/40/40 39/39/39
f 40/40/40 38/38/38 41/41/41
f 42/42/42 44/44/44 43/43/43
f 44/44/44 42/42/42 45/45/45
f 46/46/46 43/43/43 44/44/44
f 47/47/47 43/43/43 46/46/46
f 42/42/42 48/48/48 45/45/45
f 48/48/48 42/42/42 49/49/49
f 50/50/50 48/48/48 49/49/49
f 48/48/48 52/52/52 51/51/51
f 53/53/53 55/55/55 54/54/54
f 54/54/54 55/55/55 56/56/56
f 54/54/54 57/57/57 53/53/53
f 57/57/57 54/54/54 58/58/58
f 55/55/55 59/59/59 56/56/56
f 59/59/59 55/55/55 60/60/60
f 60/60/60 61/61/61 59/59/59
f 62/62/62 59/59/59 61/61/61
f 63/63/63 65/65/65 64/64/64
f 64/64/64 65/65/65 66/66/66
f 65/65/65 67/67/67 66/66/66
f 68/68/68 63/63/63 64/64/64
f 63/63/63 68/68/68 69/69/69
f 68/68/68 70/70/70 69/69/69
f 66/66/66 72/72/72 71/71/71
f 73/73/73 68/68/68 74/74/74
f 75/75/75 77/77/77 76/76/76
f 78/78/78 77/77/77 75/75/75
f 76/76/76 77/77/77 79/79/79
f 77/77/77 80/80/80 79/79/79
f 81/81/81 83/83/83 82/82/82
f 82/82/82 83/83/83 84/84/84
f 85/85/85 83/83/83 81/81/81
f 86/86/86 83/83/83 85/85/85
f 87/87/87 89/89/89 88/88/88
f 89/89/89 87/87/87 90/90/90
f 91/91/91 90/90/90 87/87/87
f 90/90/90 91/91/91 92/92/92
f 93/93/93 88/88/88 89/89/89
f 88/88/88 93/93/93 94/94/94
f 93/93/93 95/95/95 94/94/94
f 95/95/95 93/93/93 96/96/96
f 97/97/97 99/99/99 98/98/98
f 97/97/97 98/98/98 100/100/100
f 101/101/101 98/98/98 99/99/99
f 99/99/99 102/102/102 101/101/101
f 103/103/103 97/97/97 100/100/100
f 97/97/97 103/103/103 104/104/104
f 105/105/105 104/104/104 103/103/103
f 103/103/103 107/107/107 106/106/106
f 108/108/108 110/110/110 109/109/109
f 110/110/110 108/108/108 111/111/111
f 112/112/112 111/111/111 108/108/108
f 112/112/112 108/108/108 113/113/113
f 110/110/110 114/114/114 109/109/109
f 114/114/114 110/110/110 115/115/115
f 116/116/116 114/114/114 115/115/115
f 114/114/114 116/116/116 117/117/117
f 118/118/118 120/120/120 119/119/119
f 120/120/120 118/118/118 121/121/121
f 122/122/122 118/118/118 119/119/119
f 121/121/121 123/123/123 120/120/120
f 121/121/121 124/124/124 123/123/123
f 125/125/125 123/123/123 124/124/124
f 126/126/126 119/119/119 127/127/127
f 123/123/123 129/129/129 128/128/128
