#Plane03.obj

v -0.05413129 0.2498405 0.007686125
v -0.03073103 0.2498405 -0.005077553
v -0.03073101 0.33629 0.02198603
v -0.05413128 0.2798205 0.02097348
v 1.144763E-05 0.3739446 0.02108693
v 1.142895E-05 0.2498405 -0.01563359
v -0.05413129 0.1803097 0.0009522689
v -0.03073103 0.1803097 -0.01181141
v 1.142245E-05 0.1803097 -0.02236745
v -0.0541313 0.1069149 0.007686125
v -0.03073104 0.1069149 -0.005077553
v 1.141957E-05 0.1069149 -0.01563359
v -0.0541313 0.03577051 0.02097348
v -0.03073104 0.0005130215 0.0082098
v 1.141565E-05 -0.01115684 -0.002346239
v -0.1091662 0.2866023 0.007686141
v -0.1091662 0.5281567 0.02097349
v -0.1091662 0.07465628 0.007686141
v -0.1091662 0.1834943 0.0009522847
v -0.1091662 -0.1542423 0.02097349
v -0.2114251 0.3601131 0.00768617
v -0.2114251 0.6306179 0.02097352
v -0.2114251 0.1898624 0.0009523141
v -0.2114251 0.01015022 0.00768617
v -0.2114251 -0.2874494 0.02097352
v -0.3927316 0.4915265 0.007686222
v -0.3927316 0.7462129 0.02097357
v -0.3927316 0.2012465 0.0009523661
v -0.3927317 -0.1051655 0.007686222
v -0.3927317 -0.4021822 0.02097357
v -0.6095119 0.6681635 0.02123334
v -0.6095119 0.8628893 0.02097364
v -0.6095119 0.2165481 0.02069516
v -0.609512 -0.2601651 0.02083106
v -0.609512 -0.7222611 0.02097364
v -0.05413128 0.2498405 0.03678158
v -0.05413128 0.2798205 0.02349423
v -0.03073101 0.33629 0.02248167
v -0.03073101 0.2498405 0.04954525
v 1.144829E-05 0.3739446 0.02338074
v 1.14507E-05 0.2498405 0.06010127
v -0.05413128 0.1803097 0.04351544
v -0.03073101 0.1803097 0.0562791
v 1.144808E-05 0.1803097 0.06683513
v -0.05413129 0.1069149 0.03678158
v -0.03073102 0.1069149 0.04954525
v 1.144133E-05 0.1069149 0.06010127
v -0.0541313 0.03577051 0.02349423
v -0.03073103 0.0005130215 0.0362579
v 1.142977E-05 -0.01115684 0.04681392
v -0.1091662 0.2866023 0.0367816
v -0.1091662 0.5281567 0.02349425
v -0.1091662 0.07465628 0.0367816
v -0.1091662 0.1834943 0.04351546
v -0.1091662 -0.1542423 0.02349425
v -0.2114251 0.3601131 0.03678163
v -0.2114251 0.6306179 0.02349427
v -0.2114251 0.1898624 0.04351548
v -0.2114251 0.01015022 0.03678163
v -0.2114251 -0.2874494 0.02349427
v -0.3927316 0.4915265 0.03678168
v -0.3927316 0.7462129 0.02349433
v -0.3927316 0.2012465 0.04351554
v -0.3927317 -0.1051655 0.03678168
v -0.3927317 -0.4021822 0.02349433
v -0.6095119 0.6681635 0.02323469
v -0.6095119 0.8628893 0.02349439
v -0.6095119 0.2165481 0.02377286
v -0.609512 -0.2601651 0.02363697
v -0.609512 -0.7222611 0.02349439
v 0.05413136 0.2498405 0.007686094
v 0.05413136 0.2798205 0.02097345
v 0.0307311 0.33629 0.02198601
v 0.03073109 0.2498405 -0.005077571
v -1.135472E-05 0.3739446 0.02108694
v -1.137341E-05 0.2498405 -0.01563359
v 0.05413135 0.1803097 0.0009522378
v 0.03073108 0.1803097 -0.01181143
v -1.13799E-05 0.1803097 -0.02236745
v 0.05413134 0.1069149 0.007686094
v 0.03073108 0.1069149 -0.005077571
v -1.138278E-05 0.1069149 -0.01563359
v 0.05413134 0.03577051 0.02097345
v 0.03073108 0.0005130175 0.008209782
v -1.13867E-05 -0.01115684 -0.002346239
v 0.1091663 0.2866023 0.007686078
v 0.1091663 0.5281567 0.02097343
v 0.1091663 0.07465626 0.007686078
v 0.1091663 0.1834943 0.000952222
v 0.1091663 -0.1542424 0.02097343
v 0.2114252 0.3601131 0.007686049
v 0.2114252 0.6306179 0.0209734
v 0.2114251 0.1898624 0.0009521926
v 0.2114251 0.01015019 0.007686049
v 0.2114251 -0.2874494 0.0209734
v 0.3927317 0.4915265 0.007685997
v 0.3927317 0.7462129 0.02097335
v 0.3927317 0.2012464 0.0009521405
v 0.3927317 -0.1051656 0.007685997
v 0.3927317 -0.4021822 0.02097335
v 0.609512 0.6681634 0.02123299
v 0.609512 0.8628892 0.02097329
v 0.609512 0.2165481 0.02069482
v 0.609512 -0.2601651 0.02083071
v 0.6095119 -0.7222612 0.02097329
v 0.05413136 0.2498405 0.03678155
v 0.0307311 0.2498405 0.04954523
v 0.0307311 0.33629 0.02248165
v 0.05413136 0.2798205 0.0234942
v -1.135406E-05 0.3739446 0.02338074
v -1.135165E-05 0.2498405 0.06010127
v 0.05413136 0.1803097 0.04351541
v 0.0307311 0.1803097 0.05627909
v -1.135428E-05 0.1803097 0.06683513
v 0.05413136 0.1069149 0.03678155
v 0.0307311 0.1069149 0.04954523
v -1.136102E-05 0.1069149 0.06010127
v 0.05413134 0.03577051 0.0234942
v 0.03073108 0.0005130175 0.03625788
v -1.137258E-05 -0.01115684 0.04681392
v 0.1091663 0.2866023 0.03678154
v 0.1091663 0.5281567 0.02349418
v 0.1091663 0.07465626 0.03678154
v 0.1091663 0.1834943 0.04351539
v 0.1091663 -0.1542424 0.02349418
v 0.2114252 0.3601131 0.03678151
v 0.2114252 0.6306179 0.02349415
v 0.2114252 0.1898624 0.04351536
v 0.2114251 0.01015019 0.03678151
v 0.2114251 -0.2874494 0.02349415
v 0.3927317 0.4915265 0.03678146
v 0.3927317 0.7462129 0.0234941
v 0.3927317 0.2012464 0.04351531
v 0.3927317 -0.1051656 0.03678146
v 0.3927317 -0.4021822 0.0234941
v 0.609512 0.6681634 0.02323434
v 0.609512 0.8628892 0.02349404
v 0.609512 0.2165481 0.02377251
v 0.609512 -0.2601651 0.02363661
v 0.6095119 -0.7222612 0.02349404

vn -0.2218982 0.1445464 -0.9642964
vn -0.4185825 0.1822062 -0.8897132
vn -0.3698959 0.2747153 -0.8875294
vn -0.151902 0.2017445 -0.9675871
vn -0.3352652 0.2731445 -0.9016592
vn -0.3305379 0.1793127 -0.9266022
vn -0.2391609 0.0008168382 -0.9709797
vn -0.4013889 0.002309133 -0.9159048
vn -0.3247575 0.00234487 -0.9457944
vn -0.2336623 -0.09525398 -0.9676407
vn -0.4234464 -0.1006403 -0.9003136
vn -0.3323563 -0.09823378 -0.9380242
vn -0.1680504 -0.1118029 -0.9794177
vn -0.3999105 -0.1148491 -0.9093301
vn -0.3414662 -0.1104994 -0.933376
vn 0.1024773 0.06999984 -0.9922693
vn 0.06208524 0.05558847 -0.9965217
vn 0.07437426 -0.0653404 -0.9950874
vn 0.02009854 0.002106658 -0.9997959
vn 0.06187474 -0.05418307 -0.9966121
vn 0.02765127 0.04331798 -0.9986786
vn 0.03713065 0.05084761 -0.998016
vn 0.01301224 0.001410334 -0.9999144
vn 0.02588365 -0.04113939 -0.9988181
vn 0.03310188 -0.04597653 -0.9983938
vn -0.01382942 0.029688 -0.9994635
vn 0.00343739 0.03603122 -0.9993448
vn -0.03138639 0.001003316 -0.9995068
vn -0.01618063 -0.02535928 -0.9995474
vn 0.0001978834 -0.0253334 -0.9996791
vn -0.02877656 0.02355713 -0.9993082
vn -0.01162951 0.02897406 -0.9995124
vn -0.0725311 0.0009277276 -0.9973658
vn -0.02967931 -0.01498821 -0.999447
vn -0.01093036 -0.01768779 -0.9997838
vn -0.2218977 0.1445465 0.9642965
vn -0.1519015 0.2017445 0.9675872
vn -0.3698954 0.2747153 0.8875297
vn -0.418582 0.1822062 0.8897135
vn -0.3352647 0.2731445 0.9016594
vn -0.3305373 0.1793127 0.9266025
vn -0.2391602 0.0008168345 0.9709798
vn -0.4013883 0.002309124 0.9159051
vn -0.324757 0.002344864 0.9457946
vn -0.2336617 -0.09525399 0.9676409
vn -0.423446 -0.1006403 0.9003139
vn -0.3323558 -0.09823377 0.9380244
vn -0.1680498 -0.1118029 0.9794179
vn -0.39991 -0.1148491 0.9093304
vn -0.3414657 -0.1104994 0.9333761
vn 0.1024778 0.06999984 0.9922693
vn 0.06208581 0.05558847 0.9965216
vn 0.07437483 -0.0653404 0.9950874
vn 0.02009912 0.00210666 0.9997959
vn 0.06187531 -0.05418306 0.996612
vn 0.02765184 0.04331798 0.9986785
vn 0.03713122 0.0508476 0.9980159
vn 0.01301281 0.001410333 0.9999144
vn 0.02588422 -0.04113938 0.998818
vn 0.03310245 -0.04597652 0.9983938
vn -0.01382885 0.029688 0.9994636
vn 0.003437962 0.03603122 0.9993448
vn -0.03138581 0.001003316 0.9995068
vn -0.01618006 -0.02535928 0.9995474
vn 0.0001984556 -0.02533339 0.9996791
vn -0.02877599 0.02355714 0.9993083
vn -0.01162894 0.02897406 0.9995124
vn -0.07253053 0.0009277279 0.9973658
vn -0.02967873 -0.01498821 0.999447
vn -0.01092978 -0.01768779 0.9997838
vn 0.2218977 0.1445464 -0.9642965
vn 0.1519015 0.2017444 -0.9675872
vn 0.3698955 0.2747152 -0.8875297
vn 0.4185821 0.1822062 -0.8897135
vn 0.3352647 0.2731444 -0.9016594
vn 0.3305373 0.1793127 -0.9266025
vn 0.2391602 0.000816802 -0.9709798
vn 0.4013883 0.002309071 -0.9159051
vn 0.324757 0.002344822 -0.9457946
vn 0.2336617 -0.09525402 -0.9676409
vn 0.4234459 -0.1006404 -0.9003139
vn 0.3323558 -0.0982338 -0.9380243
vn 0.1680498 -0.111803 -0.9794179
vn 0.39991 -0.1148492 -0.9093304
vn 0.3414657 -0.1104994 -0.9333761
vn -0.1024778 0.06999985 -0.9922693
vn -0.06208581 0.05558847 -0.9965216
vn -0.07437485 -0.06534038 -0.9950874
vn -0.02009912 0.002106659 -0.9997959
vn -0.06187532 -0.05418306 -0.996612
vn -0.02765184 0.04331798 -0.9986785
vn -0.03713121 0.0508476 -0.9980159
vn -0.01301281 0.001410334 -0.9999144
vn -0.02588423 -0.04113938 -0.998818
vn -0.03310246 -0.04597652 -0.9983938
vn 0.01382885 0.029688 -0.9994636
vn -0.003437957 0.03603122 -0.9993448
vn 0.03138581 0.001003311 -0.9995068
vn 0.01618006 -0.02535928 -0.9995474
vn -0.0001984589 -0.0253334 -0.9996791
vn 0.028776 0.02355713 -0.9993083
vn 0.01162894 0.02897406 -0.9995124
vn 0.07253053 0.0009277181 -0.9973658
vn 0.02967873 -0.01498821 -0.999447
vn 0.01092978 -0.01768779 -0.9997838
vn 0.2218983 0.1445464 0.9642964
vn 0.4185826 0.1822062 0.8897132
vn 0.369896 0.2747152 0.8875294
vn 0.1519021 0.2017444 0.9675871
vn 0.3352652 0.2731444 0.9016592
vn 0.3305379 0.1793127 0.9266022
vn 0.2391609 0.000816802 0.9709797
vn 0.4013889 0.002309074 0.9159048
vn 0.3247575 0.002344827 0.9457944
vn 0.2336622 -0.095254 0.9676407
vn 0.4234464 -0.1006404 0.9003136
vn 0.3323563 -0.09823381 0.9380242
vn 0.1680503 -0.111803 0.9794177
vn 0.3999105 -0.1148492 0.9093301
vn 0.3414662 -0.1104994 0.933376
vn -0.1024772 0.06999985 0.9922693
vn -0.06208524 0.05558848 0.9965217
vn -0.07437427 -0.06534038 0.9950874
vn -0.02009855 0.002106661 0.9997959
vn -0.06187476 -0.05418307 0.9966121
vn -0.02765126 0.04331798 0.9986786
vn -0.03713064 0.05084761 0.998016
vn -0.01301224 0.001410335 0.9999144
vn -0.02588366 -0.04113939 0.9988181
vn -0.03310189 -0.04597652 0.9983938
vn 0.01382942 0.029688 0.9994635
vn -0.003437385 0.03603122 0.9993448
vn 0.03138639 0.001003313 0.9995068
vn 0.01618063 -0.02535928 0.9995474
vn -0.0001978867 -0.0253334 0.9996791
vn 0.02877656 0.02355713 0.9993082
vn 0.01162951 0.02897406 0.9995124
vn 0.0725311 0.0009277184 0.9973658
vn 0.02967931 -0.01498821 0.999447
vn 0.01093036 -0.01768779 0.9997838

vt 0.5444055 0.6132551
vt 0.5252095 0.6132551
vt 0.5252095 0.6677923
vt 0.5444055 0.6321682
vt 0.4999906 0.6915468
vt 0.4999906 0.6132551
vt 0.5444055 0.5693913
vt 0.5252095 0.5693913
vt 0.4999906 0.5693913
vt 0.5444055 0.5230898
vt 0.5252095 0.5230898
vt 0.4999906 0.5230898
vt 0.5444055 0.4782081
vt 0.5252095 0.4559657
vt 0.4999906 0.4486037
vt 0.5776118 0.6271381
vt 0.5776118 0.7592058
vt 0.5776118 0.5112586
vt 0.5776118 0.5707648
vt 0.5776118 0.3861104
vt 0.6503128 0.6673295
vt 0.6503128 0.8152256
vt 0.6503128 0.5742465
vt 0.6503128 0.4759904
vt 0.6503128 0.3132806
vt 0.7792131 0.7391787
vt 0.7792131 0.8784261
vt 0.7792131 0.5804706
vt 0.7792131 0.4129426
vt 0.7792131 0.2505514
vt 0.9333333 0.8357533
vt 0.9333333 0.9422179
vt 0.9333333 0.5888367
vt 0.9333333 0.328198
vt 0.9333333 0.07555121
vt 0.5444055 0.6132551
vt 0.5444055 0.6321682
vt 0.5252095 0.6677923
vt 0.5252095 0.6132551
vt 0.4999906 0.6915468
vt 0.4999906 0.6132551
vt 0.5444055 0.5693913
vt 0.5252095 0.5693913
vt 0.4999906 0.5693913
vt 0.5444055 0.5230898
vt 0.5252095 0.5230898
vt 0.4999906 0.5230898
vt 0.5444055 0.4782081
vt 0.5252095 0.4559657
vt 0.4999906 0.4486037
vt 0.5776118 0.6271381
vt 0.5776118 0.7592058
vt 0.5776118 0.5112586
vt 0.5776118 0.5707648
vt 0.5776118 0.3861104
vt 0.6503128 0.6673295
vt 0.6503128 0.8152256
vt 0.6503128 0.5742465
vt 0.6503128 0.4759904
vt 0.6503128 0.3132806
vt 0.7792131 0.7391787
vt 0.7792131 0.8784261
vt 0.7792131 0.5804706
vt 0.7792131 0.4129426
vt 0.7792131 0.2505514
vt 0.9333333 0.8357533
vt 0.9333333 0.9422179
vt 0.9333333 0.5888367
vt 0.9333333 0.328198
vt 0.9333333 0.07555121
vt 0.4555945 0.6132551
vt 0.4555945 0.6321682
vt 0.4747904 0.6677923
vt 0.4747904 0.6132551
vt 0.5000094 0.6915468
vt 0.5000094 0.6132551
vt 0.4555945 0.5693913
vt 0.4747904 0.5693913
vt 0.5000094 0.5693913
vt 0.4555945 0.5230898
vt 0.4747904 0.5230898
vt 0.5000094 0.5230898
vt 0.4555945 0.4782081
vt 0.4747904 0.4559657
vt 0.5000094 0.4486037
vt 0.422388 0.6271381
vt 0.422388 0.7592058
vt 0.422388 0.5112586
vt 0.422388 0.5707648
vt 0.422388 0.3861104
vt 0.349687 0.6673295
vt 0.349687 0.8152256
vt 0.349687 0.5742465
vt 0.349687 0.4759904
vt 0.349687 0.3132806
vt 0.2207868 0.7391787
vt 0.2207868 0.8784261
vt 0.2207868 0.5804706
vt 0.2207868 0.4129426
vt 0.2207868 0.2505514
vt 0.06666657 0.8357533
vt 0.06666657 0.9422179
vt 0.06666657 0.5888367
vt 0.06666657 0.328198
vt 0.06666657 0.07555121
vt 0.4555945 0.6132551
vt 0.4747904 0.6132551
vt 0.4747904 0.6677923
vt 0.4555945 0.6321682
vt 0.5000094 0.6915468
vt 0.5000094 0.6132551
vt 0.4555945 0.5693913
vt 0.4747904 0.5693913
vt 0.5000094 0.5693913
vt 0.4555945 0.5230898
vt 0.4747904 0.5230898
vt 0.5000094 0.5230898
vt 0.4555945 0.4782081
vt 0.4747904 0.4559657
vt 0.5000094 0.4486037
vt 0.422388 0.6271381
vt 0.422388 0.7592058
vt 0.422388 0.5112586
vt 0.422388 0.5707648
vt 0.422388 0.3861104
vt 0.349687 0.6673295
vt 0.349687 0.8152256
vt 0.349687 0.5742465
vt 0.349687 0.4759904
vt 0.349687 0.3132806
vt 0.2207868 0.7391787
vt 0.2207868 0.8784261
vt 0.2207868 0.5804706
vt 0.2207868 0.4129426
vt 0.2207868 0.2505514
vt 0.06666657 0.8357533
vt 0.06666657 0.9422179
vt 0.06666657 0.5888367
vt 0.06666657 0.328198
vt 0.06666657 0.07555121

g Plane03.obj
usemtl Plane03
usemap Plane03
f 1/1/1 3/3/3 2/2/2
f 1/1/1 4/4/4 3/3/3
f 2/2/2 3/3/3 5/5/5
f 2/2/2 5/5/5 6/6/6
f 7/7/7 1/1/1 2/2/2
f 7/7/7 2/2/2 8/8/8
f 8/8/8 2/2/2 6/6/6
f 8/8/8 6/6/6 9/9/9
f 10/10/10 7/7/7 8/8/8
f 10/10/10 8/8/8 11/11/11
f 11/11/11 8/8/8 9/9/9
f 11/11/11 9/9/9 12/12/12
f 13/13/13 10/10/10 11/11/11
f 13/13/13 11/11/11 14/14/14
f 14/14/14 11/11/11 12/12/12
f 14/14/14 12/12/12 15/15/15
f 4/4/4 1/1/1 16/16/16
f 4/4/4 16/16/16 17/17/17
f 7/7/7 10/10/10 18/18/18
f 7/7/7 18/18/18 19/19/19
f 1/1/1 19/19/19 16/16/16
f 1/1/1 7/7/7 19/19/19
f 10/10/10 20/20/20 18/18/18
f 10/10/10 13/13/13 20/20/20
f 17/17/17 16/16/16 21/21/21
f 17/17/17 21/21/21 22/22/22
f 16/16/16 23/23/23 21/21/21
f 16/16/16 19/19/19 23/23/23
f 19/19/19 24/24/24 23/23/23
f 19/19/19 18/18/18 24/24/24
f 18/18/18 25/25/25 24/24/24
f 18/18/18 20/20/20 25/25/25
f 22/22/22 21/21/21 26/26/26
f 22/22/22 26/26/26 27/27/27
f 21/21/21 28/28/28 26/26/26
f 21/21/21 23/23/23 28/28/28
f 23/23/23 29/29/29 28/28/28
f 23/23/23 24/24/24 29/29/29
f 24/24/24 30/30/30 29/29/29
f 24/24/24 25/25/25 30/30/30
f 27/27/27 26/26/26 31/31/31
f 27/27/27 31/31/31 32/32/32
f 26/26/26 33/33/33 31/31/31
f 26/26/26 28/28/28 33/33/33
f 28/28/28 34/34/34 33/33/33
f 28/28/28 29/29/29 34/34/34
f 29/29/29 35/35/35 34/34/34
f 29/29/29 30/30/30 35/35/35
f 36/36/36 38/38/38 37/37/37
f 36/36/36 39/39/39 38/38/38
f 39/39/39 40/40/40 38/38/38
f 39/39/39 41/41/41 40/40/40
f 42/42/42 39/39/39 36/36/36
f 42/42/42 43/43/43 39/39/39
f 43/43/43 41/41/41 39/39/39
f 43/43/43 44/44/44 41/41/41
f 45/45/45 43/43/43 42/42/42
f 45/45/45 46/46/46 43/43/43
f 46/46/46 44/44/44 43/43/43
f 46/46/46 47/47/47 44/44/44
f 48/48/48 46/46/46 45/45/45
f 48/48/48 49/49/49 46/46/46
f 49/49/49 47/47/47 46/46/46
f 49/49/49 50/50/50 47/47/47
f 37/37/37 51/51/51 36/36/36
f 37/37/37 52/52/52 51/51/51
f 42/42/42 53/53/53 45/45/45
f 42/42/42 54/54/54 53/53/53
f 36/36/36 54/54/54 42/42/42
f 36/36/36 51/51/51 54/54/54
f 45/45/45 55/55/55 48/48/48
f 45/45/45 53/53/53 55/55/55
f 52/52/52 56/56/56 51/51/51
f 52/52/52 57/57/57 56/56/56
f 51/51/51 58/58/58 54/54/54
f 51/51/51 56/56/56 58/58/58
f 54/54/54 59/59/59 53/53/53
f 54/54/54 58/58/58 59/59/59
f 53/53/53 60/60/60 55/55/55
f 53/53/53 59/59/59 60/60/60
f 57/57/57 61/61/61 56/56/56
f 57/57/57 62/62/62 61/61/61
f 56/56/56 63/63/63 58/58/58
f 56/56/56 61/61/61 63/63/63
f 58/58/58 64/64/64 59/59/59
f 58/58/58 63/63/63 64/64/64
f 59/59/59 65/65/65 60/60/60
f 59/59/59 64/64/64 65/65/65
f 62/62/62 66/66/66 61/61/61
f 62/62/62 67/67/67 66/66/66
f 61/61/61 68/68/68 63/63/63
f 61/61/61 66/66/66 68/68/68
f 63/63/63 69/69/69 64/64/64
f 63/63/63 68/68/68 69/69/69
f 64/64/64 70/70/70 65/65/65
f 64/64/64 69/69/69 70/70/70
f 71/71/71 73/73/73 72/72/72
f 71/71/71 74/74/74 73/73/73
f 74/74/74 75/75/75 73/73/73
f 74/74/74 76/76/76 75/75/75
f 77/77/77 74/74/74 71/71/71
f 77/77/77 78/78/78 74/74/74
f 78/78/78 76/76/76 74/74/74
f 78/78/78 79/79/79 76/76/76
f 80/80/80 78/78/78 77/77/77
f 80/80/80 81/81/81 78/78/78
f 81/81/81 79/79/79 78/78/78
f 81/81/81 82/82/82 79/79/79
f 83/83/83 81/81/81 80/80/80
f 83/83/83 84/84/84 81/81/81
f 84/84/84 82/82/82 81/81/81
f 84/84/84 85/85/85 82/82/82
f 72/72/72 86/86/86 71/71/71
f 72/72/72 87/87/87 86/86/86
f 77/77/77 88/88/88 80/80/80
f 77/77/77 89/89/89 88/88/88
f 71/71/71 89/89/89 77/77/77
f 71/71/71 86/86/86 89/89/89
f 80/80/80 90/90/90 83/83/83
f 80/80/80 88/88/88 90/90/90
f 87/87/87 91/91/91 86/86/86
f 87/87/87 92/92/92 91/91/91
f 86/86/86 93/93/93 89/89/89
f 86/86/86 91/91/91 93/93/93
f 89/89/89 94/94/94 88/88/88
f 89/89/89 93/93/93 94/94/94
f 88/88/88 95/95/95 90/90/90
f 88/88/88 94/94/94 95/95/95
f 92/92/92 96/96/96 91/91/91
f 92/92/92 97/97/97 96/96/96
f 91/91/91 98/98/98 93/93/93
f 91/91/91 96/96/96 98/98/98
f 93/93/93 99/99/99 94/94/94
f 93/93/93 98/98/98 99/99/99
f 94/94/94 100/100/100 95/95/95
f 94/94/94 99/99/99 100/100/100
f 97/97/97 101/101/101 96/96/96
f 97/97/97 102/102/102 101/101/101
f 96/96/96 103/103/103 98/98/98
f 96/96/96 101/101/101 103/103/103
f 98/98/98 104/104/104 99/99/99
f 98/98/98 103/103/103 104/104/104
f 99/99/99 105/105/105 100/100/100
f 99/99/99 104/104/104 105/105/105
f 106/106/106 108/108/108 107/107/107
f 106/106/106 109/109/109 108/108/108
f 107/107/107 108/108/108 110/110/110
f 107/107/107 110/110/110 111/111/111
f 112/112/112 106/106/106 107/107/107
f 112/112/112 107/107/107 113/113/113
f 113/113/113 107/107/107 111/111/111
f 113/113/113 111/111/111 114/114/114
f 115/115/115 112/112/112 113/113/113
f 115/115/115 113/113/113 116/116/116
f 116/116/116 113/113/113 114/114/114
f 116/116/116 114/114/114 117/117/117
f 118/118/118 115/115/115 116/116/116
f 118/118/118 116/116/116 119/119/119
f 119/119/119 116/116/116 117/117/117
f 119/119/119 117/117/117 120/120/120
f 109/109/109 106/106/106 121/121/121
f 109/109/109 121/121/121 122/122/122
f 112/112/112 115/115/115 123/123/123
f 112/112/112 123/123/123 124/124/124
f 106/106/106 124/124/124 121/121/121
f 106/106/106 112/112/112 124/124/124
f 115/115/115 125/125/125 123/123/123
f 115/115/115 118/118/118 125/125/125
f 122/122/122 121/121/121 126/126/126
f 122/122/122 126/126/126 127/127/127
f 121/121/121 128/128/128 126/126/126
f 121/121/121 124/124/124 128/128/128
f 124/124/124 129/129/129 128/128/128
f 124/124/124 123/123/123 129/129/129
f 123/123/123 130/130/130 129/129/129
f 123/123/123 125/125/125 130/130/130
f 127/127/127 126/126/126 131/131/131
f 127/127/127 131/131/131 132/132/132
f 126/126/126 133/133/133 131/131/131
f 126/126/126 128/128/128 133/133/133
f 128/128/128 134/134/134 133/133/133
f 128/128/128 129/129/129 134/134/134
f 129/129/129 135/135/135 134/134/134
f 129/129/129 130/130/130 135/135/135
f 132/132/132 131/131/131 136/136/136
f 132/132/132 136/136/136 137/137/137
f 131/131/131 138/138/138 136/136/136
f 131/131/131 133/133/133 138/138/138
f 133/133/133 139/139/139 138/138/138
f 133/133/133 134/134/134 139/139/139
f 134/134/134 140/140/140 139/139/139
f 134/134/134 135/135/135 140/140/140
