#Tube02.obj

v 2.37816E-08 0.1209155 -0.1459704
v 0.1274101 0.105113 -0.1295852
v 2.111211E-08 0.157888 -0.1295852
v 0.1012666 0.07896945 -0.1459704
v 0.1801851 -0.02229708 -0.1295852
v 0.1432125 -0.02229708 -0.1459704
v 0.1012666 -0.1235636 -0.1459704
v 0.1274101 -0.1497072 -0.1295852
v 2.378161E-08 -0.1655096 -0.1459705
v 2.111211E-08 -0.2024822 -0.1295852
v 0.1274101 0.105113 2.075774E-08
v 0.1801851 -0.02229708 -0.1295852
v 0.1801851 -0.0222971 2.935588E-08
v 0.1274101 0.105113 -0.1295852
v 0.06057536 0.1519739 -0.07373537
v 0.09130143 0.1421732 1.487489E-08
v 2.111211E-08 0.157888 -0.1295852
v 1.76973E-08 0.157888 -0.1086253
v 0.1274101 -0.1497072 2.075774E-08
v 0.1274101 -0.1497072 -0.1295852
v 0 -0.2024822 -1.239846E-17
v 2.111211E-08 -0.2024822 -0.1295852
v 2.37816E-08 0.1209155 -0.1459704
v 0.1012665 0.07896943 1.649842E-08
v 0.1012666 0.07896945 -0.1459704
v 0 0.1209154 7.403936E-18
v 0.1432125 -0.0222971 2.333228E-08
v 0.1432125 -0.02229708 -0.1459704
v 0.1012666 -0.1235636 -0.1459704
v 0.1012665 -0.1235636 1.649842E-08
v 2.378161E-08 -0.1655096 -0.1459705
v 0 -0.1655096 -1.013454E-17
v 0.06057536 0.1519739 -0.07373537
v 1.123635E-08 0.1818217 -0.06896821
v 1.76973E-08 0.157888 -0.1086253
v 0.04228019 0.1779351 -0.04792653
v 0.09130143 0.1421732 1.487489E-08
v 0.06871831 0.1723334 1.119563E-08
v 0.04228019 0.1779351 -0.04792653
v 0 0.2024822 1.239846E-17
v 1.123635E-08 0.1818217 -0.06896821
v 0.06871831 0.1723334 1.119563E-08
v -2.37816E-08 0.1209155 0.1459704
v 0.1274101 0.105113 0.1295852
v 0.1012665 0.07896945 0.1459704
v -2.111211E-08 0.157888 0.1295852
v 0.1801851 -0.02229708 0.1295852
v 0.1432125 -0.02229708 0.1459705
v 0.1012665 -0.1235636 0.1459705
v 0.1274101 -0.1497072 0.1295853
v -2.378161E-08 -0.1655096 0.1459705
v -2.111211E-08 -0.2024822 0.1295852
v 0.1274101 0.105113 2.075774E-08
v 0.1801851 -0.02229708 0.1295852
v 0.1274101 0.105113 0.1295852
v 0.1801851 -0.0222971 2.935588E-08
v 0.06057533 0.1519739 0.07373539
v 0.09130143 0.1421732 1.487489E-08
v -2.111211E-08 0.157888 0.1295852
v -1.76973E-08 0.157888 0.1086253
v 0.1274101 -0.1497072 2.075774E-08
v 0.1274101 -0.1497072 0.1295853
v 0 -0.2024822 -1.239846E-17
v -2.111211E-08 -0.2024822 0.1295852
v -2.37816E-08 0.1209155 0.1459704
v 0.1012665 0.07896943 1.649842E-08
v 0 0.1209154 7.403936E-18
v 0.1012665 0.07896945 0.1459704
v 0.1432125 -0.0222971 2.333228E-08
v 0.1432125 -0.02229708 0.1459705
v 0.1012665 -0.1235636 0.1459705
v 0.1012665 -0.1235636 1.649842E-08
v -2.378161E-08 -0.1655096 0.1459705
v 0 -0.1655096 -1.013454E-17
v 0.06057533 0.1519739 0.07373539
v -1.123635E-08 0.1818217 0.06896821
v 0.04228017 0.1779351 0.04792653
v -1.76973E-08 0.157888 0.1086253
v 0.09130143 0.1421732 1.487489E-08
v 0.06871831 0.1723334 1.119563E-08
v 0.04228017 0.1779351 0.04792653
v -1.123635E-08 0.1818217 0.06896821
v 0 0.2024822 1.239846E-17
v 0.06871831 0.1723334 1.119563E-08
v 2.37816E-08 0.1209155 -0.1459704
v -0.1274101 0.105113 -0.1295852
v -0.1012665 0.07896945 -0.1459704
v 2.111211E-08 0.157888 -0.1295852
v -0.1801851 -0.02229708 -0.1295852
v -0.1432125 -0.02229708 -0.1459705
v -0.1012665 -0.1235636 -0.1459705
v -0.1274101 -0.1497072 -0.1295853
v 2.378161E-08 -0.1655096 -0.1459705
v 2.111211E-08 -0.2024822 -0.1295852
v -0.1274101 0.105113 -2.075774E-08
v -0.1801851 -0.02229708 -0.1295852
v -0.1274101 0.105113 -0.1295852
v -0.1801851 -0.0222971 -2.935588E-08
v -0.06057533 0.1519739 -0.07373539
v -0.09130143 0.1421732 -1.487489E-08
v 2.111211E-08 0.157888 -0.1295852
v 1.76973E-08 0.157888 -0.1086253
v -0.1274101 -0.1497072 -2.075774E-08
v -0.1274101 -0.1497072 -0.1295853
v 0 -0.2024822 -1.239846E-17
v 2.111211E-08 -0.2024822 -0.1295852
v 2.37816E-08 0.1209155 -0.1459704
v -0.1012665 0.07896943 -1.649842E-08
v 0 0.1209154 7.403936E-18
v -0.1012665 0.07896945 -0.1459704
v -0.1432125 -0.0222971 -2.333228E-08
v -0.1432125 -0.02229708 -0.1459705
v -0.1012665 -0.1235636 -0.1459705
v -0.1012665 -0.1235636 -1.649842E-08
v 2.378161E-08 -0.1655096 -0.1459705
v 0 -0.1655096 -1.013454E-17
v -0.06057533 0.1519739 -0.07373539
v 1.123635E-08 0.1818217 -0.06896821
v -0.04228017 0.1779351 -0.04792653
v 1.76973E-08 0.157888 -0.1086253
v -0.09130143 0.1421732 -1.487489E-08
v -0.06871831 0.1723334 -1.119563E-08
v -0.04228017 0.1779351 -0.04792653
v 1.123635E-08 0.1818217 -0.06896821
v 0 0.2024822 1.239846E-17
v -0.06871831 0.1723334 -1.119563E-08
v -2.37816E-08 0.1209155 0.1459704
v -0.1274101 0.105113 0.1295852
v -2.111211E-08 0.157888 0.1295852
v -0.1012666 0.07896945 0.1459704
v -0.1801851 -0.02229708 0.1295852
v -0.1432125 -0.02229708 0.1459704
v -0.1012666 -0.1235636 0.1459704
v -0.1274101 -0.1497072 0.1295852
v -2.378161E-08 -0.1655096 0.1459705
v -2.111211E-08 -0.2024822 0.1295852
v -0.1274101 0.105113 -2.075774E-08
v -0.1801851 -0.02229708 0.1295852
v -0.1801851 -0.0222971 -2.935588E-08
v -0.1274101 0.105113 0.1295852
v -0.06057536 0.1519739 0.07373537
v -0.09130143 0.1421732 -1.487489E-08
v -2.111211E-08 0.157888 0.1295852
v -1.76973E-08 0.157888 0.1086253
v -0.1274101 -0.1497072 -2.075774E-08
v -0.1274101 -0.1497072 0.1295852
v 0 -0.2024822 -1.239846E-17
v -2.111211E-08 -0.2024822 0.1295852
v -2.37816E-08 0.1209155 0.1459704
v -0.1012665 0.07896943 -1.649842E-08
v -0.1012666 0.07896945 0.1459704
v 0 0.1209154 7.403936E-18
v -0.1432125 -0.0222971 -2.333228E-08
v -0.1432125 -0.02229708 0.1459704
v -0.1012666 -0.1235636 0.1459704
v -0.1012665 -0.1235636 -1.649842E-08
v -2.378161E-08 -0.1655096 0.1459705
v 0 -0.1655096 -1.013454E-17
v -0.06057536 0.1519739 0.07373537
v -1.123635E-08 0.1818217 0.06896821
v -1.76973E-08 0.157888 0.1086253
v -0.04228019 0.1779351 0.04792653
v -0.09130143 0.1421732 -1.487489E-08
v -0.06871831 0.1723334 -1.119563E-08
v -0.04228019 0.1779351 0.04792653
v 0 0.2024822 1.239846E-17
v -1.123635E-08 0.1818217 0.06896821
v -0.06871831 0.1723334 -1.119563E-08

vn 1.410479E-07 0.4051671 -0.9142427
vn 0.2864964 0.2864963 -0.9142427
vn 1.245257E-07 0.4051671 -0.9142427
vn 0.2864966 0.2864961 -0.9142427
vn 0.4051678 0 -0.9142424
vn 0.405168 1.253759E-07 -0.9142423
vn 0.2864968 -0.2864962 -0.9142427
vn 0.2864967 -0.2864963 -0.9142426
vn 1.126424E-07 -0.4051678 -0.9142423
vn 1.307519E-07 -0.4051679 -0.9142423
vn 0.8068853 0.5907081 1.285369E-07
vn 1 0 1.471888E-07
vn 1 0 1.471888E-07
vn 0.7519314 0.6560917 -0.06436455
vn 0.4767557 0.8628116 -0.1681076
vn 0.716242 0.6978521 1.338448E-07
vn 0 0.9879009 -0.1550871
vn 0 1 9.099976E-07
vn 0.7071068 -0.7071068 1.040782E-07
vn 0.7071068 -0.7071068 0
vn 0 -1 0
vn 0 -1 -1.471887E-07
vn 0 -1 -1.306668E-07
vn -0.7071068 -0.7071066 0
vn -0.7071069 -0.7071066 -1.887821E-07
vn 0 -1 0
vn -1 0 -1.306667E-07
vn -1 0 -1.306667E-07
vn -0.7071068 0.7071068 0
vn -0.7071068 0.7071068 0
vn 0 1 1.692112E-07
vn 0 1 0
vn 0.5234468 0.7633536 -0.3785428
vn 0 0.8447938 -0.535092
vn 0 0.8561624 -0.5167069
vn 0.5482004 0.7370187 -0.3953223
vn 0.7637711 0.6454871 1.506181E-07
vn 0.8004717 0.5993706 1.631003E-07
vn 0.314111 0.9284209 -0.1984157
vn 0 1 0
vn 0 0.9579407 -0.2869665
vn 0.4017637 0.9157434 0
vn -1.381094E-07 0.4051671 0.9142427
vn 0.2864963 0.2864964 0.9142427
vn 0.2864964 0.2864963 0.9142427
vn -1.245257E-07 0.4051671 0.9142427
vn 0.4051675 1.120731E-07 0.9142424
vn 0.4051675 1.253759E-07 0.9142424
vn 0.2864966 -0.2864964 0.9142427
vn 0.2864965 -0.2864965 0.9142426
vn -1.097039E-07 -0.4051678 0.9142424
vn -1.307519E-07 -0.4051679 0.9142423
vn 0.8068853 0.5907081 1.285369E-07
vn 1 0 1.471888E-07
vn 0.7519314 0.6560917 0.06436478
vn 1 0 1.471888E-07
vn 0.4767556 0.8628116 0.1681077
vn 0.716242 0.6978521 1.338448E-07
vn 0 0.9879009 0.1550871
vn 0 1 -9.099976E-07
vn 0.7071068 -0.7071068 1.040782E-07
vn 0.7071068 -0.7071068 2.4409E-07
vn 0 -1 0
vn 0 -1 1.471887E-07
vn 0 -1 1.306668E-07
vn -0.7071068 -0.7071066 0
vn 0 -1 0
vn -0.7071068 -0.7071066 0
vn -1 0 -1.306667E-07
vn -1 0 -1.306667E-07
vn -0.7071068 0.7071068 -2.269969E-07
vn -0.7071068 0.7071068 0
vn 0 1 -1.692112E-07
vn 0 1 0
vn 0.5234467 0.7633536 0.3785429
vn 0 0.8447938 0.535092
vn 0.5482004 0.7370187 0.3953224
vn 0 0.8561624 0.5167069
vn 0.7637711 0.6454871 1.506181E-07
vn 0.8004717 0.5993706 1.631003E-07
vn 0.3141109 0.928421 0.1984158
vn 0 0.9579407 0.2869665
vn 0 1 0
vn 0.4017637 0.9157434 0
vn 1.410479E-07 0.4051671 -0.9142427
vn -0.2864963 0.2864964 -0.9142427
vn -0.2864964 0.2864963 -0.9142427
vn 1.245257E-07 0.4051671 -0.9142427
vn -0.4051675 1.120731E-07 -0.9142424
vn -0.4051675 1.253759E-07 -0.9142424
vn -0.2864966 -0.2864964 -0.9142427
vn -0.2864965 -0.2864965 -0.9142426
vn 1.126424E-07 -0.4051678 -0.9142423
vn 1.307519E-07 -0.4051679 -0.9142423
vn -0.8068853 0.5907081 -1.270763E-07
vn -1 0 -1.471888E-07
vn -0.7519314 0.6560917 -0.06436478
vn -1 0 -1.471888E-07
vn -0.4767556 0.8628116 -0.1681077
vn -0.716242 0.6978521 -1.338448E-07
vn 0 0.9879009 -0.1550871
vn 0 1 9.099976E-07
vn -0.7071068 -0.7071068 -1.040782E-07
vn -0.7071068 -0.7071068 -2.4409E-07
vn 0 -1 0
vn 0 -1 -1.471887E-07
vn 0 -1 -1.306668E-07
vn 0.7071068 -0.7071066 0
vn 0 -1 0
vn 0.7071068 -0.7071066 0
vn 1 0 1.306667E-07
vn 1 0 1.306667E-07
vn 0.7071068 0.7071068 2.269969E-07
vn 0.7071068 0.7071068 0
vn 0 1 1.692112E-07
vn 0 1 0
vn -0.5234467 0.7633536 -0.3785429
vn 0 0.8447938 -0.535092
vn -0.5482004 0.7370187 -0.3953224
vn 0 0.8561624 -0.5167069
vn -0.7637711 0.6454872 -1.506181E-07
vn -0.8004717 0.5993706 -1.631003E-07
vn -0.3141109 0.928421 -0.1984158
vn 0 0.9579407 -0.2869665
vn 0 1 0
vn -0.4017637 0.9157434 0
vn -1.381094E-07 0.4051671 0.9142427
vn -0.2864964 0.2864963 0.9142427
vn -1.245257E-07 0.4051671 0.9142427
vn -0.2864966 0.2864961 0.9142427
vn -0.4051678 0 0.9142424
vn -0.405168 1.253759E-07 0.9142423
vn -0.2864968 -0.2864962 0.9142427
vn -0.2864967 -0.2864963 0.9142426
vn -1.097039E-07 -0.4051678 0.9142424
vn -1.307519E-07 -0.4051679 0.9142423
vn -0.8068853 0.5907081 -1.270763E-07
vn -1 0 -1.471888E-07
vn -1 0 -1.471888E-07
vn -0.7519314 0.6560917 0.06436455
vn -0.4767557 0.8628116 0.1681076
vn -0.716242 0.6978521 -1.338448E-07
vn 0 0.9879009 0.1550871
vn 0 1 -9.099976E-07
vn -0.7071068 -0.7071068 -1.040782E-07
vn -0.7071068 -0.7071068 0
vn 0 -1 0
vn 0 -1 1.471887E-07
vn 0 -1 1.306668E-07
vn 0.7071068 -0.7071066 0
vn 0.7071069 -0.7071066 1.887821E-07
vn 0 -1 0
vn 1 0 1.306667E-07
vn 1 0 1.306667E-07
vn 0.7071068 0.7071068 0
vn 0.7071068 0.7071068 0
vn 0 1 -1.692112E-07
vn 0 1 0
vn -0.5234468 0.7633536 0.3785428
vn 0 0.8447938 0.535092
vn 0 0.8561624 0.5167069
vn -0.5482004 0.7370187 0.3953223
vn -0.7637711 0.6454872 -1.506181E-07
vn -0.8004717 0.5993706 -1.631003E-07
vn -0.314111 0.9284209 0.1984157
vn 0 1 0
vn 0 0.9579407 0.2869665
vn -0.4017637 0.9157434 0

vt 0.2659243 0.828052
vt 0.3291354 0.6287886
vt 0.3286667 0.8281861
vt 0.2659382 0.6287379
vt 0.3292575 0.4294203
vt 0.2659439 0.4293947
vt 0.2659445 0.2295897
vt 0.3292922 0.2292606
vt 0.2659379 0.02850461
vt 0.3290328 0.02796239
vt 0.7505425 0.2458441
vt 0.9726191 0.4826474
vt 0.7505416 0.4835513
vt 0.9726247 0.2459098
vt 0.8741546 0.1123042
vt 0.7505434 0.156476
vt 0.9726402 0.009838223
vt 0.9345444 0.009690285
vt 0.7505504 0.7206757
vt 0.9726643 0.7196311
vt 0.7505743 0.9569327
vt 0.9727888 0.9560626
vt 0.2659243 0.828052
vt 0.01728338 0.6286047
vt 0.2659382 0.6287379
vt 0.01700965 0.827934
vt 0.01742768 0.4292941
vt 0.2659439 0.4293947
vt 0.2659445 0.2295897
vt 0.01742887 0.2300689
vt 0.2659379 0.02850461
vt 0.01732048 0.0287357
vt 0.6142687 0.3250181
vt 0.5979667 0.1342265
vt 0.7202317 0.1633793
vt 0.5328935 0.2503447
vt 0.4147865 0.4145717
vt 0.3991366 0.3118762
vt 0.5328935 0.2503447
vt 0.402353 0.1081271
vt 0.5979667 0.1342265
vt 0.3991366 0.3118762
vt 0.2659243 0.828052
vt 0.3291354 0.6287886
vt 0.2659382 0.6287379
vt 0.3286667 0.8281861
vt 0.3292575 0.4294203
vt 0.2659439 0.4293947
vt 0.2659445 0.2295897
vt 0.3292922 0.2292606
vt 0.2659379 0.02850461
vt 0.3290328 0.02796239
vt 0.7505425 0.2458441
vt 0.9726191 0.4826474
vt 0.9726247 0.2459098
vt 0.7505416 0.4835513
vt 0.8741546 0.1123042
vt 0.7505434 0.156476
vt 0.9726402 0.009838223
vt 0.9345444 0.009690285
vt 0.7505504 0.7206757
vt 0.9726643 0.7196311
vt 0.7505743 0.9569327
vt 0.9727888 0.9560626
vt 0.2659243 0.828052
vt 0.01728338 0.6286047
vt 0.01700965 0.827934
vt 0.2659382 0.6287379
vt 0.01742768 0.4292941
vt 0.2659439 0.4293947
vt 0.2659445 0.2295897
vt 0.01742887 0.2300689
vt 0.2659379 0.02850461
vt 0.01732048 0.0287357
vt 0.6142687 0.3250181
vt 0.5979667 0.1342265
vt 0.5328935 0.2503447
vt 0.7202317 0.1633793
vt 0.4147865 0.4145717
vt 0.3991366 0.3118762
vt 0.5328935 0.2503447
vt 0.5979667 0.1342265
vt 0.402353 0.1081271
vt 0.3991366 0.3118762
vt 0.2659243 0.828052
vt 0.3291354 0.6287886
vt 0.2659382 0.6287379
vt 0.3286667 0.8281861
vt 0.3292575 0.4294203
vt 0.2659439 0.4293947
vt 0.2659445 0.2295897
vt 0.3292922 0.2292606
vt 0.2659379 0.02850461
vt 0.3290328 0.02796239
vt 0.7505425 0.2458441
vt 0.9726191 0.4826474
vt 0.9726247 0.2459098
vt 0.7505416 0.4835513
vt 0.8741546 0.1123042
vt 0.7505434 0.156476
vt 0.9726402 0.009838223
vt 0.9345444 0.009690285
vt 0.7505504 0.7206757
vt 0.9726643 0.7196311
vt 0.7505743 0.9569327
vt 0.9727888 0.9560626
vt 0.2659243 0.828052
vt 0.01728338 0.6286047
vt 0.01700965 0.827934
vt 0.2659382 0.6287379
vt 0.01742768 0.4292941
vt 0.2659439 0.4293947
vt 0.2659445 0.2295897
vt 0.01742887 0.2300689
vt 0.2659379 0.02850461
vt 0.01732048 0.0287357
vt 0.6142687 0.3250181
vt 0.5979667 0.1342265
vt 0.5328935 0.2503447
vt 0.7202317 0.1633793
vt 0.4147865 0.4145717
vt 0.3991366 0.3118762
vt 0.5328935 0.2503447
vt 0.5979667 0.1342265
vt 0.402353 0.1081271
vt 0.3991366 0.3118762
vt 0.2659243 0.828052
vt 0.3291354 0.6287886
vt 0.3286667 0.8281861
vt 0.2659382 0.6287379
vt 0.3292575 0.4294203
vt 0.2659439 0.4293947
vt 0.2659445 0.2295897
vt 0.3292922 0.2292606
vt 0.2659379 0.02850461
vt 0.3290328 0.02796239
vt 0.7505425 0.2458441
vt 0.9726191 0.4826474
vt 0.7505416 0.4835513
vt 0.9726247 0.2459098
vt 0.8741546 0.1123042
vt 0.7505434 0.156476
vt 0.9726402 0.009838223
vt 0.9345444 0.009690285
vt 0.7505504 0.7206757
vt 0.9726643 0.7196311
vt 0.7505743 0.9569327
vt 0.9727888 0.9560626
vt 0.2659243 0.828052
vt 0.01728338 0.6286047
vt 0.2659382 0.6287379
vt 0.01700965 0.827934
vt 0.01742768 0.4292941
vt 0.2659439 0.4293947
vt 0.2659445 0.2295897
vt 0.01742887 0.2300689
vt 0.2659379 0.02850461
vt 0.01732048 0.0287357
vt 0.6142687 0.3250181
vt 0.5979667 0.1342265
vt 0.7202317 0.1633793
vt 0.5328935 0.2503447
vt 0.4147865 0.4145717
vt 0.3991366 0.3118762
vt 0.5328935 0.2503447
vt 0.402353 0.1081271
vt 0.5979667 0.1342265
vt 0.3991366 0.3118762

g Tube02.obj
usemtl Tube02
usemap Tube02
f 1/1/1 3/3/3 2/2/2
f 2/2/2 4/4/4 1/1/1
f 4/4/4 2/2/2 5/5/5
f 5/5/5 6/6/6 4/4/4
f 7/7/7 6/6/6 5/5/5
f 5/5/5 8/8/8 7/7/7
f 9/9/9 7/7/7 8/8/8
f 8/8/8 10/10/10 9/9/9
f 11/11/11 13/13/13 12/12/12
f 12/12/12 14/14/14 11/11/11
f 11/11/11 14/14/14 15/15/15
f 15/15/15 16/16/16 11/11/11
f 15/15/15 14/14/14 17/17/17
f 17/17/17 18/18/18 15/15/15
f 12/12/12 13/13/13 19/19/19
f 19/19/19 20/20/20 12/12/12
f 20/20/20 19/19/19 21/21/21
f 21/21/21 22/22/22 20/20/20
f 23/23/23 25/25/25 24/24/24
f 24/24/24 26/26/26 23/23/23
f 27/27/27 24/24/24 25/25/25
f 25/25/25 28/28/28 27/27/27
f 27/27/27 28/28/28 29/29/29
f 29/29/29 30/30/30 27/27/27
f 30/30/30 29/29/29 31/31/31
f 31/31/31 32/32/32 30/30/30
f 33/33/33 35/35/35 34/34/34
f 34/34/34 36/36/36 33/33/33
f 37/37/37 33/33/33 36/36/36
f 36/36/36 38/38/38 37/37/37
f 39/39/39 41/41/41 40/40/40
f 42/42/42 39/39/39 40/40/40
f 43/43/43 45/45/45 44/44/44
f 44/44/44 46/46/46 43/43/43
f 47/47/47 44/44/44 45/45/45
f 45/45/45 48/48/48 47/47/47
f 47/47/47 48/48/48 49/49/49
f 49/49/49 50/50/50 47/47/47
f 50/50/50 49/49/49 51/51/51
f 51/51/51 52/52/52 50/50/50
f 53/53/53 55/55/55 54/54/54
f 54/54/54 56/56/56 53/53/53
f 57/57/57 55/55/55 53/53/53
f 53/53/53 58/58/58 57/57/57
f 59/59/59 55/55/55 57/57/57
f 57/57/57 60/60/60 59/59/59
f 61/61/61 56/56/56 54/54/54
f 54/54/54 62/62/62 61/61/61
f 63/63/63 61/61/61 62/62/62
f 62/62/62 64/64/64 63/63/63
f 65/65/65 67/67/67 66/66/66
f 66/66/66 68/68/68 65/65/65
f 68/68/68 66/66/66 69/69/69
f 69/69/69 70/70/70 68/68/68
f 71/71/71 70/70/70 69/69/69
f 69/69/69 72/72/72 71/71/71
f 73/73/73 71/71/71 72/72/72
f 72/72/72 74/74/74 73/73/73
f 75/75/75 77/77/77 76/76/76
f 76/76/76 78/78/78 75/75/75
f 77/77/77 75/75/75 79/79/79
f 79/79/79 80/80/80 77/77/77
f 81/81/81 83/83/83 82/82/82
f 84/84/84 83/83/83 81/81/81
f 85/85/85 87/87/87 86/86/86
f 86/86/86 88/88/88 85/85/85
f 89/89/89 86/86/86 87/87/87
f 87/87/87 90/90/90 89/89/89
f 89/89/89 90/90/90 91/91/91
f 91/91/91 92/92/92 89/89/89
f 92/92/92 91/91/91 93/93/93
f 93/93/93 94/94/94 92/92/92
f 95/95/95 97/97/97 96/96/96
f 96/96/96 98/98/98 95/95/95
f 99/99/99 97/97/97 95/95/95
f 95/95/95 100/100/100 99/99/99
f 101/101/101 97/97/97 99/99/99
f 99/99/99 102/102/102 101/101/101
f 103/103/103 98/98/98 96/96/96
f 96/96/96 104/104/104 103/103/103
f 105/105/105 103/103/103 104/104/104
f 104/104/104 106/106/106 105/105/105
f 107/107/107 109/109/109 108/108/108
f 108/108/108 110/110/110 107/107/107
f 110/110/110 108/108/108 111/111/111
f 111/111/111 112/112/112 110/110/110
f 113/113/113 112/112/112 111/111/111
f 111/111/111 114/114/114 113/113/113
f 115/115/115 113/113/113 114/114/114
f 114/114/114 116/116/116 115/115/115
f 117/117/117 119/119/119 118/118/118
f 118/118/118 120/120/120 117/117/117
f 119/119/119 117/117/117 121/121/121
f 121/121/121 122/122/122 119/119/119
f 123/123/123 125/125/125 124/124/124
f 126/126/126 125/125/125 123/123/123
f 127/127/127 129/129/129 128/128/128
f 128/128/128 130/130/130 127/127/127
f 130/130/130 128/128/128 131/131/131
f 131/131/131 132/132/132 130/130/130
f 133/133/133 132/132/132 131/131/131
f 131/131/131 134/134/134 133/133/133
f 135/135/135 133/133/133 134/134/134
f 134/134/134 136/136/136 135/135/135
f 137/137/137 139/139/139 138/138/138
f 138/138/138 140/140/140 137/137/137
f 137/137/137 140/140/140 141/141/141
f 141/141/141 142/142/142 137/137/137
f 141/141/141 140/140/140 143/143/143
f 143/143/143 144/144/144 141/141/141
f 138/138/138 139/139/139 145/145/145
f 145/145/145 146/146/146 138/138/138
f 146/146/146 145/145/145 147/147/147
f 147/147/147 148/148/148 146/146/146
f 149/149/149 151/151/151 150/150/150
f 150/150/150 152/152/152 149/149/149
f 153/153/153 150/150/150 151/151/151
f 151/151/151 154/154/154 153/153/153
f 153/153/153 154/154/154 155/155/155
f 155/155/155 156/156/156 153/153/153
f 156/156/156 155/155/155 157/157/157
f 157/157/157 158/158/158 156/156/156
f 159/159/159 161/161/161 160/160/160
f 160/160/160 162/162/162 159/159/159
f 163/163/163 159/159/159 162/162/162
f 162/162/162 164/164/164 163/163/163
f 165/165/165 167/167/167 166/166/166
f 168/168/168 165/165/165 166/166/166
