#Tube02.obj

v 2.37816E-08 0.1209155 -0.1459704
v 0.1274101 0.105113 -0.1295852
v 2.111211E-08 0.157888 -0.1295852
v 0.1012666 0.07896945 -0.1459704
v 0.1801851 -0.02229708 -0.1295852
v 0.1432125 -0.02229708 -0.1459704
v 0.1012666 -0.1235636 -0.1459704
v 0.1274101 -0.1497072 -0.1295852
v 2.378161E-08 -0.1655096 -0.1459705
v 2.111211E-08 -0.2024822 -0.1295852
v -0.1274101 0.105113 -0.1295852
v -0.1012665 0.07896945 -0.1459704
v -0.1801851 -0.02229708 -0.1295852
v -0.1432125 -0.02229708 -0.1459705
v -0.1274101 -0.1497072 -0.1295853
v -0.1012665 -0.1235636 -0.1459705
v 0.1274101 0.105113 2.075774E-08
v 0.1801851 -0.02229708 -0.1295852
v 0.1801851 -0.0222971 2.935588E-08
v 0.1274101 0.105113 -0.1295852
v 0.06057536 0.1519739 -0.07373537
v 0.09130143 0.1421732 1.487489E-08
v 2.111211E-08 0.157888 -0.1295852
v 1.76973E-08 0.157888 -0.1086253
v 0.1274101 -0.1497072 2.075774E-08
v 0.1274101 -0.1497072 -0.1295852
v 0 -0.2024822 -1.239846E-17
v 2.111211E-08 -0.2024822 -0.1295852
v 0.1801851 -0.02229708 0.1295852
v 0.1274101 0.105113 0.1295852
v 0.06057533 0.1519739 0.07373539
v -2.111211E-08 0.157888 0.1295852
v -1.76973E-08 0.157888 0.1086253
v 0.1274101 -0.1497072 0.1295853
v -2.111211E-08 -0.2024822 0.1295852
v -0.06057533 0.1519739 -0.07373539
v -0.1274101 0.105113 -0.1295852
v -0.1274101 0.105113 -2.075774E-08
v -0.1801851 -0.02229708 -0.1295852
v -0.1801851 -0.0222971 -2.935588E-08
v -0.09130143 0.1421732 -1.487489E-08
v -0.1274101 -0.1497072 -2.075774E-08
v -0.1274101 -0.1497072 -0.1295853
v -0.1801851 -0.02229708 0.1295852
v -0.1274101 0.105113 0.1295852
v -0.06057536 0.1519739 0.07373537
v -0.1274101 -0.1497072 0.1295852
v 2.37816E-08 0.1209155 -0.1459704
v 0.1012665 0.07896943 1.649842E-08
v 0.1012666 0.07896945 -0.1459704
v 0 0.1209154 7.403936E-18
v 0.1432125 -0.0222971 2.333228E-08
v 0.1432125 -0.02229708 -0.1459704
v 0.1012666 -0.1235636 -0.1459704
v 0.1012665 -0.1235636 1.649842E-08
v 2.378161E-08 -0.1655096 -0.1459705
v 0 -0.1655096 -1.013454E-17
v -2.37816E-08 0.1209155 0.1459704
v 0.1012665 0.07896945 0.1459704
v 0.1432125 -0.02229708 0.1459705
v -2.378161E-08 -0.1655096 0.1459705
v 0.1012665 -0.1235636 0.1459705
v -0.1012665 0.07896943 -1.649842E-08
v -0.1012665 0.07896945 -0.1459704
v -0.1432125 -0.0222971 -2.333228E-08
v -0.1432125 -0.02229708 -0.1459705
v -0.1012665 -0.1235636 -1.649842E-08
v -0.1012665 -0.1235636 -0.1459705
v -0.1012666 0.07896945 0.1459704
v -0.1432125 -0.02229708 0.1459704
v -0.1012666 -0.1235636 0.1459704
v 0.06057536 0.1519739 -0.07373537
v 1.123635E-08 0.1818217 -0.06896821
v 1.76973E-08 0.157888 -0.1086253
v 0.04228019 0.1779351 -0.04792653
v 0.09130143 0.1421732 1.487489E-08
v 0.06871831 0.1723334 1.119563E-08
v 0.04228017 0.1779351 0.04792653
v 0.06057533 0.1519739 0.07373539
v -1.123635E-08 0.1818217 0.06896821
v -1.76973E-08 0.157888 0.1086253
v -0.06057533 0.1519739 -0.07373539
v -0.04228017 0.1779351 -0.04792653
v -0.09130143 0.1421732 -1.487489E-08
v -0.06871831 0.1723334 -1.119563E-08
v -0.06057536 0.1519739 0.07373537
v -0.04228019 0.1779351 0.04792653
v 0.04228019 0.1779351 -0.04792653
v 0 0.2024822 1.239846E-17
v 1.123635E-08 0.1818217 -0.06896821
v 0.06871831 0.1723334 1.119563E-08
v 0.04228017 0.1779351 0.04792653
v -1.123635E-08 0.1818217 0.06896821
v -0.04228017 0.1779351 -0.04792653
v -0.06871831 0.1723334 -1.119563E-08
v -0.04228019 0.1779351 0.04792653
v -2.37816E-08 0.1209155 0.1459704
v 0.1274101 0.105113 0.1295852
v 0.1012665 0.07896945 0.1459704
v -2.111211E-08 0.157888 0.1295852
v 0.1801851 -0.02229708 0.1295852
v 0.1432125 -0.02229708 0.1459705
v 0.1012665 -0.1235636 0.1459705
v 0.1274101 -0.1497072 0.1295853
v -2.378161E-08 -0.1655096 0.1459705
v -2.111211E-08 -0.2024822 0.1295852
v -0.1274101 0.105113 0.1295852
v -0.1012666 0.07896945 0.1459704
v -0.1801851 -0.02229708 0.1295852
v -0.1432125 -0.02229708 0.1459704
v -0.1274101 -0.1497072 0.1295852
v -0.1012666 -0.1235636 0.1459704

vn 1.410479E-07 0.4051671 -0.9142427
vn 0.2864964 0.2864963 -0.9142427
vn 1.245257E-07 0.4051671 -0.9142427
vn 0.2864966 0.2864961 -0.9142427
vn 0.4051678 0 -0.9142424
vn 0.405168 1.253759E-07 -0.9142423
vn 0.2864968 -0.2864962 -0.9142427
vn 0.2864967 -0.2864963 -0.9142426
vn 1.126424E-07 -0.4051678 -0.9142423
vn 1.307519E-07 -0.4051679 -0.9142423
vn -0.2864963 0.2864964 -0.9142427
vn -0.2864964 0.2864963 -0.9142427
vn -0.4051675 1.120731E-07 -0.9142424
vn -0.4051675 1.253759E-07 -0.9142424
vn -0.2864965 -0.2864965 -0.9142426
vn -0.2864966 -0.2864964 -0.9142427
vn 0.8068853 0.5907081 1.285369E-07
vn 1 0 1.471888E-07
vn 1 0 1.471888E-07
vn 0.7519314 0.6560917 -0.06436455
vn 0.4767557 0.8628116 -0.1681076
vn 0.716242 0.6978521 1.338448E-07
vn 0 0.9879009 -0.1550871
vn 0 1 9.099976E-07
vn 0.7071068 -0.7071068 1.040782E-07
vn 0.7071068 -0.7071068 0
vn 0 -1 0
vn 0 -1 -1.471887E-07
vn 1 0 1.471888E-07
vn 0.7519314 0.6560917 0.06436478
vn 0.4767556 0.8628116 0.1681077
vn 0 0.9879009 0.1550871
vn 0 1 -9.099976E-07
vn 0.7071068 -0.7071068 2.4409E-07
vn 0 -1 1.471887E-07
vn -0.4767556 0.8628116 -0.1681077
vn -0.7519314 0.6560917 -0.06436478
vn -0.8068853 0.5907081 -1.270763E-07
vn -1 0 -1.471888E-07
vn -1 0 -1.471888E-07
vn -0.716242 0.6978521 -1.338448E-07
vn -0.7071068 -0.7071068 -1.040782E-07
vn -0.7071068 -0.7071068 -2.4409E-07
vn -1 0 -1.471888E-07
vn -0.7519314 0.6560917 0.06436455
vn -0.4767557 0.8628116 0.1681076
vn -0.7071068 -0.7071068 0
vn 0 -1 -1.306668E-07
vn -0.7071068 -0.7071066 0
vn -0.7071069 -0.7071066 -1.887821E-07
vn 0 -1 0
vn -1 0 -1.306667E-07
vn -1 0 -1.306667E-07
vn -0.7071068 0.7071068 0
vn -0.7071068 0.7071068 0
vn 0 1 1.692112E-07
vn 0 1 0
vn 0 -1 1.306668E-07
vn -0.7071068 -0.7071066 0
vn -1 0 -1.306667E-07
vn 0 1 -1.692112E-07
vn -0.7071068 0.7071068 -2.269969E-07
vn 0.7071068 -0.7071066 0
vn 0.7071068 -0.7071066 0
vn 1 0 1.306667E-07
vn 1 0 1.306667E-07
vn 0.7071068 0.7071068 0
vn 0.7071068 0.7071068 2.269969E-07
vn 0.7071069 -0.7071066 1.887821E-07
vn 1 0 1.306667E-07
vn 0.7071068 0.7071068 0
vn 0.5234468 0.7633536 -0.3785428
vn 0 0.8447938 -0.535092
vn 0 0.8561624 -0.5167069
vn 0.5482004 0.7370187 -0.3953223
vn 0.7637711 0.6454871 1.506181E-07
vn 0.8004717 0.5993706 1.631003E-07
vn 0.5482004 0.7370187 0.3953224
vn 0.5234467 0.7633536 0.3785429
vn 0 0.8447938 0.535092
vn 0 0.8561624 0.5167069
vn -0.5234467 0.7633536 -0.3785429
vn -0.5482004 0.7370187 -0.3953224
vn -0.7637711 0.6454872 -1.506181E-07
vn -0.8004717 0.5993706 -1.631003E-07
vn -0.5234468 0.7633536 0.3785428
vn -0.5482004 0.7370187 0.3953223
vn 0.314111 0.9284209 -0.1984157
vn 0 1 0
vn 0 0.9579407 -0.2869665
vn 0.4017637 0.9157434 0
vn 0.3141109 0.928421 0.1984158
vn 0 0.9579407 0.2869665
vn -0.3141109 0.928421 -0.1984158
vn -0.4017637 0.9157434 0
vn -0.314111 0.9284209 0.1984157
vn -1.381094E-07 0.4051671 0.9142427
vn 0.2864963 0.2864964 0.9142427
vn 0.2864964 0.2864963 0.9142427
vn -1.245257E-07 0.4051671 0.9142427
vn 0.4051675 1.120731E-07 0.9142424
vn 0.4051675 1.253759E-07 0.9142424
vn 0.2864966 -0.2864964 0.9142427
vn 0.2864965 -0.2864965 0.9142426
vn -1.097039E-07 -0.4051678 0.9142424
vn -1.307519E-07 -0.4051679 0.9142423
vn -0.2864964 0.2864963 0.9142427
vn -0.2864966 0.2864961 0.9142427
vn -0.4051678 0 0.9142424
vn -0.405168 1.253759E-07 0.9142423
vn -0.2864967 -0.2864963 0.9142426
vn -0.2864968 -0.2864962 0.9142427

vt 0.2659243 0.828052
vt 0.3291354 0.6287886
vt 0.3286667 0.8281861
vt 0.2659382 0.6287379
vt 0.3292575 0.4294203
vt 0.2659439 0.4293947
vt 0.2659445 0.2295897
vt 0.3292922 0.2292606
vt 0.2659379 0.02850461
vt 0.3290328 0.02796239
vt 0.3291354 0.6287886
vt 0.2659382 0.6287379
vt 0.3292575 0.4294203
vt 0.2659439 0.4293947
vt 0.3292922 0.2292606
vt 0.2659445 0.2295897
vt 0.7505425 0.2458441
vt 0.9726191 0.4826474
vt 0.7505416 0.4835513
vt 0.9726247 0.2459098
vt 0.8741546 0.1123042
vt 0.7505434 0.156476
vt 0.9726402 0.009838223
vt 0.9345444 0.009690285
vt 0.7505504 0.7206757
vt 0.9726643 0.7196311
vt 0.7505743 0.9569327
vt 0.9727888 0.9560626
vt 0.9726191 0.4826474
vt 0.9726247 0.2459098
vt 0.8741546 0.1123042
vt 0.9726402 0.009838223
vt 0.9345444 0.009690285
vt 0.9726643 0.7196311
vt 0.9727888 0.9560626
vt 0.8741546 0.1123042
vt 0.9726247 0.2459098
vt 0.7505425 0.2458441
vt 0.9726191 0.4826474
vt 0.7505416 0.4835513
vt 0.7505434 0.156476
vt 0.7505504 0.7206757
vt 0.9726643 0.7196311
vt 0.9726191 0.4826474
vt 0.9726247 0.2459098
vt 0.8741546 0.1123042
vt 0.9726643 0.7196311
vt 0.2659243 0.828052
vt 0.01728338 0.6286047
vt 0.2659382 0.6287379
vt 0.01700965 0.827934
vt 0.01742768 0.4292941
vt 0.2659439 0.4293947
vt 0.2659445 0.2295897
vt 0.01742887 0.2300689
vt 0.2659379 0.02850461
vt 0.01732048 0.0287357
vt 0.2659243 0.828052
vt 0.2659382 0.6287379
vt 0.2659439 0.4293947
vt 0.2659379 0.02850461
vt 0.2659445 0.2295897
vt 0.01728338 0.6286047
vt 0.2659382 0.6287379
vt 0.01742768 0.4292941
vt 0.2659439 0.4293947
vt 0.01742887 0.2300689
vt 0.2659445 0.2295897
vt 0.2659382 0.6287379
vt 0.2659439 0.4293947
vt 0.2659445 0.2295897
vt 0.6142687 0.3250181
vt 0.5979667 0.1342265
vt 0.7202317 0.1633793
vt 0.5328935 0.2503447
vt 0.4147865 0.4145717
vt 0.3991366 0.3118762
vt 0.5328935 0.2503447
vt 0.6142687 0.3250181
vt 0.5979667 0.1342265
vt 0.7202317 0.1633793
vt 0.6142687 0.3250181
vt 0.5328935 0.2503447
vt 0.4147865 0.4145717
vt 0.3991366 0.3118762
vt 0.6142687 0.3250181
vt 0.5328935 0.2503447
vt 0.5328935 0.2503447
vt 0.402353 0.1081271
vt 0.5979667 0.1342265
vt 0.3991366 0.3118762
vt 0.5328935 0.2503447
vt 0.5979667 0.1342265
vt 0.5328935 0.2503447
vt 0.3991366 0.3118762
vt 0.5328935 0.2503447
vt 0.2659243 0.828052
vt 0.3291354 0.6287886
vt 0.2659382 0.6287379
vt 0.3286667 0.8281861
vt 0.3292575 0.4294203
vt 0.2659439 0.4293947
vt 0.2659445 0.2295897
vt 0.3292922 0.2292606
vt 0.2659379 0.02850461
vt 0.3290328 0.02796239
vt 0.3291354 0.6287886
vt 0.2659382 0.6287379
vt 0.3292575 0.4294203
vt 0.2659439 0.4293947
vt 0.3292922 0.2292606
vt 0.2659445 0.2295897

g Tube02.obj
usemtl Tube02
usemap Tube02
f 1/1/1 3/3/3 2/2/2
f 2/2/2 4/4/4 1/1/1
f 4/4/4 2/2/2 5/5/5
f 5/5/5 6/6/6 4/4/4
f 7/7/7 6/6/6 5/5/5
f 5/5/5 8/8/8 7/7/7
f 9/9/9 7/7/7 8/8/8
f 8/8/8 10/10/10 9/9/9
f 11/11/11 3/3/3 1/1/1
f 1/1/1 12/12/12 11/11/11
f 13/13/13 11/11/11 12/12/12
f 12/12/12 14/14/14 13/13/13
f 9/9/9 10/10/10 15/15/15
f 15/15/15 16/16/16 9/9/9
f 16/16/16 15/15/15 13/13/13
f 13/13/13 14/14/14 16/16/16
f 17/17/17 19/19/19 18/18/18
f 18/18/18 20/20/20 17/17/17
f 17/17/17 20/20/20 21/21/21
f 21/21/21 22/22/22 17/17/17
f 21/21/21 20/20/20 23/23/23
f 23/23/23 24/24/24 21/21/21
f 18/18/18 19/19/19 25/25/25
f 25/25/25 26/26/26 18/18/18
f 26/26/26 25/25/25 27/27/27
f 27/27/27 28/28/28 26/26/26
f 29/29/29 19/19/19 17/17/17
f 25/25/25 19/19/19 29/29/29
f 17/17/17 30/30/30 29/29/29
f 17/17/17 22/22/22 31/31/31
f 31/31/31 30/30/30 17/17/17
f 32/32/32 30/30/30 31/31/31
f 31/31/31 33/33/33 32/32/32
f 29/29/29 34/34/34 25/25/25
f 27/27/27 25/25/25 34/34/34
f 34/34/34 35/35/35 27/27/27
f 36/36/36 24/24/24 23/23/23
f 23/23/23 37/37/37 36/36/36
f 36/36/36 37/37/37 38/38/38
f 38/38/38 37/37/37 39/39/39
f 39/39/39 40/40/40 38/38/38
f 38/38/38 41/41/41 36/36/36
f 42/42/42 40/40/40 39/39/39
f 39/39/39 43/43/43 42/42/42
f 27/27/27 42/42/42 43/43/43
f 43/43/43 28/28/28 27/27/27
f 38/38/38 40/40/40 44/44/44
f 44/44/44 40/40/40 42/42/42
f 44/44/44 45/45/45 38/38/38
f 38/38/38 45/45/45 46/46/46
f 46/46/46 41/41/41 38/38/38
f 32/32/32 33/33/33 46/46/46
f 46/46/46 45/45/45 32/32/32
f 42/42/42 47/47/47 44/44/44
f 47/47/47 42/42/42 27/27/27
f 27/27/27 35/35/35 47/47/47
f 48/48/48 50/50/50 49/49/49
f 49/49/49 51/51/51 48/48/48
f 52/52/52 49/49/49 50/50/50
f 50/50/50 53/53/53 52/52/52
f 52/52/52 53/53/53 54/54/54
f 54/54/54 55/55/55 52/52/52
f 55/55/55 54/54/54 56/56/56
f 56/56/56 57/57/57 55/55/55
f 58/58/58 51/51/51 49/49/49
f 49/49/49 59/59/59 58/58/58
f 59/59/59 49/49/49 52/52/52
f 52/52/52 60/60/60 59/59/59
f 55/55/55 57/57/57 61/61/61
f 61/61/61 62/62/62 55/55/55
f 62/62/62 60/60/60 52/52/52
f 52/52/52 55/55/55 62/62/62
f 48/48/48 51/51/51 63/63/63
f 63/63/63 51/51/51 58/58/58
f 63/63/63 64/64/64 48/48/48
f 64/64/64 63/63/63 65/65/65
f 65/65/65 66/66/66 64/64/64
f 67/67/67 57/57/57 56/56/56
f 61/61/61 57/57/57 67/67/67
f 56/56/56 68/68/68 67/67/67
f 68/68/68 66/66/66 65/65/65
f 65/65/65 67/67/67 68/68/68
f 58/58/58 69/69/69 63/63/63
f 65/65/65 63/63/63 69/69/69
f 69/69/69 70/70/70 65/65/65
f 67/67/67 71/71/71 61/61/61
f 71/71/71 67/67/67 65/65/65
f 65/65/65 70/70/70 71/71/71
f 72/72/72 74/74/74 73/73/73
f 73/73/73 75/75/75 72/72/72
f 76/76/76 72/72/72 75/75/75
f 75/75/75 77/77/77 76/76/76
f 76/76/76 77/77/77 78/78/78
f 78/78/78 79/79/79 76/76/76
f 79/79/79 78/78/78 80/80/80
f 80/80/80 81/81/81 79/79/79
f 73/73/73 74/74/74 82/82/82
f 82/82/82 83/83/83 73/73/73
f 83/83/83 82/82/82 84/84/84
f 84/84/84 85/85/85 83/83/83
f 86/86/86 81/81/81 80/80/80
f 80/80/80 87/87/87 86/86/86
f 84/84/84 86/86/86 87/87/87
f 87/87/87 85/85/85 84/84/84
f 88/88/88 90/90/90 89/89/89
f 91/91/91 88/88/88 89/89/89
f 91/91/91 89/89/89 92/92/92
f 92/92/92 89/89/89 93/93/93
f 94/94/94 89/89/89 90/90/90
f 95/95/95 89/89/89 94/94/94
f 96/96/96 93/93/93 89/89/89
f 95/95/95 96/96/96 89/89/89
f 97/97/97 99/99/99 98/98/98
f 98/98/98 100/100/100 97/97/97
f 101/101/101 98/98/98 99/99/99
f 99/99/99 102/102/102 101/101/101
f 101/101/101 102/102/102 103/103/103
f 103/103/103 104/104/104 101/101/101
f 104/104/104 103/103/103 105/105/105
f 105/105/105 106/106/106 104/104/104
f 97/97/97 100/100/100 107/107/107
f 107/107/107 108/108/108 97/97/97
f 108/108/108 107/107/107 109/109/109
f 109/109/109 110/110/110 108/108/108
f 111/111/111 106/106/106 105/105/105
f 105/105/105 112/112/112 111/111/111
f 112/112/112 110/110/110 109/109/109
f 109/109/109 111/111/111 112/112/112
