#Tube08.obj

v -0.2105921 -1.080157E-08 0.01339078
v -0.1489111 0.1489111 -0.02287028
v -0.1644937 0.1357609 0.05562441
v -0.2105921 -2.573369E-08 0.09785802
v -0.1380451 0.1881247 0.05562441
v -0.1220125 0.2026029 0.1118703
v -0.07588527 0.2552812 0.05562441
v -0.1220125 0.2026029 -0.000621473
v -0.08120846 0.2256432 -0.0139623
v -0.08120842 0.2256432 0.1252111
v 9.06237E-09 0.2739725 0.05562442
v 2.255696E-08 0.242011 0.1384536
v -4.432225E-09 0.242011 -0.0272048
v -0.1489111 0.1489111 0.1341191
v -0.0820646 0.1919409 0.1531074
v 2.681491E-08 0.2105921 0.1645887
v -0.08206464 0.1919409 -0.04185861
v -8.690174E-09 0.2105921 -0.05333991
v -0.1489111 -0.1489111 0.08211788
v -0.2105921 -1.080157E-08 0.01339078
v -0.1489111 -0.1489111 0.02913085
v 1.218315E-08 -0.2105921 0.07477966
v 5.941556E-09 -0.2105921 0.03646901
v -0.2105921 -2.573369E-08 0.09785802
v -0.1183557 0.1183557 0.1341191
v -0.1673802 -2.384484E-08 0.097858
v -0.1489111 0.1489111 0.1341191
v -0.0820646 0.1919409 0.1531074
v -0.06678689 0.1550573 0.1531074
v 2.68149E-08 0.1673802 0.1645887
v 2.681491E-08 0.2105921 0.1645887
v -0.1489111 -0.1489111 0.08211788
v -0.1183557 -0.1183557 0.08211787
v 1.218315E-08 -0.2105921 0.07477966
v 1.218315E-08 -0.2105921 0.07477966
v 1.218315E-08 -0.1673803 0.07477967
v -0.1489111 -0.1489111 0.08211788
v -0.2105921 -2.573369E-08 0.09785802
v -0.1673802 -2.384484E-08 0.097858
v -0.1183557 0.1183557 -0.02287029
v -0.1673803 -8.912725E-09 0.01339077
v -0.1183557 0.1183557 0.1341191
v -0.06678689 0.1550573 0.1531074
v -0.06678693 0.1550573 -0.04185863
v -0.1183557 -0.1183557 0.08211787
v -0.1183557 -0.1183557 0.02913085
v 1.218315E-08 -0.1673803 0.07477967
v 5.941557E-09 -0.1673803 0.03646901
v -8.690176E-09 0.1673803 -0.05333991
v 2.68149E-08 0.1673802 0.1645887
v -0.1673803 -8.912725E-09 0.01339077
v -0.1489111 0.1489111 -0.02287028
v -0.2105921 -1.080157E-08 0.01339078
v -0.1183557 0.1183557 -0.02287029
v -0.08206464 0.1919409 -0.04185861
v -0.06678693 0.1550573 -0.04185863
v -8.690176E-09 0.1673803 -0.05333991
v -0.2105921 -1.080157E-08 0.01339078
v -0.1183557 -0.1183557 0.02913085
v -0.1489111 -0.1489111 0.02913085
v 5.941557E-09 -0.1673803 0.03646901
v 5.941556E-09 -0.2105921 0.03646901
v -8.690176E-09 0.1673803 -0.05333991
v -8.690174E-09 0.2105921 -0.05333991
v 0.2105921 -1.080157E-08 0.01339071
v 0.1644937 0.1357609 0.05562436
v 0.1489111 0.1489111 -0.02287033
v 0.2105921 -2.573369E-08 0.09785795
v 0.1380452 0.1881247 0.05562436
v 0.1220125 0.2026029 0.1118703
v 0.07588529 0.2552812 0.05562439
v 0.1220125 0.2026029 -0.0006215128
v 0.08120846 0.2256432 -0.01396233
v 0.08120847 0.2256432 0.1252111
v 9.06237E-09 0.2739725 0.05562442
v 2.255696E-08 0.242011 0.1384536
v -4.432225E-09 0.242011 -0.0272048
v 0.1489111 0.1489111 0.1341191
v 0.08206464 0.1919409 0.1531074
v 2.681491E-08 0.2105921 0.1645887
v 0.08206462 0.1919409 -0.04185864
v -8.690174E-09 0.2105921 -0.05333991
v 0.2105921 -1.080157E-08 0.01339071
v 0.1489111 -0.1489111 0.08211783
v 0.1489111 -0.1489111 0.02913081
v 1.218315E-08 -0.2105921 0.07477966
v 5.941556E-09 -0.2105921 0.03646901
v 0.2105921 -2.573369E-08 0.09785795
v 0.1183557 0.1183557 0.134119
v 0.1489111 0.1489111 0.1341191
v 0.1673803 -2.384484E-08 0.09785796
v 0.08206464 0.1919409 0.1531074
v 0.06678694 0.1550573 0.1531073
v 2.68149E-08 0.1673802 0.1645887
v 2.681491E-08 0.2105921 0.1645887
v 0.1489111 -0.1489111 0.08211783
v 0.2105921 -2.573369E-08 0.09785795
v 0.1489111 -0.1489111 0.08211783
v 0.1183558 -0.1183557 0.08211783
v 1.218315E-08 -0.2105921 0.07477966
v 1.218315E-08 -0.2105921 0.07477966
v 1.218315E-08 -0.1673803 0.07477967
v 0.1673803 -2.384484E-08 0.09785796
v 0.1183557 0.1183557 -0.02287033
v 0.1183557 0.1183557 0.134119
v 0.1673803 -8.912725E-09 0.01339072
v 0.06678694 0.1550573 0.1531073
v 0.06678692 0.1550573 -0.04185865
v 0.1183558 -0.1183557 0.08211783
v 0.1183557 -0.1183557 0.02913081
v 1.218315E-08 -0.1673803 0.07477967
v 5.941557E-09 -0.1673803 0.03646901
v -8.690176E-09 0.1673803 -0.05333991
v 2.68149E-08 0.1673802 0.1645887
v 0.1673803 -8.912725E-09 0.01339072
v 0.1489111 0.1489111 -0.02287033
v 0.1183557 0.1183557 -0.02287033
v 0.2105921 -1.080157E-08 0.01339071
v 0.08206462 0.1919409 -0.04185864
v 0.06678692 0.1550573 -0.04185865
v -8.690176E-09 0.1673803 -0.05333991
v 0.1183557 -0.1183557 0.02913081
v 0.2105921 -1.080157E-08 0.01339071
v 0.1489111 -0.1489111 0.02913081
v 5.941557E-09 -0.1673803 0.03646901
v 5.941556E-09 -0.2105921 0.03646901
v -8.690176E-09 0.1673803 -0.05333991
v -8.690174E-09 0.2105921 -0.05333991

vn -0.9997326 0.009850621 -0.02092383
vn -0.8480394 0.4650776 -0.2540316
vn -0.9176029 0.3974887 0.002762916
vn -0.9997326 0.00985057 0.0209243
vn -0.8356527 0.5491942 0.00838689
vn -0.6988267 0.6232424 0.351013
vn -0.433818 0.9010006 0
vn -0.6959179 0.6282322 -0.3478831
vn -0.3946238 0.7502077 -0.5305287
vn -0.3962613 0.7487882 0.5313126
vn 0 1 0
vn 0 0.8110831 0.584931
vn 0 0.8110834 -0.5849305
vn -0.8470823 0.4710756 0.2460473
vn -0.4117729 0.5872502 0.6968358
vn 0 0.6400827 0.768306
vn -0.407385 0.5856323 -0.7007655
vn -1.255391E-07 0.6400834 -0.7683055
vn -0.7200844 -0.6938865 0
vn -0.9997326 0.009850621 -0.02092383
vn -0.7200844 -0.6938865 -1.577344E-07
vn 0 -1 -5.645225E-07
vn 0 -1 -5.974366E-07
vn -0.01861962 -0.1866504 0.9822499
vn -0.1696123 -0.1697437 0.9707826
vn 0.006425662 -0.1988643 0.980006
vn -0.1676057 -0.1676062 0.9715022
vn -0.1921564 -0.08764055 0.9774431
vn -0.2151612 -0.08912419 0.9725032
vn 1.54796E-07 -0.0176463 0.9998443
vn 1.393791E-07 -7.945108E-07 1
vn 0.053509 -0.06546097 0.9964194
vn 0.06590921 -0.06166159 0.9959186
vn 1.503775E-07 -0.007956835 0.9999684
vn 1.503775E-07 -0.007956835 0.9999684
vn 1.445196E-07 -1.324184E-07 1
vn 0.053509 -0.06546097 0.9964194
vn -0.01861962 -0.1866504 0.9822499
vn 0.9987503 -0.04997879 -1.528029E-07
vn 0.749123 -0.6624309 -2.176171E-07
vn 0.9987503 -0.04997879 -1.513605E-07
vn 0.7491232 -0.6624307 -2.540861E-07
vn 0.3586446 -0.9334742 -2.360793E-07
vn 0.3586446 -0.9334742 -1.72741E-07
vn 0.7233055 0.6905282 0
vn 0.7233056 0.6905281 0
vn 0 1 2.784136E-07
vn 0 1 2.987183E-07
vn 0 -1 -1.425688E-07
vn 0 -1 -2.100521E-07
vn -0.01397005 -0.1826398 -0.9830806
vn -0.1652521 -0.189614 -0.9678524
vn 0.008426773 -0.1782586 -0.9839476
vn -0.2024516 -0.1816106 -0.962305
vn -0.192157 -0.08763937 -0.9774431
vn -0.215162 -0.0891227 -0.9725032
vn -1.719955E-07 -0.01764507 -0.9998443
vn 0.008426773 -0.1782586 -0.9839476
vn 0.05398647 -0.0629984 -0.9965523
vn 0.05969789 -0.05408225 -0.9967504
vn -1.577095E-07 -0.006004659 -0.999982
vn -1.566581E-07 1.986277E-07 -1
vn -1.719955E-07 -0.01764507 -0.9998443
vn -1.728301E-07 1.324184E-07 -1
vn 0.9997326 0.009850516 -0.02092434
vn 0.9176029 0.3974887 0.00276259
vn 0.8480392 0.4650776 -0.2540319
vn 0.9997326 0.009850527 0.02092378
vn 0.8356526 0.5491942 0.008386575
vn 0.6988268 0.6232423 0.3510127
vn 0.433818 0.9010004 0
vn 0.6959178 0.6282323 -0.3478833
vn 0.3946236 0.7502075 -0.5305288
vn 0.3962615 0.7487883 0.5313125
vn 0 1 0
vn 0 0.8110831 0.584931
vn 0 0.8110834 -0.5849305
vn 0.8470824 0.4710756 0.2460472
vn 0.4117731 0.5872501 0.6968358
vn 0 0.6400827 0.768306
vn 0.4073847 0.5856323 -0.7007656
vn -1.255391E-07 0.6400834 -0.7683055
vn 0.9997326 0.009850516 -0.02092434
vn 0.7200844 -0.6938865 -4.473091E-07
vn 0.7200844 -0.6938865 -4.656088E-07
vn 0 -1 -5.645225E-07
vn 0 -1 -5.974366E-07
vn 0.01862008 -0.1866504 0.9822499
vn 0.1696125 -0.1697438 0.9707825
vn 0.1676058 -0.1676064 0.9715021
vn -0.006425156 -0.1988643 0.980006
vn 0.1921566 -0.08764065 0.9774431
vn 0.2151615 -0.08912432 0.9725032
vn 1.54796E-07 -0.0176463 0.9998443
vn 1.393791E-07 -7.945108E-07 1
vn -0.05350864 -0.06546103 0.9964194
vn 0.01862008 -0.1866504 0.9822499
vn -0.05350864 -0.06546103 0.9964194
vn -0.06590889 -0.06166163 0.9959186
vn 1.503775E-07 -0.007956835 0.9999684
vn 1.503775E-07 -0.007956835 0.9999684
vn 1.445196E-07 -1.324184E-07 1
vn -0.9987503 -0.04997874 1.242762E-07
vn -0.749123 -0.6624309 0
vn -0.749123 -0.6624308 0
vn -0.9987503 -0.04997873 1.373332E-07
vn -0.3586446 -0.9334742 -1.283415E-07
vn -0.3586446 -0.9334742 0
vn -0.7233055 0.6905282 2.868219E-07
vn -0.7233055 0.6905281 3.107591E-07
vn 0 1 2.784136E-07
vn 0 1 2.987183E-07
vn 0 -1 -1.425688E-07
vn 0 -1 -2.100521E-07
vn 0.01396973 -0.1826398 -0.9830806
vn 0.1652518 -0.189614 -0.9678524
vn 0.2024513 -0.1816107 -0.9623051
vn -0.008427096 -0.1782586 -0.9839476
vn 0.1921567 -0.08763937 -0.9774432
vn 0.2151616 -0.0891227 -0.9725032
vn -1.719955E-07 -0.01764507 -0.9998443
vn -0.05398674 -0.06299849 -0.9965523
vn -0.008427096 -0.1782586 -0.9839476
vn -0.05969816 -0.05408233 -0.9967504
vn -1.577095E-07 -0.006004659 -0.999982
vn -1.566581E-07 1.986277E-07 -1
vn -1.719955E-07 -0.01764507 -0.9998443
vn -1.728301E-07 1.324184E-07 -1

vt 0.6495131 0.5292156
vt 0.5922634 0.3065397
vt 0.7060717 0.3289057
vt 0.7717538 0.5263779
vt 0.70389 0.2518375
vt 0.7809198 0.2197803
vt 0.7039072 0.1286266
vt 0.6263695 0.2237265
vt 0.6043646 0.162919
vt 0.8018513 0.1570548
vt 0.7002938 0.01919824
vt 0.8398793 0.04480964
vt 0.5622231 0.05198652
vt 0.8188184 0.3010347
vt 0.8542933 0.1913495
vt 0.9000671 0.07798249
vt 0.5527774 0.1986619
vt 0.5032212 0.08706367
vt 0.7522408 0.746288
vt 0.6495131 0.5292156
vt 0.6784865 0.7479452
vt 0.7514887 0.9728212
vt 0.6888354 0.9742105
vt 0.7717538 0.5263779
vt 0.8745459 0.3225672
vt 0.8300444 0.5347073
vt 0.8188184 0.3010347
vt 0.8542933 0.1913495
vt 0.906224 0.2145699
vt 0.9517097 0.1193821
vt 0.9000671 0.07798249
vt 0.7522408 0.746288
vt 0.8096848 0.7466075
vt 0.7514887 0.9728212
vt 0.7514887 0.9728212
vt 0.8122138 0.9445285
vt 0.7522408 0.746288
vt 0.7717538 0.5263779
vt 0.3579965 0.5848687
vt 0.533634 0.7684994
vt 0.4799233 0.5839669
vt 0.307023 0.7701766
vt 0.2802902 0.8617456
vt 0.5617197 0.8596623
vt 0.3793499 0.39978
vt 0.4558357 0.3992151
vt 0.3885773 0.2147814
vt 0.4438781 0.2143731
vt 0.5790185 0.9575724
vt 0.264443 0.9599013
vt 0.5915763 0.5402488
vt 0.5922634 0.3065397
vt 0.6495131 0.5292156
vt 0.5375558 0.3306037
vt 0.5527774 0.1986619
vt 0.5017518 0.2238054
vt 0.452987 0.1301972
vt 0.6495131 0.5292156
vt 0.6210855 0.7508123
vt 0.6784865 0.7479452
vt 0.626956 0.9485786
vt 0.6888354 0.9742105
vt 0.452987 0.1301972
vt 0.5032212 0.08706367
vt 0.6495131 0.5292156
vt 0.7060717 0.3289057
vt 0.5922634 0.3065397
vt 0.7717538 0.5263779
vt 0.70389 0.2518375
vt 0.7809198 0.2197803
vt 0.7039072 0.1286266
vt 0.6263695 0.2237265
vt 0.6043646 0.162919
vt 0.8018513 0.1570548
vt 0.7002938 0.01919824
vt 0.8398793 0.04480964
vt 0.5622231 0.05198652
vt 0.8188184 0.3010347
vt 0.8542933 0.1913495
vt 0.9000671 0.07798249
vt 0.5527774 0.1986619
vt 0.5032212 0.08706367
vt 0.6495131 0.5292156
vt 0.7522408 0.746288
vt 0.6784865 0.7479452
vt 0.7514887 0.9728212
vt 0.6888354 0.9742105
vt 0.7717538 0.5263779
vt 0.8745459 0.3225672
vt 0.8188184 0.3010347
vt 0.8300444 0.5347073
vt 0.8542933 0.1913495
vt 0.906224 0.2145699
vt 0.9517097 0.1193821
vt 0.9000671 0.07798249
vt 0.7522408 0.746288
vt 0.7717538 0.5263779
vt 0.7522408 0.746288
vt 0.8096848 0.7466075
vt 0.7514887 0.9728212
vt 0.7514887 0.9728212
vt 0.8122138 0.9445285
vt 0.3579965 0.5848687
vt 0.533634 0.7684994
vt 0.307023 0.7701766
vt 0.4799233 0.5839669
vt 0.2802902 0.8617456
vt 0.5617197 0.8596623
vt 0.3793499 0.39978
vt 0.4558357 0.3992151
vt 0.3885773 0.2147814
vt 0.4438781 0.2143731
vt 0.5790185 0.9575724
vt 0.264443 0.9599013
vt 0.5915763 0.5402488
vt 0.5922634 0.3065397
vt 0.5375558 0.3306037
vt 0.6495131 0.5292156
vt 0.5527774 0.1986619
vt 0.5017518 0.2238054
vt 0.452987 0.1301972
vt 0.6210855 0.7508123
vt 0.6495131 0.5292156
vt 0.6784865 0.7479452
vt 0.626956 0.9485786
vt 0.6888354 0.9742105
vt 0.452987 0.1301972
vt 0.5032212 0.08706367

g Tube08.obj
usemtl Tube08
usemap Tube08
f 1/1/1 3/3/3 2/2/2
f 1/1/1 4/4/4 3/3/3
f 2/2/2 3/3/3 5/5/5
f 6/6/6 5/5/5 3/3/3
f 7/7/7 5/5/5 6/6/6
f 8/8/8 5/5/5 7/7/7
f 5/5/5 8/8/8 2/2/2
f 7/7/7 9/9/9 8/8/8
f 6/6/6 10/10/10 7/7/7
f 11/11/11 7/7/7 10/10/10
f 9/9/9 7/7/7 11/11/11
f 10/10/10 12/12/12 11/11/11
f 11/11/11 13/13/13 9/9/9
f 3/3/3 14/14/14 6/6/6
f 10/10/10 6/6/6 14/14/14
f 4/4/4 14/14/14 3/3/3
f 14/14/14 15/15/15 10/10/10
f 16/16/16 12/12/12 10/10/10
f 10/10/10 15/15/15 16/16/16
f 17/17/17 2/2/2 8/8/8
f 8/8/8 9/9/9 17/17/17
f 18/18/18 17/17/17 9/9/9
f 9/9/9 13/13/13 18/18/18
f 19/19/19 4/4/4 20/20/20
f 20/20/20 21/21/21 19/19/19
f 22/22/22 19/19/19 21/21/21
f 21/21/21 23/23/23 22/22/22
f 24/24/24 26/26/26 25/25/25
f 25/25/25 27/27/27 24/24/24
f 28/28/28 27/27/27 25/25/25
f 25/25/25 29/29/29 28/28/28
f 28/28/28 29/29/29 30/30/30
f 30/30/30 31/31/31 28/28/28
f 32/32/32 33/33/33 26/26/26
f 33/33/33 32/32/32 34/34/34
f 35/35/35 36/36/36 33/33/33
f 26/26/26 38/38/38 37/37/37
f 39/39/39 41/41/41 40/40/40
f 40/40/40 42/42/42 39/39/39
f 43/43/43 42/42/42 40/40/40
f 40/40/40 44/44/44 43/43/43
f 41/41/41 39/39/39 45/45/45
f 45/45/45 46/46/46 41/41/41
f 46/46/46 45/45/45 47/47/47
f 47/47/47 48/48/48 46/46/46
f 43/43/43 44/44/44 49/49/49
f 49/49/49 50/50/50 43/43/43
f 51/51/51 53/53/53 52/52/52
f 52/52/52 54/54/54 51/51/51
f 54/54/54 52/52/52 55/55/55
f 55/55/55 56/56/56 54/54/54
f 57/57/57 56/56/56 55/55/55
f 58/58/58 51/51/51 59/59/59
f 59/59/59 60/60/60 58/58/58
f 60/60/60 59/59/59 61/61/61
f 61/61/61 62/62/62 60/60/60
f 55/55/55 64/64/64 63/63/63
f 65/65/65 67/67/67 66/66/66
f 65/65/65 66/66/66 68/68/68
f 69/69/69 66/66/66 67/67/67
f 66/66/66 69/69/69 70/70/70
f 70/70/70 69/69/69 71/71/71
f 71/71/71 69/69/69 72/72/72
f 67/67/67 72/72/72 69/69/69
f 72/72/72 73/73/73 71/71/71
f 71/71/71 74/74/74 70/70/70
f 74/74/74 71/71/71 75/75/75
f 75/75/75 71/71/71 73/73/73
f 75/75/75 76/76/76 74/74/74
f 73/73/73 77/77/77 75/75/75
f 70/70/70 78/78/78 66/66/66
f 78/78/78 70/70/70 74/74/74
f 68/68/68 66/66/66 78/78/78
f 74/74/74 79/79/79 78/78/78
f 80/80/80 79/79/79 74/74/74
f 74/74/74 76/76/76 80/80/80
f 81/81/81 73/73/73 72/72/72
f 72/72/72 67/67/67 81/81/81
f 82/82/82 77/77/77 73/73/73
f 73/73/73 81/81/81 82/82/82
f 83/83/83 68/68/68 84/84/84
f 84/84/84 85/85/85 83/83/83
f 85/85/85 84/84/84 86/86/86
f 86/86/86 87/87/87 85/85/85
f 88/88/88 90/90/90 89/89/89
f 89/89/89 91/91/91 88/88/88
f 89/89/89 90/90/90 92/92/92
f 92/92/92 93/93/93 89/89/89
f 94/94/94 93/93/93 92/92/92
f 92/92/92 95/95/95 94/94/94
f 96/96/96 97/97/97 91/91/91
f 91/91/91 99/99/99 98/98/98
f 100/100/100 98/98/98 99/99/99
f 99/99/99 102/102/102 101/101/101
f 103/103/103 105/105/105 104/104/104
f 104/104/104 106/106/106 103/103/103
f 104/104/104 105/105/105 107/107/107
f 107/107/107 108/108/108 104/104/104
f 109/109/109 103/103/103 106/106/106
f 106/106/106 110/110/110 109/109/109
f 111/111/111 109/109/109 110/110/110
f 110/110/110 112/112/112 111/111/111
f 113/113/113 108/108/108 107/107/107
f 107/107/107 114/114/114 113/113/113
f 115/115/115 117/117/117 116/116/116
f 116/116/116 118/118/118 115/115/115
f 119/119/119 116/116/116 117/117/117
f 117/117/117 120/120/120 119/119/119
f 119/119/119 120/120/120 121/121/121
f 122/122/122 115/115/115 123/123/123
f 123/123/123 124/124/124 122/122/122
f 125/125/125 122/122/122 124/124/124
f 124/124/124 126/126/126 125/125/125
f 127/127/127 128/128/128 119/119/119
