#zhijia.obj

v 2.777464 -5.909988 -0.4679581
v 2.823367 -5.972021 -0.4144635
v 2.813353 -5.861845 -0.427324
v 2.768652 -5.991967 -0.4748116
v 2.818199 -5.860717 -0.3423627
v 2.829208 -5.968793 -0.3475921
v 2.792731 -5.901552 -0.2931417
v 2.785838 -5.982471 -0.2780244
v 2.831644 -6.115088 -0.3426746
v 2.786506 -6.109416 -0.2748492
v 2.78286 -6.190285 -0.2793118
v 2.810985 -6.223862 -0.3423758
v 2.806772 -6.226192 -0.3906167
v 2.826221 -6.118084 -0.4047714
v 2.76801 -6.198491 -0.4493538
v 2.770071 -6.118497 -0.4630405
v 2.195889 -7.440315 0.207481
v 2.242096 -7.359982 0.1629031
v 2.245564 -7.460418 0.1645533
v 2.209605 -7.319012 0.182439
v 2.14046 -7.436784 0.2121502
v 2.185705 -7.565709 0.2153911
v 2.134542 -7.562628 0.2197111
v 2.082971 -7.449801 0.17824
v 2.078249 -7.559602 0.1839528
v 2.171005 -7.687711 0.2056707
v 2.219828 -7.665084 0.1737841
v 2.234205 -7.569298 0.1708002
v 2.131497 -7.685524 0.2090151
v 2.134281 -7.315469 0.1862577
v 2.097882 -7.350229 0.1750342
v 2.079789 -7.656265 0.1855966
v 1.616633 -6.96156 0.1651401
v 1.580665 -7.053885 0.2050596
v 1.57476 -6.951272 0.1996591
v 1.619683 -7.050506 0.1691676
v 1.618793 -7.12919 0.1701473
v 1.582201 -7.153386 0.196699
v 1.539214 -7.056915 0.2088193
v 1.550121 -7.155901 0.1996195
v 1.529904 -6.954792 0.2037461
v 1.603206 -6.884691 0.1683895
v 1.57146 -6.856312 0.1876441
v 1.485092 -6.971628 0.1771128
v 1.486619 -6.893743 0.1790091
v 1.516521 -6.860108 0.1926256
v 1.493445 -7.060546 0.1806745
v 1.505425 -7.13823 0.1804833
v 1.773954 -7.296632 0.1938384
v 1.834818 -7.396308 0.2309589
v 1.781665 -7.398802 0.1980967
v 1.826405 -7.277618 0.2250045
v 1.775797 -7.184862 0.1902172
v 1.811773 -7.142694 0.2067538
v 1.878466 -7.275014 0.2203285
v 1.877251 -7.139862 0.2025441
v 1.882901 -7.393717 0.2266348
v 1.88243 -7.508984 0.2163231
v 1.845233 -7.511045 0.2196693
v 1.925516 -7.482508 0.1866753
v 1.928192 -7.391509 0.1849482
v 1.79376 -7.489738 0.1985296
v 1.926912 -7.28836 0.1800814
v 1.911339 -7.177614 0.178029
v 2.425328 -7.206768 0.1328071
v 2.469316 -7.252221 0.1663771
v 2.413743 -7.265587 0.1347277
v 2.477138 -7.168032 0.1500534
v 2.46483 -7.374725 0.1741243
v 2.41023 -7.371645 0.1391944
v 2.412594 -7.466362 0.1416249
v 2.462926 -7.493331 0.1636195
v 2.501297 -7.495524 0.1603674
v 2.514379 -7.377332 0.1699213
v 2.548451 -7.473311 0.1301022
v 2.561254 -7.380416 0.1264261
v 2.571395 -7.274333 0.1213834
v 2.523036 -7.255285 0.161833
v 2.564972 -7.2137 0.1209465
v 2.521006 -7.170671 0.1463467

vn 0.7657717 -0.02859894 -0.6424763
vn 0.9196153 0.01570026 -0.3925065
vn 0.9443989 0.05239994 -0.3245996
vn 0.7421777 -0.02889913 -0.6695798
vn 0.9804168 0.0821014 0.1790031
vn 0.9719715 0.05279845 0.2290933
vn 0.8839723 0.01199962 0.4673853
vn 0.8467696 0.03539873 0.5307809
vn 0.9693011 -0.06830008 0.2362003
vn 0.8313991 -0.02299998 0.5551994
vn 0.8522663 -0.124895 0.5079799
vn 0.9693437 -0.1836893 0.1631905
vn 0.926668 -0.2076928 -0.3132892
vn 0.913053 -0.102606 -0.3947229
vn 0.7456274 -0.1848068 -0.6402236
vn 0.7171925 -0.09409902 -0.6904928
vn 0.3829881 0.07779758 0.9204714
vn 0.6176071 0.07900091 0.782509
vn 0.6539971 0.0007999964 0.7564966
vn 0.2864988 0.1698993 0.9428959
vn -0.2187967 0.1298981 0.9670856
vn 0.3900081 -0.03570075 0.9201191
vn -0.2268062 0.00510014 0.9739266
vn -0.5135949 0.100799 0.8520915
vn -0.5344017 0.03740012 0.8444028
vn 0.2990047 -0.1115018 0.947715
vn 0.611527 -0.1176052 0.7824345
vn 0.6699722 -0.04419817 0.7410693
vn -0.1441038 -0.08240215 0.9861258
vn -0.1452017 0.1815022 0.9726116
vn -0.3666051 0.0847012 0.926513
vn -0.4717042 -0.04500041 0.8806078
vn 0.6443958 0.06649957 0.7617951
vn 0.3961216 0.009400511 0.9181499
vn 0.3751849 0.09109633 0.9224629
vn 0.669994 0.03799966 0.7413933
vn 0.6310951 -0.03959969 0.774694
vn 0.3208959 -0.07439905 0.9441879
vn -0.2158044 -0.0347007 0.9758198
vn -0.1301993 -0.1060994 0.9857945
vn -0.2127056 0.05020133 0.9758258
vn 0.6083913 0.1091985 0.7860888
vn 0.2883884 0.1298948 0.948662
vn -0.5113256 -0.008700435 0.859343
vn -0.4687748 0.02539863 0.8829525
vn -0.1294954 0.09759656 0.9867653
vn -0.5205199 -0.04740182 0.8525327
vn -0.4592054 -0.1161014 0.8807104
vn -0.5181218 0.01710072 0.8551359
vn -0.2167097 -0.03100139 0.9757438
vn -0.5244022 -0.03370014 0.8508036
vn -0.2209997 0.06509991 0.9730987
vn -0.4897728 0.05899672 0.8698517
vn -0.1496069 0.1166054 0.9818456
vn 0.3813055 0.09540138 0.9195133
vn 0.298911 0.1318048 0.9451348
vn 0.3924815 -0.002399887 0.9197567
vn 0.3134985 -0.08589959 0.9456955
vn -0.125899 -0.1084991 0.9860919
vn 0.6209782 -0.05389811 0.7819725
vn 0.6765949 0.01959985 0.7360945
vn -0.4524806 -0.1083954 0.8851621
vn 0.654934 0.07810405 0.751639
vn 0.6539007 0.1047001 0.7493008
vn -0.384282 0.1055951 0.9171571
vn -0.2264029 0.1421018 0.9636124
vn -0.5007057 0.1107013 0.8585098
vn -0.118798 0.1841969 0.9756836
vn -0.2252965 0.00319995 0.9742849
vn -0.5373706 0.03159827 0.842754
vn -0.4651946 -0.04829944 0.8838898
vn -0.1393963 -0.08509772 0.9865735
vn 0.2966922 -0.1094971 0.948675
vn 0.3916202 -0.02970153 0.9196475
vn 0.6086075 -0.1100013 0.7858096
vn 0.6718143 -0.03450073 0.7399157
vn 0.6452218 0.01610054 0.7638257
vn 0.3879063 0.09280151 0.917015
vn 0.628289 0.1217979 0.7683867
vn 0.2915843 0.1789903 0.9396494

vt 0.6079 0.2136
vt 0.6788 0.1679
vt 0.5701 0.1635
vt 0.6911 0.2181
vt 0.5729 0.1091
vt 0.6788 0.1145
vt 0.6079 0.06900001
vt 0.6892 0.05489999
vt 0.7875 0.1161
vt 0.7856 0.05779999
vt 0.8687 0.07789999
vt 0.8886 0.1224
vt 0.8886 0.1594
vt 0.7875 0.1673
vt 0.8687 0.2075
vt 0.7875 0.2158
vt 0.6788 0.1679
vt 0.6079 0.2136
vt 0.6911 0.2181
vt 0.5701 0.1635
vt 0.6788 0.1145
vt 0.7875 0.1673
vt 0.7875 0.1161
vt 0.6892 0.05489999
vt 0.7856 0.05779999
vt 0.8886 0.1594
vt 0.8687 0.2075
vt 0.7875 0.2158
vt 0.8886 0.1224
vt 0.5701 0.12
vt 0.6079 0.06900001
vt 0.8687 0.07789999
vt 0.6911 0.2181
vt 0.7875 0.1673
vt 0.6788 0.1679
vt 0.7875 0.2158
vt 0.8687 0.2075
vt 0.8886 0.1594
vt 0.7875 0.1161
vt 0.8886 0.1224
vt 0.6788 0.1145
vt 0.6079 0.2136
vt 0.5729 0.1745
vt 0.6892 0.05489999
vt 0.6079 0.06900001
vt 0.5729 0.1091
vt 0.7856 0.05779999
vt 0.8687 0.07789999
vt 0.6892 0.05489999
vt 0.7875 0.1161
vt 0.7856 0.05779999
vt 0.6788 0.1145
vt 0.6079 0.06900001
vt 0.5701 0.12
vt 0.6788 0.1679
vt 0.5701 0.1635
vt 0.7875 0.1673
vt 0.8886 0.1594
vt 0.8886 0.1224
vt 0.8687 0.2075
vt 0.7875 0.2158
vt 0.8687 0.07789999
vt 0.6911 0.2181
vt 0.6079 0.2136
vt 0.6079 0.06900001
vt 0.6788 0.1145
vt 0.6892 0.05489999
vt 0.5729 0.1091
vt 0.7875 0.1161
vt 0.7856 0.05779999
vt 0.8687 0.07789999
vt 0.8886 0.1224
vt 0.8886 0.1594
vt 0.7875 0.1673
vt 0.8687 0.2075
vt 0.7875 0.2158
vt 0.6911 0.2181
vt 0.6788 0.1679
vt 0.6079 0.2136
vt 0.5701 0.1635

g zhijia.obj
usemtl zhijia
usemap zhijia
f 1/1/1 3/3/3 2/2/2
f 2/2/2 4/4/4 1/1/1
f 2/2/2 3/3/3 5/5/5
f 5/5/5 6/6/6 2/2/2
f 6/6/6 5/5/5 7/7/7
f 7/7/7 8/8/8 6/6/6
f 9/9/9 6/6/6 8/8/8
f 2/2/2 6/6/6 9/9/9
f 8/8/8 10/10/10 9/9/9
f 9/9/9 10/10/10 11/11/11
f 11/11/11 12/12/12 9/9/9
f 9/9/9 12/12/12 13/13/13
f 13/13/13 14/14/14 9/9/9
f 9/9/9 14/14/14 2/2/2
f 4/4/4 2/2/2 14/14/14
f 14/14/14 13/13/13 15/15/15
f 15/15/15 16/16/16 14/14/14
f 14/14/14 16/16/16 4/4/4
f 17/17/17 19/19/19 18/18/18
f 18/18/18 20/20/20 17/17/17
f 21/21/21 17/17/17 20/20/20
f 22/22/22 17/17/17 21/21/21
f 19/19/19 17/17/17 22/22/22
f 21/21/21 23/23/23 22/22/22
f 23/23/23 21/21/21 24/24/24
f 24/24/24 25/25/25 23/23/23
f 26/26/26 22/22/22 23/23/23
f 22/22/22 26/26/26 27/27/27
f 27/27/27 28/28/28 22/22/22
f 22/22/22 28/28/28 19/19/19
f 23/23/23 29/29/29 26/26/26
f 20/20/20 30/30/30 21/21/21
f 21/21/21 30/30/30 31/31/31
f 31/31/31 24/24/24 21/21/21
f 32/32/32 29/29/29 23/23/23
f 23/23/23 25/25/25 32/32/32
f 33/33/33 35/35/35 34/34/34
f 34/34/34 36/36/36 33/33/33
f 37/37/37 36/36/36 34/34/34
f 34/34/34 38/38/38 37/37/37
f 38/38/38 34/34/34 39/39/39
f 39/39/39 34/34/34 35/35/35
f 39/39/39 40/40/40 38/38/38
f 35/35/35 41/41/41 39/39/39
f 35/35/35 33/33/33 42/42/42
f 42/42/42 43/43/43 35/35/35
f 39/39/39 41/41/41 44/44/44
f 45/45/45 44/44/44 41/41/41
f 41/41/41 46/46/46 45/45/45
f 35/35/35 43/43/43 46/46/46
f 46/46/46 41/41/41 35/35/35
f 44/44/44 47/47/47 39/39/39
f 39/39/39 47/47/47 48/48/48
f 48/48/48 40/40/40 39/39/39
f 49/49/49 51/51/51 50/50/50
f 50/50/50 52/52/52 49/49/49
f 53/53/53 49/49/49 52/52/52
f 52/52/52 54/54/54 53/53/53
f 54/54/54 52/52/52 55/55/55
f 55/55/55 52/52/52 50/50/50
f 55/55/55 56/56/56 54/54/54
f 50/50/50 57/57/57 55/55/55
f 58/58/58 57/57/57 50/50/50
f 50/50/50 59/59/59 58/58/58
f 57/57/57 58/58/58 60/60/60
f 60/60/60 61/61/61 57/57/57
f 62/62/62 59/59/59 50/50/50
f 50/50/50 51/51/51 62/62/62
f 63/63/63 55/55/55 57/57/57
f 57/57/57 61/61/61 63/63/63
f 64/64/64 56/56/56 55/55/55
f 55/55/55 63/63/63 64/64/64
f 65/65/65 67/67/67 66/66/66
f 66/66/66 68/68/68 65/65/65
f 69/69/69 66/66/66 67/67/67
f 67/67/67 70/70/70 69/69/69
f 69/69/69 70/70/70 71/71/71
f 71/71/71 72/72/72 69/69/69
f 69/69/69 72/72/72 73/73/73
f 73/73/73 74/74/74 69/69/69
f 74/74/74 73/73/73 75/75/75
f 75/75/75 76/76/76 74/74/74
f 74/74/74 76/76/76 77/77/77
f 77/77/77 78/78/78 74/74/74
f 69/69/69 74/74/74 78/78/78
f 78/78/78 66/66/66 69/69/69
f 78/78/78 77/77/77 79/79/79
f 79/79/79 80/80/80 78/78/78
f 66/66/66 78/78/78 80/80/80
f 80/80/80 68/68/68 66/66/66
