#zhijia.obj

v -0.9914902 -0.8827982 -0.240507
v -0.9334434 -0.9454746 -0.2950754
v -0.925252 -0.8635961 -0.3059921
v -0.9757891 -0.9930319 -0.2494706
v -0.9816748 -0.9903772 -0.1585733
v -0.9985262 -0.8831242 -0.1688581
v -0.9518365 -0.9463246 -0.1077698
v -0.9459563 -0.864553 -0.09514585
v -1.0061 -0.7369044 -0.1699743
v -0.9507623 -0.7376689 -0.09728437
v -0.9488501 -0.6569849 -0.1055876
v -0.9842758 -0.6274799 -0.1744318
v -0.9792007 -0.6272448 -0.2261192
v -0.9995677 -0.7366038 -0.2365075
v -0.9309619 -0.6561574 -0.2877777
v -0.9309624 -0.7367546 -0.2989206
v -0.1407134 0.5795511 0.335249
v -0.08421817 0.6643782 0.3744105
v -0.1009885 0.5409577 0.3602736
v -0.1449536 0.6796324 0.3266392
v -0.01644818 0.6613818 0.3797455
v -0.07176791 0.789977 0.3698882
v -0.009213409 0.787389 0.3748047
v 0.05384097 0.6705842 0.3423045
v 0.05961291 0.7804295 0.3370525
v -0.06115264 0.8229412 0.3560086
v -0.1208455 0.7969123 0.3244012
v -0.1310663 0.7886214 0.3220508
v -0.01284824 0.8211349 0.3597944
v -0.008894531 0.5378553 0.3647043
v 0.03560888 0.5711896 0.3491693
v 0.05037259 0.7894455 0.3378857
v 0.6644476 0.2709676 0.3173999
v 0.6204718 0.1771274 0.2781191
v 0.6167425 0.2661714 0.279139
v 0.671667 0.1682118 0.3154168
v 0.6221376 0.2784163 0.2797353
v 0.6668772 0.3036458 0.3072375
v 0.7151284 0.2741447 0.3213089
v 0.7060998 0.3062744 0.3102682
v 0.7265099 0.1718906 0.3196577
v 0.6368876 0.1004393 0.2844355
v 0.6757014 0.07284165 0.3060768
v 0.7812998 0.187662 0.2905516
v 0.779433 0.1099049 0.2954583
v 0.7428727 0.07683185 0.3112642
v 0.7710875 0.27666 0.2910743
v 0.7607474 0.2878585 0.2904553
v 0.3462852 0.6087664 0.4473635
v 0.4207008 0.5090907 0.4076367
v 0.3565714 0.4900772 0.440991
v 0.4112737 0.6112602 0.412194
v 0.4184473 0.3973202 0.4037614
v 0.3744616 0.3551519 0.4214591
v 0.2929188 0.4874729 0.4359868
v 0.2944047 0.3523201 0.4169537
v 0.2874965 0.6061758 0.4427358
v 0.2921789 0.6368188 0.4317002
v 0.3376587 0.6388793 0.4352813
v 0.2394995 0.6103423 0.3999707
v 0.2321213 0.6039675 0.3981224
v 0.4005912 0.6175724 0.4126574
v 0.2336866 0.500818 0.3929139
v 0.2527267 0.3900725 0.3907175
v -0.4138923 0.4624527 0.2208318
v -0.3601109 0.4134662 0.1898954
v -0.4234565 0.376891 0.2123325
v -0.3459454 0.4721744 0.1857403
v -0.4084074 0.5851485 0.2161655
v -0.3416501 0.5781462 0.1793159
v -0.348177 0.5869944 0.1809938
v -0.4097153 0.6162948 0.2015592
v -0.45663 0.6181086 0.1978669
v -0.4689882 0.5872669 0.2114177
v -0.5142818 0.5926059 0.1679982
v -0.5262989 0.5854276 0.1648029
v -0.5386989 0.4793662 0.1706169
v -0.4795727 0.4649872 0.2156729
v -0.5308453 0.4190216 0.1765421
v -0.4770912 0.3790983 0.2081094

vn -0.9055536 -0.07067966 -0.4183024
vn -0.7045977 -0.03551593 -0.7087176
vn -0.6941757 -0.01545695 -0.7196396
vn -0.9286426 -0.1032983 -0.3563036
vn -0.9720242 -0.123817 0.1995954
vn -0.9658778 -0.08384798 0.2450501
vn -0.8209673 -0.05739663 0.5680831
vn -0.806689 -0.03166768 0.5901271
vn -0.964732 0.06417453 0.2552915
vn -0.7951967 0.0286072 0.6056764
vn -0.8204605 0.1414718 0.5539227
vn -0.9634516 0.1994446 0.1788378
vn -0.9112318 0.2037152 -0.35799
vn -0.9000086 0.0745443 -0.4294506
vn -0.7018342 0.1554913 -0.6951627
vn -0.6718906 0.05398629 -0.7386802
vn -0.5690414 -0.000644986 0.8223087
vn -0.3455144 0.009478358 0.9383656
vn -0.2746185 -0.07951026 0.9582603
vn -0.6107777 0.07294961 0.7884345
vn 0.1872396 -0.02954243 0.9818699
vn -0.3537969 0.2656252 0.8968115
vn 0.2230458 0.2227928 0.9490068
vn 0.4734001 -0.00455797 0.8808357
vn 0.4870834 0.1477574 0.8607656
vn -0.2667569 0.4452453 0.8547499
vn -0.5556033 0.4872089 0.673745
vn -0.6132947 0.2368094 0.753519
vn 0.1669339 0.4156663 0.8940663
vn 0.1336925 -0.1117275 0.9847046
vn 0.4152724 -0.06785265 0.9071631
vn 0.4706722 0.4078832 0.7823675
vn -0.3693126 0.1299483 0.9201748
vn -0.6002927 -0.05450286 0.7979211
vn -0.6285209 0.0785524 0.7738159
vn -0.3373594 -0.06762552 0.9389437
vn -0.619549 0.2475187 0.7449117
vn -0.3252333 0.3023269 0.8960032
vn 0.1993408 0.1882873 0.961671
vn 0.1153042 0.3516365 0.9290085
vn 0.1899377 -0.01812685 0.9816288
vn -0.5593792 -0.08964314 0.8240504
vn -0.2661813 -0.1050988 0.9581763
vn 0.4621882 0.04279877 0.8857485
vn 0.4240071 0.008459885 0.9056193
vn 0.13394 -0.06441408 0.9888938
vn 0.4593683 0.1954568 0.8664741
vn 0.4180812 0.420667 0.8051382
vn 0.2039843 0.1923097 0.9598996
vn 0.4688619 -0.01913435 0.8830642
vn 0.1964356 -0.07255118 0.9778289
vn 0.4622384 0.1848943 0.8672656
vn 0.4429111 -0.06349403 0.8943143
vn 0.1470399 -0.1182598 0.9820356
vn -0.3441295 -0.105662 0.9329579
vn -0.2783743 -0.1369389 0.9506606
vn -0.3718139 0.1502013 0.9160753
vn -0.3177474 0.3637332 0.8756338
vn 0.1196795 0.3990384 0.9090903
vn -0.575735 0.4401507 0.6890549
vn -0.6257915 0.1190224 0.7708557
vn 0.3832436 0.5528171 0.7399444
vn -0.6047773 -0.08763334 0.7915584
vn -0.6026835 -0.1181014 0.7891924
vn 0.1915541 -0.03656837 0.9808006
vn 0.4315972 -0.09281538 0.8972788
vn 0.1033599 -0.1097543 0.98857
vn 0.4661819 -0.007943417 0.8846533
vn 0.2113774 0.2247982 0.951202
vn 0.488577 0.09169094 0.8676896
vn 0.4845127 0.2367553 0.8421368
vn 0.171852 0.4241763 0.889124
vn -0.2566248 0.4735338 0.8425612
vn -0.3601066 0.284206 0.8885664
vn -0.5272052 0.5797444 0.6212496
vn -0.6148264 0.2565194 0.7457789
vn -0.6060254 0.05309928 0.793671
vn -0.3505978 -0.007120954 0.9364991
vn -0.5793641 -0.04648805 0.813742
vn -0.271202 -0.09208848 0.9581071

vt 0.364172 0.4210333
vt 0.1822486 0.2708973
vt 0.3965709 0.2577587
vt 0.08418274 0.4333817
vt 0.09060895 0.610611
vt 0.3634019 0.5949548
vt 0.1801634 0.741853
vt 0.3893248 0.7892585
vt 0.6433506 0.591726
vt 0.6376172 0.7815718
vt 0.851907 0.7176222
vt 0.9037952 0.573051
vt 0.9043287 0.4525438
vt 0.6440888 0.4249699
vt 0.8537759 0.2955212
vt 0.6447883 0.2670078
vt 0.1822486 0.2708973
vt 0.364172 0.4210333
vt 0.08418274 0.4333817
vt 0.3965709 0.2577587
vt 0.3634019 0.5949548
vt 0.6440888 0.4249699
vt 0.6433506 0.591726
vt 0.3893248 0.7892585
vt 0.6376172 0.7815718
vt 0.9043287 0.4525438
vt 0.8537759 0.2955212
vt 0.6447883 0.2670078
vt 0.9037952 0.573051
vt 0.08355546 0.5750589
vt 0.1801634 0.741853
vt 0.851907 0.7176222
vt 0.6440888 0.4249699
vt 0.3965709 0.2577587
vt 0.6447883 0.2670078
vt 0.364172 0.4210333
vt 0.8537759 0.2955212
vt 0.9043287 0.4525438
vt 0.6433506 0.591726
vt 0.9037952 0.573051
vt 0.3634019 0.5949548
vt 0.1822486 0.2708973
vt 0.09155208 0.3976062
vt 0.3893248 0.7892585
vt 0.1801634 0.741853
vt 0.09060895 0.610611
vt 0.6376172 0.7815718
vt 0.851907 0.7176222
vt 0.6433506 0.591726
vt 0.3893248 0.7892585
vt 0.3634019 0.5949548
vt 0.6376172 0.7815718
vt 0.1801634 0.741853
vt 0.08355546 0.5750589
vt 0.364172 0.4210333
vt 0.08418274 0.4333817
vt 0.6440888 0.4249699
vt 0.9043287 0.4525438
vt 0.9037952 0.573051
vt 0.8537759 0.2955212
vt 0.6447883 0.2670078
vt 0.851907 0.7176222
vt 0.3965709 0.2577587
vt 0.1822486 0.2708973
vt 0.3634019 0.5949548
vt 0.1801634 0.741853
vt 0.09060895 0.610611
vt 0.3893248 0.7892585
vt 0.6433506 0.591726
vt 0.6376172 0.7815718
vt 0.851907 0.7176222
vt 0.9037952 0.573051
vt 0.9043287 0.4525438
vt 0.6440888 0.4249699
vt 0.8537759 0.2955212
vt 0.6447883 0.2670078
vt 0.3965709 0.2577587
vt 0.364172 0.4210333
vt 0.1822486 0.2708973
vt 0.08418274 0.4333817

g zhijia.obj
usemtl zhijia
usemap zhijia
f 1/1/1 3/3/3 2/2/2
f 2/2/2 4/4/4 1/1/1
f 1/1/1 4/4/4 5/5/5
f 5/5/5 6/6/6 1/1/1
f 6/6/6 5/5/5 7/7/7
f 7/7/7 8/8/8 6/6/6
f 9/9/9 6/6/6 8/8/8
f 1/1/1 6/6/6 9/9/9
f 8/8/8 10/10/10 9/9/9
f 9/9/9 10/10/10 11/11/11
f 11/11/11 12/12/12 9/9/9
f 9/9/9 12/12/12 13/13/13
f 13/13/13 14/14/14 9/9/9
f 9/9/9 14/14/14 1/1/1
f 3/3/3 1/1/1 14/14/14
f 14/14/14 13/13/13 15/15/15
f 15/15/15 16/16/16 14/14/14
f 14/14/14 16/16/16 3/3/3
f 17/17/17 19/19/19 18/18/18
f 18/18/18 20/20/20 17/17/17
f 21/21/21 18/18/18 19/19/19
f 22/22/22 18/18/18 21/21/21
f 20/20/20 18/18/18 22/22/22
f 21/21/21 23/23/23 22/22/22
f 23/23/23 21/21/21 24/24/24
f 24/24/24 25/25/25 23/23/23
f 26/26/26 22/22/22 23/23/23
f 22/22/22 26/26/26 27/27/27
f 27/27/27 28/28/28 22/22/22
f 22/22/22 28/28/28 20/20/20
f 23/23/23 29/29/29 26/26/26
f 19/19/19 30/30/30 21/21/21
f 31/31/31 24/24/24 21/21/21
f 21/21/21 30/30/30 31/31/31
f 23/23/23 25/25/25 32/32/32
f 32/32/32 29/29/29 23/23/23
f 33/33/33 35/35/35 34/34/34
f 34/34/34 36/36/36 33/33/33
f 37/37/37 35/35/35 33/33/33
f 33/33/33 38/38/38 37/37/37
f 38/38/38 33/33/33 39/39/39
f 39/39/39 33/33/33 36/36/36
f 39/39/39 40/40/40 38/38/38
f 36/36/36 41/41/41 39/39/39
f 36/36/36 34/34/34 42/42/42
f 42/42/42 43/43/43 36/36/36
f 39/39/39 41/41/41 44/44/44
f 45/45/45 44/44/44 41/41/41
f 41/41/41 46/46/46 45/45/45
f 46/46/46 41/41/41 36/36/36
f 36/36/36 43/43/43 46/46/46
f 44/44/44 47/47/47 39/39/39
f 48/48/48 40/40/40 39/39/39
f 39/39/39 47/47/47 48/48/48
f 49/49/49 51/51/51 50/50/50
f 50/50/50 52/52/52 49/49/49
f 53/53/53 50/50/50 51/51/51
f 51/51/51 54/54/54 53/53/53
f 54/54/54 51/51/51 55/55/55
f 55/55/55 51/51/51 49/49/49
f 55/55/55 56/56/56 54/54/54
f 49/49/49 57/57/57 55/55/55
f 58/58/58 57/57/57 49/49/49
f 49/49/49 59/59/59 58/58/58
f 57/57/57 58/58/58 60/60/60
f 60/60/60 61/61/61 57/57/57
f 49/49/49 52/52/52 62/62/62
f 62/62/62 59/59/59 49/49/49
f 57/57/57 61/61/61 63/63/63
f 63/63/63 55/55/55 57/57/57
f 55/55/55 63/63/63 64/64/64
f 64/64/64 56/56/56 55/55/55
f 65/65/65 67/67/67 66/66/66
f 66/66/66 68/68/68 65/65/65
f 69/69/69 65/65/65 68/68/68
f 68/68/68 70/70/70 69/69/69
f 69/69/69 70/70/70 71/71/71
f 71/71/71 72/72/72 69/69/69
f 69/69/69 72/72/72 73/73/73
f 73/73/73 74/74/74 69/69/69
f 74/74/74 73/73/73 75/75/75
f 75/75/75 76/76/76 74/74/74
f 74/74/74 76/76/76 77/77/77
f 77/77/77 78/78/78 74/74/74
f 78/78/78 65/65/65 69/69/69
f 69/69/69 74/74/74 78/78/78
f 78/78/78 77/77/77 79/79/79
f 79/79/79 80/80/80 78/78/78
f 80/80/80 67/67/67 65/65/65
f 65/65/65 78/78/78 80/80/80
