#骷髅地宫_骷髅王.obj

v -0.04001465 0.2868192 -0.1134965
v 1.220703E-06 0.3036884 -0.08269332
v -0.1095751 0.2504529 -0.05005722
v 1.220703E-06 0.3038774 -0.1103316
v 1.068115E-06 0.2670589 -0.1298674
v -0.06613594 0.2180698 -0.1315375
v -0.1222292 0.1464256 -0.03258758
v -0.1331498 0.2188301 0.01085678
v -0.1545336 0.1803265 0.09064621
v -0.08470879 0.2920261 0.02978333
v -0.1068136 0.259367 0.109055
v -0.1142171 0.1619252 0.1784496
v -0.08183204 0.2522739 -0.01342514
v -0.0347126 0.2684616 -0.1598241
v -0.05379906 0.2182997 -0.2393904
v -0.1203715 0.1429704 -0.1298671
v 1.068115E-06 0.2670589 -0.1298674
v 1.296997E-06 0.2984487 -0.01388336
v 1.220703E-06 0.3218859 -0.04098266
v 1.296997E-06 0.3092945 0.01841858
v 1.296997E-06 0.2768541 0.1295169
v 6.866455E-07 0.156025 0.2166722
v 1.296997E-06 0.2768541 0.1295169
v -0.103159 0.1120293 -0.1819072
v -0.09296333 0.09164638 -0.1184207
v -0.06040733 0.1111019 -0.170708
v 4.577637E-07 0.1400981 -0.188822
v 9.155273E-07 0.2469606 -0.2475696
v 9.155273E-07 0.2469606 -0.2475696
v 1.068115E-06 0.2759683 -0.1549136
v -0.06501472 0.1367131 -0.09114212
v -0.06040733 0.1111019 -0.170708
v -0.09296333 0.09164638 -0.1184207
v 4.577637E-07 0.1221374 -0.1020677
v 4.577637E-07 0.1400981 -0.188822
v -0.1222292 0.1464256 -0.03258758
v 0.04001679 0.2868192 -0.1134965
v 0.1095771 0.2504529 -0.05005722
v 1.220703E-06 0.3036884 -0.08269332
v 1.220703E-06 0.3038774 -0.1103316
v 1.068115E-06 0.2670589 -0.1298674
v 0.06613762 0.2180698 -0.1315375
v 0.1222303 0.1464256 -0.03258758
v 0.1331517 0.2188301 0.01085678
v 0.1545354 0.1803265 0.09064621
v 0.08471138 0.2920261 0.02978317
v 0.1068159 0.259367 0.1090549
v 0.1142189 0.1619252 0.1784496
v 0.08183433 0.2522739 -0.01342514
v 0.03471458 0.2684616 -0.1598241
v 0.05380074 0.2182997 -0.2393904
v 0.1203725 0.1429704 -0.1298671
v 1.068115E-06 0.2670589 -0.1298674
v 1.296997E-06 0.2984487 -0.01388336
v 1.220703E-06 0.3218859 -0.04098266
v 1.296997E-06 0.3092945 0.01841858
v 1.296997E-06 0.2768541 0.1295169
v 6.866455E-07 0.156025 0.2166722
v 1.296997E-06 0.2768541 0.1295169
v 0.1031597 0.1120293 -0.1819072
v 0.09296402 0.09164638 -0.1184207
v 0.06040817 0.1111019 -0.170708
v 4.577637E-07 0.1400981 -0.188822
v 9.155273E-07 0.2469606 -0.2475696
v 9.155273E-07 0.2469606 -0.2475696
v 1.068115E-06 0.2759683 -0.1549136
v 0.06501564 0.1367131 -0.09114212
v 0.09296402 0.09164638 -0.1184207
v 0.06040817 0.1111019 -0.170708
v 4.577637E-07 0.1221374 -0.1020677
v 4.577637E-07 0.1400981 -0.188822
v 0.1222303 0.1464256 -0.03258758
v -0.1545336 0.1803265 0.09064621
v -0.1663538 0.08615501 -0.03423172
v -0.1222292 0.1464256 -0.03258758
v -0.1663538 0.08615501 -0.03423172
v -0.1545336 0.1803265 0.09064621
v -0.1718186 0.08548386 0.08861511
v 0.1222303 0.1464256 -0.03258758
v 0.1718205 0.08548382 0.08861526
v 0.1545354 0.1803265 0.09064621
v 0.1718205 0.08548382 0.08861526
v 0.1222303 0.1464256 -0.03258758
v 0.1663551 0.08615501 -0.03423172
v -0.1718186 0.08548386 0.08861511
v -0.1438819 -0.03133892 -0.03574661
v -0.1663538 0.08615501 -0.03423172
v -0.1486083 -0.03013397 0.08737717
v 0.1663551 0.08615501 -0.03423172
v 0.1486101 -0.03013393 0.08737732
v 0.1718205 0.08548382 0.08861526
v 0.1438831 -0.03133892 -0.03574631
v -0.1486083 -0.03013397 0.08737717
v 6.866455E-07 -0.1367092 -0.03660812
v -0.1438819 -0.03133892 -0.03574661
v 6.866455E-07 -0.1367092 -0.03660812
v -0.1486083 -0.03013397 0.08737717
v 6.866455E-07 -0.1239131 0.08667343
v 0.1438831 -0.03133892 -0.03574631
v 6.866455E-07 -0.1239131 0.08667343
v 0.1486101 -0.03013393 0.08737732
v 6.866455E-07 -0.1239131 0.08667343
v 0.1438831 -0.03133892 -0.03574631
v 6.866455E-07 -0.1367092 -0.03660812
v -0.1516172 0.1773566 0.08943195
v -0.119926 0.1440992 -0.03146254
v -0.163213 0.0849727 -0.03307547
v -0.163213 0.0849727 -0.03307547
v -0.1685741 0.08431429 0.08743941
v -0.1516172 0.1773566 0.08943195
v 0.119893 0.1440992 -0.03146254
v 0.1515849 0.1773566 0.08943195
v 0.1685419 0.08431425 0.08743957
v 0.1685419 0.08431425 0.08743957
v 0.1631802 0.0849727 -0.03307547
v 0.119893 0.1440992 -0.03146254
v -0.1685741 0.08431429 0.08743941
v -0.163213 0.0849727 -0.03307547
v -0.1411677 -0.03029089 -0.0345616
v -0.1458044 -0.02910881 0.08622497
v 0.1631802 0.0849727 -0.03307547
v 0.1685419 0.08431425 0.08743957
v 0.1457721 -0.02910877 0.08622511
v 0.1411348 -0.03029089 -0.0345613
v -0.1458044 -0.02910881 0.08622497
v -0.1411677 -0.03029089 -0.0345616
v -1.63462E-05 -0.133661 -0.03540676
v -1.63462E-05 -0.133661 -0.03540676
v -1.63462E-05 -0.1211078 0.08553459
v -0.1458044 -0.02910881 0.08622497
v 0.1411348 -0.03029089 -0.0345613
v 0.1457721 -0.02910877 0.08622511
v -1.63462E-05 -0.1211078 0.08553459
v -1.63462E-05 -0.1211078 0.08553459
v -1.63462E-05 -0.133661 -0.03540676
v 0.1411348 -0.03029089 -0.0345613

vn -0.4527481 0.7142322 -0.5337524
vn 1.166323E-06 0.9869398 -0.1610897
vn -0.8119537 0.5564418 -0.1763622
vn 1.254101E-06 0.8951899 -0.4456849
vn 1.031901E-06 0.8992468 -0.4374418
vn -0.8234071 0.5033969 -0.2619014
vn -0.9651064 0.07043023 -0.252209
vn -0.9152072 0.3594283 -0.1822283
vn -0.9121715 0.3847775 0.1410303
vn -0.5128525 0.8454054 -0.1492378
vn -0.5860977 0.6959732 0.4148626
vn -0.4490263 0.5407096 0.7113428
vn -0.5693394 0.8179104 -0.08291652
vn -0.5496278 0.8320774 0.07454208
vn -0.5288182 0.1593658 -0.8336389
vn -0.9911107 0.07265139 -0.1114513
vn 1.031901E-06 0.8992468 -0.4374418
vn 9.082233E-07 0.9905935 0.136838
vn 5.382342E-07 0.9925964 0.1214592
vn 0 0.9990857 -0.04275497
vn 1.006018E-06 0.8032027 0.5957059
vn -4.281326E-07 0.5887026 0.8083497
vn 1.006018E-06 0.8032027 0.5957059
vn -0.5583258 -0.5594563 -0.6126018
vn -0.743204 -0.6630852 -0.08925211
vn 0.1078259 -0.7170722 -0.688608
vn 0 -0.5254122 -0.8508479
vn 0 0.4696992 -0.8828265
vn 0 0.4696992 -0.8828265
vn 5.210997E-07 0.999011 0.04446187
vn 0.3612255 -0.8176168 0.4483514
vn 0.3689727 -0.9254832 0.0856734
vn 0.6672798 -0.642184 0.377276
vn 0 -0.9954128 0.09567421
vn -1.57898E-07 -0.9792348 -0.2027296
vn 0.4847759 -0.652909 0.5819812
vn 0.4527498 0.7142303 -0.5337533
vn 0.8119562 0.5564377 -0.1763641
vn 1.166323E-06 0.9869398 -0.1610897
vn 1.254101E-06 0.8951899 -0.4456849
vn 1.031901E-06 0.8992468 -0.4374418
vn 0.8234096 0.5033923 -0.2619021
vn 0.9651064 0.0704221 -0.2522109
vn 0.9152092 0.3594213 -0.1822316
vn 0.9121736 0.3847726 0.14103
vn 0.5128551 0.8454037 -0.1492392
vn 0.5860995 0.6959713 0.4148631
vn 0.4490256 0.5407088 0.7113438
vn 0.5693415 0.8179087 -0.08291917
vn 0.5496299 0.832076 0.07454146
vn 0.5288199 0.1593642 -0.8336383
vn 0.991111 0.072646 -0.1114516
vn 1.031901E-06 0.8992468 -0.4374418
vn 9.082233E-07 0.9905935 0.136838
vn 5.382342E-07 0.9925964 0.1214592
vn 0 0.9990857 -0.04275497
vn 1.006018E-06 0.8032027 0.5957059
vn -4.281326E-07 0.5887026 0.8083497
vn 1.006018E-06 0.8032027 0.5957059
vn 0.5583231 -0.5594598 -0.612601
vn 0.7432013 -0.6630882 -0.08925203
vn -0.1078268 -0.7170721 -0.688608
vn 0 -0.5254122 -0.8508479
vn 0 0.4696992 -0.8828265
vn 0 0.4696992 -0.8828265
vn 5.210997E-07 0.999011 0.04446187
vn -0.3612264 -0.8176159 0.4483523
vn -0.6672816 -0.642182 0.3772765
vn -0.3689734 -0.9254829 0.08567322
vn 0 -0.9954128 0.09567421
vn -1.57898E-07 -0.9792348 -0.2027296
vn -0.4847763 -0.6529076 0.5819825
vn -0.7510252 0.5594 -0.3507605
vn -0.7510251 0.5594 -0.3507605
vn -0.7510251 0.5594 -0.3507605
vn -0.9827347 0.1800179 -0.04273298
vn -0.9827347 0.1800179 -0.04273298
vn -0.9827347 0.1800179 -0.04273298
vn 0.9388984 0.17743 -0.2949376
vn 0.9388984 0.17743 -0.2949376
vn 0.9388984 0.17743 -0.2949376
vn 0.8060206 0.5909874 -0.03263044
vn 0.8060206 0.5909874 -0.03263044
vn 0.8060206 0.5909873 -0.03263044
vn -0.9813222 -0.1871119 -0.04467591
vn -0.9813222 -0.1871119 -0.04467592
vn -0.9813222 -0.1871119 -0.04467592
vn -0.9798878 -0.1963304 -0.03569403
vn 0.9795532 -0.1961681 -0.04465156
vn 0.9795532 -0.1961681 -0.04465156
vn 0.9795532 -0.1961681 -0.04465156
vn 0.9816503 -0.1872892 -0.03585502
vn -0.5908331 -0.8066583 -0.01478623
vn -0.590833 -0.8066583 -0.01478623
vn -0.5908331 -0.8066583 -0.01478623
vn -0.5313296 -0.8426383 0.08746223
vn -0.5313295 -0.8426383 0.08746222
vn -0.5313296 -0.8426383 0.08746223
vn 0.5336714 -0.8456036 -0.01221321
vn 0.5336714 -0.8456036 -0.01221321
vn 0.5336715 -0.8456036 -0.01221321
vn 0.5884528 -0.804211 0.08347366
vn 0.5884528 -0.804211 0.08347366
vn 0.5884528 -0.804211 0.08347366
vn 0.751025 -0.5594001 0.3507605
vn 0.7510249 -0.5594002 0.3507605
vn 0.751025 -0.5594002 0.3507605
vn 0.9827347 -0.1800179 0.0427329
vn 0.9827347 -0.1800179 0.04273289
vn 0.9827347 -0.1800179 0.04273289
vn -0.9388986 -0.1774299 0.2949376
vn -0.9388986 -0.1774299 0.2949376
vn -0.9388986 -0.1774299 0.2949376
vn -0.8060206 -0.5909873 0.03263037
vn -0.8060206 -0.5909873 0.03263037
vn -0.8060206 -0.5909873 0.03263037
vn 0.9813221 0.1871121 0.04467582
vn 0.9813221 0.1871121 0.04467582
vn 0.9813221 0.1871121 0.04467582
vn 0.9798878 0.1963305 0.03569401
vn -0.9795532 0.1961681 0.04465145
vn -0.9795532 0.196168 0.04465145
vn -0.9795532 0.196168 0.04465146
vn -0.9816503 0.1872892 0.03585499
vn 0.5908329 0.8066583 0.01478618
vn 0.5908329 0.8066583 0.01478618
vn 0.5908329 0.8066583 0.01478619
vn 0.5313296 0.8426383 -0.08746225
vn 0.5313296 0.8426383 -0.08746226
vn 0.5313296 0.8426383 -0.08746226
vn -0.5336716 0.8456036 0.01221314
vn -0.5336716 0.8456036 0.01221314
vn -0.5336716 0.8456036 0.01221314
vn -0.5884529 0.804211 -0.08347368
vn -0.5884529 0.804211 -0.08347368
vn -0.5884529 0.804211 -0.08347368

vt 0.09414828 0.4809403
vt 0.04441074 0.4593862
vt 0.169012 0.4069521
vt 0.04944451 0.4884143
vt 0.06679638 0.5394441
vt 0.1758981 0.5171529
vt 0.2858346 0.4223305
vt 0.2137438 0.3500611
vt 0.2657958 0.2764372
vt 0.1218841 0.3060812
vt 0.1783458 0.2357668
vt 0.2803653 0.1748614
vt 0.1377438 0.3670412
vt 0.1071017 0.5669289
vt 0.141092 0.6287913
vt 0.2595726 0.5324463
vt 0.06679638 0.5394441
vt 0.0314046 0.350502
vt 0.02572311 0.4112304
vt 0.03359742 0.2854521
vt 0.1132927 0.1544602
vt 0.2913918 0.04227149
vt 0.1132927 0.1544602
vt 0.2581632 0.5967783
vt 0.3093664 0.5689863
vt 0.2602367 0.6414967
vt 0.1802905 0.6823183
vt 0.0877759 0.6439798
vt 0.0877759 0.6439798
vt 0.06089264 0.5776246
vt -0.2958749 0.5168219
vt -0.2903787 0.5178522
vt -0.2934663 0.5200406
vt -0.2932814 0.5126791
vt -0.2880104 0.5142242
vt -0.2999588 0.520713
vt 0.09414828 0.4809403
vt 0.169012 0.4069521
vt 0.04441074 0.4593862
vt 0.04944451 0.4884143
vt 0.06679638 0.5394441
vt 0.1758981 0.5171529
vt 0.2858346 0.4223305
vt 0.2137438 0.3500611
vt 0.2657958 0.2764372
vt 0.1218841 0.3060812
vt 0.1783458 0.2357668
vt 0.2803653 0.1748614
vt 0.1377438 0.3670412
vt 0.1071017 0.5669289
vt 0.141092 0.6287913
vt 0.2595726 0.5324463
vt 0.06679638 0.5394441
vt 0.0314046 0.350502
vt 0.02572311 0.4112304
vt 0.03359742 0.2854521
vt 0.1132927 0.1544602
vt 0.2913918 0.04227149
vt 0.1132927 0.1544602
vt 0.2581632 0.5967783
vt 0.3093664 0.5689863
vt 0.2602367 0.6414967
vt 0.1802905 0.6823183
vt 0.0877759 0.6439798
vt 0.0877759 0.6439798
vt 0.06089264 0.5776246
vt -0.2958749 0.5168219
vt -0.2934663 0.5200406
vt -0.2903787 0.5178522
vt -0.2932814 0.5126791
vt -0.2880104 0.5142242
vt -0.2999588 0.520713
vt 0.1610404 0.2048954
vt 0.2027853 0.3269624
vt 0.1729594 0.3226183
vt 0.2027853 0.3269624
vt 0.1610404 0.2048954
vt 0.1983294 0.2068927
vt 0.5818776 0.3201867
vt 0.553899 0.2043999
vt 0.5910785 0.2020515
vt 0.553899 0.2043999
vt 0.5818776 0.3201867
vt 0.5520888 0.3248032
vt 0.1983294 0.2068927
vt 0.2551538 0.3310803
vt 0.2027853 0.3269624
vt 0.2499607 0.2077876
vt 0.5520888 0.3248032
vt 0.5014491 0.2059182
vt 0.553899 0.2043999
vt 0.4989221 0.3295929
vt 0.2499607 0.2077876
vt 0.37674 0.3344129
vt 0.2551538 0.3310803
vt 0.37674 0.3344129
vt 0.2499607 0.2077876
vt 0.3754068 0.2074215
vt 0.4989221 0.3295929
vt 0.3754068 0.2074215
vt 0.5014491 0.2059182
vt 0.3754068 0.2074215
vt 0.4989221 0.3295929
vt 0.37674 0.3344129
vt 0.1610404 0.2048954
vt 0.1729594 0.3226183
vt 0.2027853 0.3269624
vt 0.2027853 0.3269624
vt 0.1983294 0.2068927
vt 0.1610404 0.2048954
vt 0.5818776 0.3201867
vt 0.5910785 0.2020515
vt 0.553899 0.2043999
vt 0.553899 0.2043999
vt 0.5520888 0.3248032
vt 0.5818776 0.3201867
vt 0.1983294 0.2068927
vt 0.2027853 0.3269624
vt 0.2551538 0.3310803
vt 0.2499607 0.2077876
vt 0.5520888 0.3248032
vt 0.553899 0.2043999
vt 0.5014491 0.2059182
vt 0.4989221 0.3295929
vt 0.2499607 0.2077876
vt 0.2551538 0.3310803
vt 0.37674 0.3344129
vt 0.37674 0.3344129
vt 0.3754068 0.2074215
vt 0.2499607 0.2077876
vt 0.4989221 0.3295929
vt 0.5014491 0.2059182
vt 0.3754068 0.2074215
vt 0.3754068 0.2074215
vt 0.37674 0.3344129
vt 0.4989221 0.3295929

g 骷髅地宫_骷髅王.obj
usemtl 骷髅地宫_骷髅王
usemap 骷髅地宫_骷髅王
f 1/1/1 3/3/3 2/2/2
f 2/2/2 4/4/4 1/1/1
f 4/4/4 5/5/5 1/1/1
f 1/1/1 6/6/6 3/3/3
f 3/3/3 6/6/6 7/7/7
f 8/8/8 3/3/3 7/7/7
f 7/7/7 9/9/9 8/8/8
f 8/8/8 9/9/9 10/10/10
f 10/10/10 9/9/9 11/11/11
f 9/9/9 12/12/12 11/11/11
f 3/3/3 8/8/8 13/13/13
f 8/8/8 10/10/10 13/13/13
f 14/14/14 6/6/6 5/5/5
f 6/6/6 14/14/14 15/15/15
f 15/15/15 16/16/16 6/6/6
f 16/16/16 7/7/7 6/6/6
f 17/17/17 6/6/6 1/1/1
f 18/18/18 13/13/13 10/10/10
f 18/18/18 19/19/19 13/13/13
f 20/20/20 18/18/18 10/10/10
f 10/10/10 11/11/11 21/21/21
f 21/21/21 20/20/20 10/10/10
f 11/11/11 12/12/12 22/22/22
f 22/22/22 23/23/23 11/11/11
f 15/15/15 24/24/24 16/16/16
f 16/16/16 24/24/24 25/25/25
f 26/26/26 25/25/25 24/24/24
f 26/26/26 24/24/24 15/15/15
f 15/15/15 27/27/27 26/26/26
f 28/28/28 27/27/27 15/15/15
f 16/16/16 25/25/25 7/7/7
f 29/29/29 15/15/15 14/14/14
f 14/14/14 30/30/30 29/29/29
f 5/5/5 30/30/30 14/14/14
f 3/3/3 19/19/19 2/2/2
f 19/19/19 3/3/3 13/13/13
f 31/31/31 33/33/33 32/32/32
f 34/34/34 31/31/31 32/32/32
f 32/32/32 35/35/35 34/34/34
f 31/31/31 36/36/36 33/33/33
f 37/37/37 39/39/39 38/38/38
f 39/39/39 37/37/37 40/40/40
f 40/40/40 37/37/37 41/41/41
f 37/37/37 38/38/38 42/42/42
f 38/38/38 43/43/43 42/42/42
f 44/44/44 43/43/43 38/38/38
f 43/43/43 44/44/44 45/45/45
f 44/44/44 46/46/46 45/45/45
f 46/46/46 47/47/47 45/45/45
f 45/45/45 47/47/47 48/48/48
f 38/38/38 49/49/49 44/44/44
f 44/44/44 49/49/49 46/46/46
f 50/50/50 41/41/41 42/42/42
f 42/42/42 51/51/51 50/50/50
f 51/51/51 42/42/42 52/52/52
f 52/52/52 42/42/42 43/43/43
f 53/53/53 37/37/37 42/42/42
f 54/54/54 46/46/46 49/49/49
f 54/54/54 49/49/49 55/55/55
f 56/56/56 46/46/46 54/54/54
f 46/46/46 57/57/57 47/47/47
f 57/57/57 46/46/46 56/56/56
f 47/47/47 58/58/58 48/48/48
f 58/58/58 47/47/47 59/59/59
f 51/51/51 52/52/52 60/60/60
f 52/52/52 61/61/61 60/60/60
f 62/62/62 60/60/60 61/61/61
f 51/51/51 60/60/60 62/62/62
f 62/62/62 63/63/63 51/51/51
f 64/64/64 51/51/51 63/63/63
f 52/52/52 43/43/43 61/61/61
f 50/50/50 51/51/51 65/65/65
f 65/65/65 66/66/66 50/50/50
f 41/41/41 50/50/50 66/66/66
f 38/38/38 39/39/39 55/55/55
f 55/55/55 49/49/49 38/38/38
f 67/67/67 69/69/69 68/68/68
f 69/69/69 67/67/67 70/70/70
f 70/70/70 71/71/71 69/69/69
f 67/67/67 68/68/68 72/72/72
f 73/73/73 75/75/75 74/74/74
f 76/76/76 78/78/78 77/77/77
f 79/79/79 81/81/81 80/80/80
f 82/82/82 84/84/84 83/83/83
f 85/85/85 87/87/87 86/86/86
f 86/86/86 88/88/88 85/85/85
f 89/89/89 91/91/91 90/90/90
f 90/90/90 92/92/92 89/89/89
f 93/93/93 95/95/95 94/94/94
f 96/96/96 98/98/98 97/97/97
f 99/99/99 101/101/101 100/100/100
f 102/102/102 104/104/104 103/103/103
f 105/105/105 107/107/107 106/106/106
f 108/108/108 110/110/110 109/109/109
f 111/111/111 113/113/113 112/112/112
f 114/114/114 116/116/116 115/115/115
f 117/117/117 119/119/119 118/118/118
f 119/119/119 117/117/117 120/120/120
f 121/121/121 123/123/123 122/122/122
f 123/123/123 121/121/121 124/124/124
f 125/125/125 127/127/127 126/126/126
f 128/128/128 130/130/130 129/129/129
f 131/131/131 133/133/133 132/132/132
f 134/134/134 136/136/136 135/135/135
